<?xml version="1.0" encoding="utf-8" standalone="no"?>
<!DOCTYPE svg PUBLIC "-//W3C//DTD SVG 1.1//EN"
  "http://www.w3.org/Graphics/SVG/1.1/DTD/svg11.dtd">
<!-- Created with matplotlib (http://matplotlib.org/) -->
<svg height="381.234844pt" version="1.1" viewBox="0 0 518.939062 381.234844" width="518.939062pt" xmlns="http://www.w3.org/2000/svg" xmlns:xlink="http://www.w3.org/1999/xlink">
 <defs>
  <style type="text/css">
*{stroke-linecap:butt;stroke-linejoin:round;}
  </style>
 </defs>
 <g id="figure_1">
  <g id="patch_1">
   <path d="M 0 381.234844 
L 518.939062 381.234844 
L 518.939062 0 
L 0 0 
z
" style="fill:#ffffff;"/>
  </g>
  <g id="axes_1">
   <g id="patch_2">
    <path d="M 59.339063 339.36 
L 505.739062 339.36 
L 505.739062 13.2 
L 59.339063 13.2 
z
" style="fill:#ffffff;"/>
   </g>
   <g id="matplotlib.axis_1">
    <g id="xtick_1">
     <g id="line2d_1">
      <defs>
       <path d="M 0 0 
L 0 6 
" id="m3ed87bdfa5" style="stroke:#262626;stroke-width:1.25;"/>
      </defs>
      <g>
       <use style="fill:#262626;stroke:#262626;stroke-width:1.25;" x="89.227786" xlink:href="#m3ed87bdfa5" y="339.36"/>
      </g>
     </g>
     <g id="text_1">
      <!-- 0 -->
      <defs>
       <path d="M 4.15625 35.296875 
Q 4.15625 48 6.765625 55.734375 
Q 9.375 63.484375 14.515625 67.671875 
Q 19.671875 71.875 27.484375 71.875 
Q 33.25 71.875 37.59375 69.546875 
Q 41.9375 67.234375 44.765625 62.859375 
Q 47.609375 58.5 49.21875 52.21875 
Q 50.828125 45.953125 50.828125 35.296875 
Q 50.828125 22.703125 48.234375 14.96875 
Q 45.65625 7.234375 40.5 3 
Q 35.359375 -1.21875 27.484375 -1.21875 
Q 17.140625 -1.21875 11.234375 6.203125 
Q 4.15625 15.140625 4.15625 35.296875 
z
M 13.1875 35.296875 
Q 13.1875 17.671875 17.3125 11.828125 
Q 21.4375 6 27.484375 6 
Q 33.546875 6 37.671875 11.859375 
Q 41.796875 17.71875 41.796875 35.296875 
Q 41.796875 52.984375 37.671875 58.78125 
Q 33.546875 64.59375 27.390625 64.59375 
Q 21.34375 64.59375 17.71875 59.46875 
Q 13.1875 52.9375 13.1875 35.296875 
z
" id="ArialMT-30"/>
      </defs>
      <g style="fill:#262626;" transform="translate(86.16927 356.733594)scale(0.11 -0.11)">
       <use xlink:href="#ArialMT-30"/>
      </g>
     </g>
    </g>
    <g id="xtick_2">
     <g id="line2d_2">
      <g>
       <use style="fill:#262626;stroke:#262626;stroke-width:1.25;" x="166.552297" xlink:href="#m3ed87bdfa5" y="339.36"/>
      </g>
     </g>
     <g id="text_2">
      <!-- 20 -->
      <defs>
       <path d="M 50.34375 8.453125 
L 50.34375 0 
L 3.03125 0 
Q 2.9375 3.171875 4.046875 6.109375 
Q 5.859375 10.9375 9.828125 15.625 
Q 13.8125 20.3125 21.34375 26.46875 
Q 33.015625 36.03125 37.109375 41.625 
Q 41.21875 47.21875 41.21875 52.203125 
Q 41.21875 57.421875 37.46875 61 
Q 33.734375 64.59375 27.734375 64.59375 
Q 21.390625 64.59375 17.578125 60.78125 
Q 13.765625 56.984375 13.71875 50.25 
L 4.6875 51.171875 
Q 5.609375 61.28125 11.65625 66.578125 
Q 17.71875 71.875 27.9375 71.875 
Q 38.234375 71.875 44.234375 66.15625 
Q 50.25 60.453125 50.25 52 
Q 50.25 47.703125 48.484375 43.546875 
Q 46.734375 39.40625 42.65625 34.8125 
Q 38.578125 30.21875 29.109375 22.21875 
Q 21.1875 15.578125 18.9375 13.203125 
Q 16.703125 10.84375 15.234375 8.453125 
z
" id="ArialMT-32"/>
      </defs>
      <g style="fill:#262626;" transform="translate(160.435265 356.733594)scale(0.11 -0.11)">
       <use xlink:href="#ArialMT-32"/>
       <use x="55.615234" xlink:href="#ArialMT-30"/>
      </g>
     </g>
    </g>
    <g id="xtick_3">
     <g id="line2d_3">
      <g>
       <use style="fill:#262626;stroke:#262626;stroke-width:1.25;" x="243.876807" xlink:href="#m3ed87bdfa5" y="339.36"/>
      </g>
     </g>
     <g id="text_3">
      <!-- 40 -->
      <defs>
       <path d="M 32.328125 0 
L 32.328125 17.140625 
L 1.265625 17.140625 
L 1.265625 25.203125 
L 33.9375 71.578125 
L 41.109375 71.578125 
L 41.109375 25.203125 
L 50.78125 25.203125 
L 50.78125 17.140625 
L 41.109375 17.140625 
L 41.109375 0 
z
M 32.328125 25.203125 
L 32.328125 57.46875 
L 9.90625 25.203125 
z
" id="ArialMT-34"/>
      </defs>
      <g style="fill:#262626;" transform="translate(237.759776 356.733594)scale(0.11 -0.11)">
       <use xlink:href="#ArialMT-34"/>
       <use x="55.615234" xlink:href="#ArialMT-30"/>
      </g>
     </g>
    </g>
    <g id="xtick_4">
     <g id="line2d_4">
      <g>
       <use style="fill:#262626;stroke:#262626;stroke-width:1.25;" x="321.201318" xlink:href="#m3ed87bdfa5" y="339.36"/>
      </g>
     </g>
     <g id="text_4">
      <!-- 60 -->
      <defs>
       <path d="M 49.75 54.046875 
L 41.015625 53.375 
Q 39.84375 58.546875 37.703125 60.890625 
Q 34.125 64.65625 28.90625 64.65625 
Q 24.703125 64.65625 21.53125 62.3125 
Q 17.390625 59.28125 14.984375 53.46875 
Q 12.59375 47.65625 12.5 36.921875 
Q 15.671875 41.75 20.265625 44.09375 
Q 24.859375 46.4375 29.890625 46.4375 
Q 38.671875 46.4375 44.84375 39.96875 
Q 51.03125 33.5 51.03125 23.25 
Q 51.03125 16.5 48.125 10.71875 
Q 45.21875 4.9375 40.140625 1.859375 
Q 35.0625 -1.21875 28.609375 -1.21875 
Q 17.625 -1.21875 10.6875 6.859375 
Q 3.765625 14.9375 3.765625 33.5 
Q 3.765625 54.25 11.421875 63.671875 
Q 18.109375 71.875 29.4375 71.875 
Q 37.890625 71.875 43.28125 67.140625 
Q 48.6875 62.40625 49.75 54.046875 
z
M 13.875 23.1875 
Q 13.875 18.65625 15.796875 14.5 
Q 17.71875 10.359375 21.1875 8.171875 
Q 24.65625 6 28.46875 6 
Q 34.03125 6 38.03125 10.484375 
Q 42.046875 14.984375 42.046875 22.703125 
Q 42.046875 30.125 38.078125 34.390625 
Q 34.125 38.671875 28.125 38.671875 
Q 22.171875 38.671875 18.015625 34.390625 
Q 13.875 30.125 13.875 23.1875 
z
" id="ArialMT-36"/>
      </defs>
      <g style="fill:#262626;" transform="translate(315.084287 356.733594)scale(0.11 -0.11)">
       <use xlink:href="#ArialMT-36"/>
       <use x="55.615234" xlink:href="#ArialMT-30"/>
      </g>
     </g>
    </g>
    <g id="xtick_5">
     <g id="line2d_5">
      <g>
       <use style="fill:#262626;stroke:#262626;stroke-width:1.25;" x="398.525828" xlink:href="#m3ed87bdfa5" y="339.36"/>
      </g>
     </g>
     <g id="text_5">
      <!-- 80 -->
      <defs>
       <path d="M 17.671875 38.8125 
Q 12.203125 40.828125 9.5625 44.53125 
Q 6.9375 48.25 6.9375 53.421875 
Q 6.9375 61.234375 12.546875 66.546875 
Q 18.171875 71.875 27.484375 71.875 
Q 36.859375 71.875 42.578125 66.421875 
Q 48.296875 60.984375 48.296875 53.171875 
Q 48.296875 48.1875 45.671875 44.5 
Q 43.0625 40.828125 37.75 38.8125 
Q 44.34375 36.671875 47.78125 31.875 
Q 51.21875 27.09375 51.21875 20.453125 
Q 51.21875 11.28125 44.71875 5.03125 
Q 38.234375 -1.21875 27.640625 -1.21875 
Q 17.046875 -1.21875 10.546875 5.046875 
Q 4.046875 11.328125 4.046875 20.703125 
Q 4.046875 27.6875 7.59375 32.390625 
Q 11.140625 37.109375 17.671875 38.8125 
z
M 15.921875 53.71875 
Q 15.921875 48.640625 19.1875 45.40625 
Q 22.46875 42.1875 27.6875 42.1875 
Q 32.765625 42.1875 36.015625 45.375 
Q 39.265625 48.578125 39.265625 53.21875 
Q 39.265625 58.0625 35.90625 61.359375 
Q 32.5625 64.65625 27.59375 64.65625 
Q 22.5625 64.65625 19.234375 61.421875 
Q 15.921875 58.203125 15.921875 53.71875 
z
M 13.09375 20.65625 
Q 13.09375 16.890625 14.875 13.375 
Q 16.65625 9.859375 20.171875 7.921875 
Q 23.6875 6 27.734375 6 
Q 34.03125 6 38.125 10.046875 
Q 42.234375 14.109375 42.234375 20.359375 
Q 42.234375 26.703125 38.015625 30.859375 
Q 33.796875 35.015625 27.4375 35.015625 
Q 21.234375 35.015625 17.15625 30.90625 
Q 13.09375 26.8125 13.09375 20.65625 
z
" id="ArialMT-38"/>
      </defs>
      <g style="fill:#262626;" transform="translate(392.408797 356.733594)scale(0.11 -0.11)">
       <use xlink:href="#ArialMT-38"/>
       <use x="55.615234" xlink:href="#ArialMT-30"/>
      </g>
     </g>
    </g>
    <g id="xtick_6">
     <g id="line2d_6">
      <g>
       <use style="fill:#262626;stroke:#262626;stroke-width:1.25;" x="475.850339" xlink:href="#m3ed87bdfa5" y="339.36"/>
      </g>
     </g>
     <g id="text_6">
      <!-- 100 -->
      <defs>
       <path d="M 37.25 0 
L 28.46875 0 
L 28.46875 56 
Q 25.296875 52.984375 20.140625 49.953125 
Q 14.984375 46.921875 10.890625 45.40625 
L 10.890625 53.90625 
Q 18.265625 57.375 23.78125 62.296875 
Q 29.296875 67.234375 31.59375 71.875 
L 37.25 71.875 
z
" id="ArialMT-31"/>
      </defs>
      <g style="fill:#262626;" transform="translate(466.674792 356.733594)scale(0.11 -0.11)">
       <use xlink:href="#ArialMT-31"/>
       <use x="55.615234" xlink:href="#ArialMT-30"/>
       <use x="111.230469" xlink:href="#ArialMT-30"/>
      </g>
     </g>
    </g>
    <g id="text_7">
     <!-- Age -->
     <defs>
      <path d="M -0.140625 0 
L 27.34375 71.578125 
L 37.546875 71.578125 
L 66.84375 0 
L 56.0625 0 
L 47.703125 21.6875 
L 17.78125 21.6875 
L 9.90625 0 
z
M 20.515625 29.390625 
L 44.78125 29.390625 
L 37.3125 49.21875 
Q 33.890625 58.25 32.234375 64.0625 
Q 30.859375 57.171875 28.375 50.390625 
z
" id="ArialMT-41"/>
      <path d="M 4.984375 -4.296875 
L 13.53125 -5.5625 
Q 14.0625 -9.515625 16.5 -11.328125 
Q 19.78125 -13.765625 25.4375 -13.765625 
Q 31.546875 -13.765625 34.859375 -11.328125 
Q 38.1875 -8.890625 39.359375 -4.5 
Q 40.046875 -1.8125 39.984375 6.78125 
Q 34.234375 0 25.640625 0 
Q 14.9375 0 9.078125 7.71875 
Q 3.21875 15.4375 3.21875 26.21875 
Q 3.21875 33.640625 5.90625 39.90625 
Q 8.59375 46.1875 13.6875 49.609375 
Q 18.796875 53.03125 25.6875 53.03125 
Q 34.859375 53.03125 40.828125 45.609375 
L 40.828125 51.859375 
L 48.921875 51.859375 
L 48.921875 7.03125 
Q 48.921875 -5.078125 46.453125 -10.125 
Q 44 -15.1875 38.640625 -18.109375 
Q 33.296875 -21.046875 25.484375 -21.046875 
Q 16.21875 -21.046875 10.5 -16.875 
Q 4.78125 -12.703125 4.984375 -4.296875 
z
M 12.25 26.859375 
Q 12.25 16.65625 16.296875 11.96875 
Q 20.359375 7.28125 26.46875 7.28125 
Q 32.515625 7.28125 36.609375 11.9375 
Q 40.71875 16.609375 40.71875 26.5625 
Q 40.71875 36.078125 36.5 40.90625 
Q 32.28125 45.75 26.3125 45.75 
Q 20.453125 45.75 16.34375 40.984375 
Q 12.25 36.234375 12.25 26.859375 
z
" id="ArialMT-67"/>
      <path d="M 42.09375 16.703125 
L 51.171875 15.578125 
Q 49.03125 7.625 43.21875 3.21875 
Q 37.40625 -1.171875 28.375 -1.171875 
Q 17 -1.171875 10.328125 5.828125 
Q 3.65625 12.84375 3.65625 25.484375 
Q 3.65625 38.578125 10.390625 45.796875 
Q 17.140625 53.03125 27.875 53.03125 
Q 38.28125 53.03125 44.875 45.953125 
Q 51.46875 38.875 51.46875 26.03125 
Q 51.46875 25.25 51.421875 23.6875 
L 12.75 23.6875 
Q 13.234375 15.140625 17.578125 10.59375 
Q 21.921875 6.0625 28.421875 6.0625 
Q 33.25 6.0625 36.671875 8.59375 
Q 40.09375 11.140625 42.09375 16.703125 
z
M 13.234375 30.90625 
L 42.1875 30.90625 
Q 41.609375 37.453125 38.875 40.71875 
Q 34.671875 45.796875 27.984375 45.796875 
Q 21.921875 45.796875 17.796875 41.75 
Q 13.671875 37.703125 13.234375 30.90625 
z
" id="ArialMT-65"/>
     </defs>
     <g style="fill:#262626;" transform="translate(271.86375 371.509219)scale(0.12 -0.12)">
      <use xlink:href="#ArialMT-41"/>
      <use x="66.699219" xlink:href="#ArialMT-67"/>
      <use x="122.314453" xlink:href="#ArialMT-65"/>
     </g>
    </g>
   </g>
   <g id="matplotlib.axis_2">
    <g id="ytick_1">
     <g id="line2d_7">
      <defs>
       <path d="M 0 0 
L -6 0 
" id="md6f5307551" style="stroke:#262626;stroke-width:1.25;"/>
      </defs>
      <g>
       <use style="fill:#262626;stroke:#262626;stroke-width:1.25;" x="59.339063" xlink:href="#md6f5307551" y="339.36"/>
      </g>
     </g>
     <g id="text_8">
      <!-- 0.000 -->
      <defs>
       <path d="M 9.078125 0 
L 9.078125 10.015625 
L 19.09375 10.015625 
L 19.09375 0 
z
" id="ArialMT-2e"/>
      </defs>
      <g style="fill:#262626;" transform="translate(22.315 343.296797)scale(0.11 -0.11)">
       <use xlink:href="#ArialMT-30"/>
       <use x="55.615234" xlink:href="#ArialMT-2e"/>
       <use x="83.398438" xlink:href="#ArialMT-30"/>
       <use x="139.013672" xlink:href="#ArialMT-30"/>
       <use x="194.628906" xlink:href="#ArialMT-30"/>
      </g>
     </g>
    </g>
    <g id="ytick_2">
     <g id="line2d_8">
      <g>
       <use style="fill:#262626;stroke:#262626;stroke-width:1.25;" x="59.339063" xlink:href="#md6f5307551" y="290.555522"/>
      </g>
     </g>
     <g id="text_9">
      <!-- 0.005 -->
      <defs>
       <path d="M 4.15625 18.75 
L 13.375 19.53125 
Q 14.40625 12.796875 18.140625 9.390625 
Q 21.875 6 27.15625 6 
Q 33.5 6 37.890625 10.78125 
Q 42.28125 15.578125 42.28125 23.484375 
Q 42.28125 31 38.0625 35.34375 
Q 33.84375 39.703125 27 39.703125 
Q 22.75 39.703125 19.328125 37.765625 
Q 15.921875 35.84375 13.96875 32.765625 
L 5.71875 33.84375 
L 12.640625 70.609375 
L 48.25 70.609375 
L 48.25 62.203125 
L 19.671875 62.203125 
L 15.828125 42.96875 
Q 22.265625 47.46875 29.34375 47.46875 
Q 38.71875 47.46875 45.15625 40.96875 
Q 51.609375 34.46875 51.609375 24.265625 
Q 51.609375 14.546875 45.953125 7.46875 
Q 39.0625 -1.21875 27.15625 -1.21875 
Q 17.390625 -1.21875 11.203125 4.25 
Q 5.03125 9.71875 4.15625 18.75 
z
" id="ArialMT-35"/>
      </defs>
      <g style="fill:#262626;" transform="translate(22.315 294.492319)scale(0.11 -0.11)">
       <use xlink:href="#ArialMT-30"/>
       <use x="55.615234" xlink:href="#ArialMT-2e"/>
       <use x="83.398438" xlink:href="#ArialMT-30"/>
       <use x="139.013672" xlink:href="#ArialMT-30"/>
       <use x="194.628906" xlink:href="#ArialMT-35"/>
      </g>
     </g>
    </g>
    <g id="ytick_3">
     <g id="line2d_9">
      <g>
       <use style="fill:#262626;stroke:#262626;stroke-width:1.25;" x="59.339063" xlink:href="#md6f5307551" y="241.751044"/>
      </g>
     </g>
     <g id="text_10">
      <!-- 0.010 -->
      <g style="fill:#262626;" transform="translate(22.315 245.687841)scale(0.11 -0.11)">
       <use xlink:href="#ArialMT-30"/>
       <use x="55.615234" xlink:href="#ArialMT-2e"/>
       <use x="83.398438" xlink:href="#ArialMT-30"/>
       <use x="139.013672" xlink:href="#ArialMT-31"/>
       <use x="194.628906" xlink:href="#ArialMT-30"/>
      </g>
     </g>
    </g>
    <g id="ytick_4">
     <g id="line2d_10">
      <g>
       <use style="fill:#262626;stroke:#262626;stroke-width:1.25;" x="59.339063" xlink:href="#md6f5307551" y="192.946567"/>
      </g>
     </g>
     <g id="text_11">
      <!-- 0.015 -->
      <g style="fill:#262626;" transform="translate(22.315 196.883364)scale(0.11 -0.11)">
       <use xlink:href="#ArialMT-30"/>
       <use x="55.615234" xlink:href="#ArialMT-2e"/>
       <use x="83.398438" xlink:href="#ArialMT-30"/>
       <use x="139.013672" xlink:href="#ArialMT-31"/>
       <use x="194.628906" xlink:href="#ArialMT-35"/>
      </g>
     </g>
    </g>
    <g id="ytick_5">
     <g id="line2d_11">
      <g>
       <use style="fill:#262626;stroke:#262626;stroke-width:1.25;" x="59.339063" xlink:href="#md6f5307551" y="144.142089"/>
      </g>
     </g>
     <g id="text_12">
      <!-- 0.020 -->
      <g style="fill:#262626;" transform="translate(22.315 148.078886)scale(0.11 -0.11)">
       <use xlink:href="#ArialMT-30"/>
       <use x="55.615234" xlink:href="#ArialMT-2e"/>
       <use x="83.398438" xlink:href="#ArialMT-30"/>
       <use x="139.013672" xlink:href="#ArialMT-32"/>
       <use x="194.628906" xlink:href="#ArialMT-30"/>
      </g>
     </g>
    </g>
    <g id="ytick_6">
     <g id="line2d_12">
      <g>
       <use style="fill:#262626;stroke:#262626;stroke-width:1.25;" x="59.339063" xlink:href="#md6f5307551" y="95.337611"/>
      </g>
     </g>
     <g id="text_13">
      <!-- 0.025 -->
      <g style="fill:#262626;" transform="translate(22.315 99.274408)scale(0.11 -0.11)">
       <use xlink:href="#ArialMT-30"/>
       <use x="55.615234" xlink:href="#ArialMT-2e"/>
       <use x="83.398438" xlink:href="#ArialMT-30"/>
       <use x="139.013672" xlink:href="#ArialMT-32"/>
       <use x="194.628906" xlink:href="#ArialMT-35"/>
      </g>
     </g>
    </g>
    <g id="ytick_7">
     <g id="line2d_13">
      <g>
       <use style="fill:#262626;stroke:#262626;stroke-width:1.25;" x="59.339063" xlink:href="#md6f5307551" y="46.533133"/>
      </g>
     </g>
     <g id="text_14">
      <!-- 0.030 -->
      <defs>
       <path d="M 4.203125 18.890625 
L 12.984375 20.0625 
Q 14.5 12.59375 18.140625 9.296875 
Q 21.78125 6 27 6 
Q 33.203125 6 37.46875 10.296875 
Q 41.75 14.59375 41.75 20.953125 
Q 41.75 27 37.796875 30.921875 
Q 33.84375 34.859375 27.734375 34.859375 
Q 25.25 34.859375 21.53125 33.890625 
L 22.515625 41.609375 
Q 23.390625 41.5 23.921875 41.5 
Q 29.546875 41.5 34.03125 44.421875 
Q 38.53125 47.359375 38.53125 53.46875 
Q 38.53125 58.296875 35.25 61.46875 
Q 31.984375 64.65625 26.8125 64.65625 
Q 21.6875 64.65625 18.265625 61.421875 
Q 14.84375 58.203125 13.875 51.765625 
L 5.078125 53.328125 
Q 6.6875 62.15625 12.390625 67.015625 
Q 18.109375 71.875 26.609375 71.875 
Q 32.46875 71.875 37.390625 69.359375 
Q 42.328125 66.84375 44.9375 62.5 
Q 47.5625 58.15625 47.5625 53.265625 
Q 47.5625 48.640625 45.0625 44.828125 
Q 42.578125 41.015625 37.703125 38.765625 
Q 44.046875 37.3125 47.5625 32.6875 
Q 51.078125 28.078125 51.078125 21.140625 
Q 51.078125 11.765625 44.234375 5.25 
Q 37.40625 -1.265625 26.953125 -1.265625 
Q 17.53125 -1.265625 11.296875 4.34375 
Q 5.078125 9.96875 4.203125 18.890625 
z
" id="ArialMT-33"/>
      </defs>
      <g style="fill:#262626;" transform="translate(22.315 50.46993)scale(0.11 -0.11)">
       <use xlink:href="#ArialMT-30"/>
       <use x="55.615234" xlink:href="#ArialMT-2e"/>
       <use x="83.398438" xlink:href="#ArialMT-30"/>
       <use x="139.013672" xlink:href="#ArialMT-33"/>
       <use x="194.628906" xlink:href="#ArialMT-30"/>
      </g>
     </g>
    </g>
    <g id="text_15">
     <!-- Normalized Frequency -->
     <defs>
      <path d="M 7.625 0 
L 7.625 71.578125 
L 17.328125 71.578125 
L 54.9375 15.375 
L 54.9375 71.578125 
L 64.015625 71.578125 
L 64.015625 0 
L 54.296875 0 
L 16.703125 56.25 
L 16.703125 0 
z
" id="ArialMT-4e"/>
      <path d="M 3.328125 25.921875 
Q 3.328125 40.328125 11.328125 47.265625 
Q 18.015625 53.03125 27.640625 53.03125 
Q 38.328125 53.03125 45.109375 46.015625 
Q 51.90625 39.015625 51.90625 26.65625 
Q 51.90625 16.65625 48.90625 10.90625 
Q 45.90625 5.171875 40.15625 2 
Q 34.421875 -1.171875 27.640625 -1.171875 
Q 16.75 -1.171875 10.03125 5.8125 
Q 3.328125 12.796875 3.328125 25.921875 
z
M 12.359375 25.921875 
Q 12.359375 15.96875 16.703125 11.015625 
Q 21.046875 6.0625 27.640625 6.0625 
Q 34.1875 6.0625 38.53125 11.03125 
Q 42.875 16.015625 42.875 26.21875 
Q 42.875 35.84375 38.5 40.796875 
Q 34.125 45.75 27.640625 45.75 
Q 21.046875 45.75 16.703125 40.8125 
Q 12.359375 35.890625 12.359375 25.921875 
z
" id="ArialMT-6f"/>
      <path d="M 6.5 0 
L 6.5 51.859375 
L 14.40625 51.859375 
L 14.40625 44 
Q 17.4375 49.515625 20 51.265625 
Q 22.5625 53.03125 25.640625 53.03125 
Q 30.078125 53.03125 34.671875 50.203125 
L 31.640625 42.046875 
Q 28.421875 43.953125 25.203125 43.953125 
Q 22.3125 43.953125 20.015625 42.21875 
Q 17.71875 40.484375 16.75 37.40625 
Q 15.28125 32.71875 15.28125 27.15625 
L 15.28125 0 
z
" id="ArialMT-72"/>
      <path d="M 6.59375 0 
L 6.59375 51.859375 
L 14.453125 51.859375 
L 14.453125 44.578125 
Q 16.890625 48.390625 20.9375 50.703125 
Q 25 53.03125 30.171875 53.03125 
Q 35.9375 53.03125 39.625 50.640625 
Q 43.3125 48.25 44.828125 43.953125 
Q 50.984375 53.03125 60.84375 53.03125 
Q 68.5625 53.03125 72.703125 48.75 
Q 76.859375 44.484375 76.859375 35.59375 
L 76.859375 0 
L 68.109375 0 
L 68.109375 32.671875 
Q 68.109375 37.9375 67.25 40.25 
Q 66.40625 42.578125 64.15625 43.984375 
Q 61.921875 45.40625 58.890625 45.40625 
Q 53.421875 45.40625 49.796875 41.765625 
Q 46.1875 38.140625 46.1875 30.125 
L 46.1875 0 
L 37.40625 0 
L 37.40625 33.6875 
Q 37.40625 39.546875 35.25 42.46875 
Q 33.109375 45.40625 28.21875 45.40625 
Q 24.515625 45.40625 21.359375 43.453125 
Q 18.21875 41.5 16.796875 37.734375 
Q 15.375 33.984375 15.375 26.90625 
L 15.375 0 
z
" id="ArialMT-6d"/>
      <path d="M 40.4375 6.390625 
Q 35.546875 2.25 31.03125 0.53125 
Q 26.515625 -1.171875 21.34375 -1.171875 
Q 12.796875 -1.171875 8.203125 3 
Q 3.609375 7.171875 3.609375 13.671875 
Q 3.609375 17.484375 5.34375 20.625 
Q 7.078125 23.78125 9.890625 25.6875 
Q 12.703125 27.59375 16.21875 28.5625 
Q 18.796875 29.25 24.03125 29.890625 
Q 34.671875 31.15625 39.703125 32.90625 
Q 39.75 34.71875 39.75 35.203125 
Q 39.75 40.578125 37.25 42.78125 
Q 33.890625 45.75 27.25 45.75 
Q 21.046875 45.75 18.09375 43.578125 
Q 15.140625 41.40625 13.71875 35.890625 
L 5.125 37.0625 
Q 6.296875 42.578125 8.984375 45.96875 
Q 11.671875 49.359375 16.75 51.1875 
Q 21.828125 53.03125 28.515625 53.03125 
Q 35.15625 53.03125 39.296875 51.46875 
Q 43.453125 49.90625 45.40625 47.53125 
Q 47.359375 45.171875 48.140625 41.546875 
Q 48.578125 39.3125 48.578125 33.453125 
L 48.578125 21.734375 
Q 48.578125 9.46875 49.140625 6.21875 
Q 49.703125 2.984375 51.375 0 
L 42.1875 0 
Q 40.828125 2.734375 40.4375 6.390625 
z
M 39.703125 26.03125 
Q 34.90625 24.078125 25.34375 22.703125 
Q 19.921875 21.921875 17.671875 20.9375 
Q 15.4375 19.96875 14.203125 18.09375 
Q 12.984375 16.21875 12.984375 13.921875 
Q 12.984375 10.40625 15.640625 8.0625 
Q 18.3125 5.71875 23.4375 5.71875 
Q 28.515625 5.71875 32.46875 7.9375 
Q 36.421875 10.15625 38.28125 14.015625 
Q 39.703125 17 39.703125 22.796875 
z
" id="ArialMT-61"/>
      <path d="M 6.390625 0 
L 6.390625 71.578125 
L 15.1875 71.578125 
L 15.1875 0 
z
" id="ArialMT-6c"/>
      <path d="M 6.640625 61.46875 
L 6.640625 71.578125 
L 15.4375 71.578125 
L 15.4375 61.46875 
z
M 6.640625 0 
L 6.640625 51.859375 
L 15.4375 51.859375 
L 15.4375 0 
z
" id="ArialMT-69"/>
      <path d="M 1.953125 0 
L 1.953125 7.125 
L 34.96875 45.015625 
Q 29.34375 44.734375 25.046875 44.734375 
L 3.90625 44.734375 
L 3.90625 51.859375 
L 46.296875 51.859375 
L 46.296875 46.046875 
L 18.21875 13.140625 
L 12.796875 7.125 
Q 18.703125 7.5625 23.875 7.5625 
L 47.859375 7.5625 
L 47.859375 0 
z
" id="ArialMT-7a"/>
      <path d="M 40.234375 0 
L 40.234375 6.546875 
Q 35.296875 -1.171875 25.734375 -1.171875 
Q 19.53125 -1.171875 14.328125 2.25 
Q 9.125 5.671875 6.265625 11.796875 
Q 3.421875 17.921875 3.421875 25.875 
Q 3.421875 33.640625 6 39.96875 
Q 8.59375 46.296875 13.765625 49.65625 
Q 18.953125 53.03125 25.34375 53.03125 
Q 30.03125 53.03125 33.6875 51.046875 
Q 37.359375 49.078125 39.65625 45.90625 
L 39.65625 71.578125 
L 48.390625 71.578125 
L 48.390625 0 
z
M 12.453125 25.875 
Q 12.453125 15.921875 16.640625 10.984375 
Q 20.84375 6.0625 26.5625 6.0625 
Q 32.328125 6.0625 36.34375 10.765625 
Q 40.375 15.484375 40.375 25.140625 
Q 40.375 35.796875 36.265625 40.765625 
Q 32.171875 45.75 26.171875 45.75 
Q 20.3125 45.75 16.375 40.96875 
Q 12.453125 36.1875 12.453125 25.875 
z
" id="ArialMT-64"/>
      <path id="ArialMT-20"/>
      <path d="M 8.203125 0 
L 8.203125 71.578125 
L 56.5 71.578125 
L 56.5 63.140625 
L 17.671875 63.140625 
L 17.671875 40.96875 
L 51.265625 40.96875 
L 51.265625 32.515625 
L 17.671875 32.515625 
L 17.671875 0 
z
" id="ArialMT-46"/>
      <path d="M 39.65625 -19.875 
L 39.65625 5.515625 
Q 37.59375 2.640625 33.90625 0.734375 
Q 30.21875 -1.171875 26.078125 -1.171875 
Q 16.84375 -1.171875 10.171875 6.203125 
Q 3.515625 13.578125 3.515625 26.421875 
Q 3.515625 34.234375 6.21875 40.421875 
Q 8.9375 46.625 14.078125 49.828125 
Q 19.234375 53.03125 25.390625 53.03125 
Q 35.015625 53.03125 40.53125 44.921875 
L 40.53125 51.859375 
L 48.4375 51.859375 
L 48.4375 -19.875 
z
M 12.546875 26.078125 
Q 12.546875 16.0625 16.75 11.0625 
Q 20.953125 6.0625 26.8125 6.0625 
Q 32.421875 6.0625 36.46875 10.8125 
Q 40.53125 15.578125 40.53125 25.296875 
Q 40.53125 35.640625 36.25 40.859375 
Q 31.984375 46.09375 26.21875 46.09375 
Q 20.515625 46.09375 16.53125 41.234375 
Q 12.546875 36.375 12.546875 26.078125 
z
" id="ArialMT-71"/>
      <path d="M 40.578125 0 
L 40.578125 7.625 
Q 34.515625 -1.171875 24.125 -1.171875 
Q 19.53125 -1.171875 15.546875 0.578125 
Q 11.578125 2.34375 9.640625 5 
Q 7.71875 7.671875 6.9375 11.53125 
Q 6.390625 14.109375 6.390625 19.734375 
L 6.390625 51.859375 
L 15.1875 51.859375 
L 15.1875 23.09375 
Q 15.1875 16.21875 15.71875 13.8125 
Q 16.546875 10.359375 19.234375 8.375 
Q 21.921875 6.390625 25.875 6.390625 
Q 29.828125 6.390625 33.296875 8.421875 
Q 36.765625 10.453125 38.203125 13.9375 
Q 39.65625 17.4375 39.65625 24.078125 
L 39.65625 51.859375 
L 48.4375 51.859375 
L 48.4375 0 
z
" id="ArialMT-75"/>
      <path d="M 6.59375 0 
L 6.59375 51.859375 
L 14.5 51.859375 
L 14.5 44.484375 
Q 20.21875 53.03125 31 53.03125 
Q 35.6875 53.03125 39.625 51.34375 
Q 43.5625 49.65625 45.515625 46.921875 
Q 47.46875 44.1875 48.25 40.4375 
Q 48.734375 37.984375 48.734375 31.890625 
L 48.734375 0 
L 39.9375 0 
L 39.9375 31.546875 
Q 39.9375 36.921875 38.90625 39.578125 
Q 37.890625 42.234375 35.28125 43.8125 
Q 32.671875 45.40625 29.15625 45.40625 
Q 23.53125 45.40625 19.453125 41.84375 
Q 15.375 38.28125 15.375 28.328125 
L 15.375 0 
z
" id="ArialMT-6e"/>
      <path d="M 40.4375 19 
L 49.078125 17.875 
Q 47.65625 8.9375 41.8125 3.875 
Q 35.984375 -1.171875 27.484375 -1.171875 
Q 16.84375 -1.171875 10.375 5.78125 
Q 3.90625 12.75 3.90625 25.734375 
Q 3.90625 34.125 6.6875 40.421875 
Q 9.46875 46.734375 15.15625 49.875 
Q 20.84375 53.03125 27.546875 53.03125 
Q 35.984375 53.03125 41.359375 48.75 
Q 46.734375 44.484375 48.25 36.625 
L 39.703125 35.296875 
Q 38.484375 40.53125 35.375 43.15625 
Q 32.28125 45.796875 27.875 45.796875 
Q 21.234375 45.796875 17.078125 41.03125 
Q 12.9375 36.28125 12.9375 25.984375 
Q 12.9375 15.53125 16.9375 10.796875 
Q 20.953125 6.0625 27.390625 6.0625 
Q 32.5625 6.0625 36.03125 9.234375 
Q 39.5 12.40625 40.4375 19 
z
" id="ArialMT-63"/>
      <path d="M 6.203125 -19.96875 
L 5.21875 -11.71875 
Q 8.109375 -12.5 10.25 -12.5 
Q 13.1875 -12.5 14.9375 -11.515625 
Q 16.703125 -10.546875 17.828125 -8.796875 
Q 18.65625 -7.46875 20.515625 -2.25 
Q 20.75 -1.515625 21.296875 -0.09375 
L 1.609375 51.859375 
L 11.078125 51.859375 
L 21.875 21.828125 
Q 23.96875 16.109375 25.640625 9.8125 
Q 27.15625 15.875 29.25 21.625 
L 40.328125 51.859375 
L 49.125 51.859375 
L 29.390625 -0.875 
Q 26.21875 -9.421875 24.46875 -12.640625 
Q 22.125 -17 19.09375 -19.015625 
Q 16.0625 -21.046875 11.859375 -21.046875 
Q 9.328125 -21.046875 6.203125 -19.96875 
z
" id="ArialMT-79"/>
     </defs>
     <g style="fill:#262626;" transform="translate(15.789375 236.633437)rotate(-90)scale(0.12 -0.12)">
      <use xlink:href="#ArialMT-4e"/>
      <use x="72.216797" xlink:href="#ArialMT-6f"/>
      <use x="127.832031" xlink:href="#ArialMT-72"/>
      <use x="161.132812" xlink:href="#ArialMT-6d"/>
      <use x="244.433594" xlink:href="#ArialMT-61"/>
      <use x="300.048828" xlink:href="#ArialMT-6c"/>
      <use x="322.265625" xlink:href="#ArialMT-69"/>
      <use x="344.482422" xlink:href="#ArialMT-7a"/>
      <use x="394.482422" xlink:href="#ArialMT-65"/>
      <use x="450.097656" xlink:href="#ArialMT-64"/>
      <use x="505.712891" xlink:href="#ArialMT-20"/>
      <use x="533.496094" xlink:href="#ArialMT-46"/>
      <use x="594.580078" xlink:href="#ArialMT-72"/>
      <use x="627.880859" xlink:href="#ArialMT-65"/>
      <use x="683.496094" xlink:href="#ArialMT-71"/>
      <use x="739.111328" xlink:href="#ArialMT-75"/>
      <use x="794.726562" xlink:href="#ArialMT-65"/>
      <use x="850.341797" xlink:href="#ArialMT-6e"/>
      <use x="905.957031" xlink:href="#ArialMT-63"/>
      <use x="955.957031" xlink:href="#ArialMT-79"/>
     </g>
    </g>
   </g>
   <g id="patch_3">
    <path clip-path="url(#p4b58d4dd0c)" d="M 89.227786 339.36 
L 96.960237 339.36 
L 96.960237 339.346574 
L 89.227786 339.346574 
z
" style="fill:#377eb8;opacity:0.35;stroke:#ffffff;stroke-linejoin:miter;"/>
   </g>
   <g id="patch_4">
    <path clip-path="url(#p4b58d4dd0c)" d="M 96.960237 339.36 
L 104.692688 339.36 
L 104.692688 339.334728 
L 96.960237 339.334728 
z
" style="fill:#377eb8;opacity:0.35;stroke:#ffffff;stroke-linejoin:miter;"/>
   </g>
   <g id="patch_5">
    <path clip-path="url(#p4b58d4dd0c)" d="M 104.692688 339.36 
L 112.425139 339.36 
L 112.425139 339.34381 
L 104.692688 339.34381 
z
" style="fill:#377eb8;opacity:0.35;stroke:#ffffff;stroke-linejoin:miter;"/>
   </g>
   <g id="patch_6">
    <path clip-path="url(#p4b58d4dd0c)" d="M 112.425139 339.36 
L 120.15759 339.36 
L 120.15759 339.341046 
L 112.425139 339.341046 
z
" style="fill:#377eb8;opacity:0.35;stroke:#ffffff;stroke-linejoin:miter;"/>
   </g>
   <g id="patch_7">
    <path clip-path="url(#p4b58d4dd0c)" d="M 120.15759 339.36 
L 127.890041 339.36 
L 127.890041 339.327226 
L 120.15759 339.327226 
z
" style="fill:#377eb8;opacity:0.35;stroke:#ffffff;stroke-linejoin:miter;"/>
   </g>
   <g id="patch_8">
    <path clip-path="url(#p4b58d4dd0c)" d="M 127.890041 339.36 
L 135.622492 339.36 
L 135.622492 339.330385 
L 127.890041 339.330385 
z
" style="fill:#377eb8;opacity:0.35;stroke:#ffffff;stroke-linejoin:miter;"/>
   </g>
   <g id="patch_9">
    <path clip-path="url(#p4b58d4dd0c)" d="M 135.622492 339.36 
L 143.354944 339.36 
L 143.354944 339.331569 
L 135.622492 339.331569 
z
" style="fill:#377eb8;opacity:0.35;stroke:#ffffff;stroke-linejoin:miter;"/>
   </g>
   <g id="patch_10">
    <path clip-path="url(#p4b58d4dd0c)" d="M 143.354944 339.36 
L 151.087395 339.36 
L 151.087395 339.248646 
L 143.354944 339.248646 
z
" style="fill:#377eb8;opacity:0.35;stroke:#ffffff;stroke-linejoin:miter;"/>
   </g>
   <g id="patch_11">
    <path clip-path="url(#p4b58d4dd0c)" d="M 151.087395 339.36 
L 158.819846 339.36 
L 158.819846 338.730572 
L 151.087395 338.730572 
z
" style="fill:#377eb8;opacity:0.35;stroke:#ffffff;stroke-linejoin:miter;"/>
   </g>
   <g id="patch_12">
    <path clip-path="url(#p4b58d4dd0c)" d="M 158.819846 339.36 
L 166.552297 339.36 
L 166.552297 335.36191 
L 158.819846 335.36191 
z
" style="fill:#377eb8;opacity:0.35;stroke:#ffffff;stroke-linejoin:miter;"/>
   </g>
   <g id="patch_13">
    <path clip-path="url(#p4b58d4dd0c)" d="M 166.552297 339.36 
L 174.284748 339.36 
L 174.284748 327.618053 
L 166.552297 327.618053 
z
" style="fill:#377eb8;opacity:0.35;stroke:#ffffff;stroke-linejoin:miter;"/>
   </g>
   <g id="patch_14">
    <path clip-path="url(#p4b58d4dd0c)" d="M 174.284748 339.36 
L 182.017199 339.36 
L 182.017199 317.697655 
L 174.284748 317.697655 
z
" style="fill:#377eb8;opacity:0.35;stroke:#ffffff;stroke-linejoin:miter;"/>
   </g>
   <g id="patch_15">
    <path clip-path="url(#p4b58d4dd0c)" d="M 182.017199 339.36 
L 189.74965 339.36 
L 189.74965 302.613107 
L 182.017199 302.613107 
z
" style="fill:#377eb8;opacity:0.35;stroke:#ffffff;stroke-linejoin:miter;"/>
   </g>
   <g id="patch_16">
    <path clip-path="url(#p4b58d4dd0c)" d="M 189.74965 339.36 
L 197.482101 339.36 
L 197.482101 285.162085 
L 189.74965 285.162085 
z
" style="fill:#377eb8;opacity:0.35;stroke:#ffffff;stroke-linejoin:miter;"/>
   </g>
   <g id="patch_17">
    <path clip-path="url(#p4b58d4dd0c)" d="M 197.482101 339.36 
L 205.214552 339.36 
L 205.214552 263.120267 
L 197.482101 263.120267 
z
" style="fill:#377eb8;opacity:0.35;stroke:#ffffff;stroke-linejoin:miter;"/>
   </g>
   <g id="patch_18">
    <path clip-path="url(#p4b58d4dd0c)" d="M 205.214552 339.36 
L 212.947003 339.36 
L 212.947003 246.445565 
L 205.214552 246.445565 
z
" style="fill:#377eb8;opacity:0.35;stroke:#ffffff;stroke-linejoin:miter;"/>
   </g>
   <g id="patch_19">
    <path clip-path="url(#p4b58d4dd0c)" d="M 212.947003 339.36 
L 220.679454 339.36 
L 220.679454 230.092289 
L 212.947003 230.092289 
z
" style="fill:#377eb8;opacity:0.35;stroke:#ffffff;stroke-linejoin:miter;"/>
   </g>
   <g id="patch_20">
    <path clip-path="url(#p4b58d4dd0c)" d="M 220.679454 339.36 
L 228.411905 339.36 
L 228.411905 212.013418 
L 220.679454 212.013418 
z
" style="fill:#377eb8;opacity:0.35;stroke:#ffffff;stroke-linejoin:miter;"/>
   </g>
   <g id="patch_21">
    <path clip-path="url(#p4b58d4dd0c)" d="M 228.411905 339.36 
L 236.144356 339.36 
L 236.144356 189.401404 
L 228.411905 189.401404 
z
" style="fill:#377eb8;opacity:0.35;stroke:#ffffff;stroke-linejoin:miter;"/>
   </g>
   <g id="patch_22">
    <path clip-path="url(#p4b58d4dd0c)" d="M 236.144356 339.36 
L 243.876807 339.36 
L 243.876807 168.209353 
L 236.144356 168.209353 
z
" style="fill:#377eb8;opacity:0.35;stroke:#ffffff;stroke-linejoin:miter;"/>
   </g>
   <g id="patch_23">
    <path clip-path="url(#p4b58d4dd0c)" d="M 243.876807 339.36 
L 251.609258 339.36 
L 251.609258 165.633201 
L 243.876807 165.633201 
z
" style="fill:#377eb8;opacity:0.35;stroke:#ffffff;stroke-linejoin:miter;"/>
   </g>
   <g id="patch_24">
    <path clip-path="url(#p4b58d4dd0c)" d="M 251.609258 339.36 
L 259.341709 339.36 
L 259.341709 154.948329 
L 251.609258 154.948329 
z
" style="fill:#377eb8;opacity:0.35;stroke:#ffffff;stroke-linejoin:miter;"/>
   </g>
   <g id="patch_25">
    <path clip-path="url(#p4b58d4dd0c)" d="M 259.341709 339.36 
L 267.07416 339.36 
L 267.07416 134.912862 
L 259.341709 134.912862 
z
" style="fill:#377eb8;opacity:0.35;stroke:#ffffff;stroke-linejoin:miter;"/>
   </g>
   <g id="patch_26">
    <path clip-path="url(#p4b58d4dd0c)" d="M 267.07416 339.36 
L 274.806611 339.36 
L 274.806611 108.281039 
L 267.07416 108.281039 
z
" style="fill:#377eb8;opacity:0.35;stroke:#ffffff;stroke-linejoin:miter;"/>
   </g>
   <g id="patch_27">
    <path clip-path="url(#p4b58d4dd0c)" d="M 274.806611 339.36 
L 282.539062 339.36 
L 282.539062 86.496283 
L 274.806611 86.496283 
z
" style="fill:#377eb8;opacity:0.35;stroke:#ffffff;stroke-linejoin:miter;"/>
   </g>
   <g id="patch_28">
    <path clip-path="url(#p4b58d4dd0c)" d="M 282.539062 339.36 
L 290.271514 339.36 
L 290.271514 79.087674 
L 282.539062 79.087674 
z
" style="fill:#377eb8;opacity:0.35;stroke:#ffffff;stroke-linejoin:miter;"/>
   </g>
   <g id="patch_29">
    <path clip-path="url(#p4b58d4dd0c)" d="M 290.271514 339.36 
L 298.003965 339.36 
L 298.003965 70.15209 
L 290.271514 70.15209 
z
" style="fill:#377eb8;opacity:0.35;stroke:#ffffff;stroke-linejoin:miter;"/>
   </g>
   <g id="patch_30">
    <path clip-path="url(#p4b58d4dd0c)" d="M 298.003965 339.36 
L 305.736416 339.36 
L 305.736416 67.057469 
L 298.003965 67.057469 
z
" style="fill:#377eb8;opacity:0.35;stroke:#ffffff;stroke-linejoin:miter;"/>
   </g>
   <g id="patch_31">
    <path clip-path="url(#p4b58d4dd0c)" d="M 305.736416 339.36 
L 313.468867 339.36 
L 313.468867 82.668383 
L 305.736416 82.668383 
z
" style="fill:#377eb8;opacity:0.35;stroke:#ffffff;stroke-linejoin:miter;"/>
   </g>
   <g id="patch_32">
    <path clip-path="url(#p4b58d4dd0c)" d="M 313.468867 339.36 
L 321.201318 339.36 
L 321.201318 98.701417 
L 313.468867 98.701417 
z
" style="fill:#377eb8;opacity:0.35;stroke:#ffffff;stroke-linejoin:miter;"/>
   </g>
   <g id="patch_33">
    <path clip-path="url(#p4b58d4dd0c)" d="M 321.201318 339.36 
L 328.933769 339.36 
L 328.933769 120.219633 
L 321.201318 120.219633 
z
" style="fill:#377eb8;opacity:0.35;stroke:#ffffff;stroke-linejoin:miter;"/>
   </g>
   <g id="patch_34">
    <path clip-path="url(#p4b58d4dd0c)" d="M 328.933769 339.36 
L 336.66622 339.36 
L 336.66622 145.07966 
L 328.933769 145.07966 
z
" style="fill:#377eb8;opacity:0.35;stroke:#ffffff;stroke-linejoin:miter;"/>
   </g>
   <g id="patch_35">
    <path clip-path="url(#p4b58d4dd0c)" d="M 336.66622 339.36 
L 344.398671 339.36 
L 344.398671 162.684683 
L 336.66622 162.684683 
z
" style="fill:#377eb8;opacity:0.35;stroke:#ffffff;stroke-linejoin:miter;"/>
   </g>
   <g id="patch_36">
    <path clip-path="url(#p4b58d4dd0c)" d="M 344.398671 339.36 
L 352.131122 339.36 
L 352.131122 178.126591 
L 344.398671 178.126591 
z
" style="fill:#377eb8;opacity:0.35;stroke:#ffffff;stroke-linejoin:miter;"/>
   </g>
   <g id="patch_37">
    <path clip-path="url(#p4b58d4dd0c)" d="M 352.131122 339.36 
L 359.863573 339.36 
L 359.863573 184.138535 
L 352.131122 184.138535 
z
" style="fill:#377eb8;opacity:0.35;stroke:#ffffff;stroke-linejoin:miter;"/>
   </g>
   <g id="patch_38">
    <path clip-path="url(#p4b58d4dd0c)" d="M 359.863573 339.36 
L 367.596024 339.36 
L 367.596024 187.378469 
L 359.863573 187.378469 
z
" style="fill:#377eb8;opacity:0.35;stroke:#ffffff;stroke-linejoin:miter;"/>
   </g>
   <g id="patch_39">
    <path clip-path="url(#p4b58d4dd0c)" d="M 367.596024 339.36 
L 375.328475 339.36 
L 375.328475 211.709366 
L 367.596024 211.709366 
z
" style="fill:#377eb8;opacity:0.35;stroke:#ffffff;stroke-linejoin:miter;"/>
   </g>
   <g id="patch_40">
    <path clip-path="url(#p4b58d4dd0c)" d="M 375.328475 339.36 
L 383.060926 339.36 
L 383.060926 230.320526 
L 375.328475 230.320526 
z
" style="fill:#377eb8;opacity:0.35;stroke:#ffffff;stroke-linejoin:miter;"/>
   </g>
   <g id="patch_41">
    <path clip-path="url(#p4b58d4dd0c)" d="M 383.060926 339.36 
L 390.793377 339.36 
L 390.793377 264.709236 
L 383.060926 264.709236 
z
" style="fill:#377eb8;opacity:0.35;stroke:#ffffff;stroke-linejoin:miter;"/>
   </g>
   <g id="patch_42">
    <path clip-path="url(#p4b58d4dd0c)" d="M 390.793377 339.36 
L 398.525828 339.36 
L 398.525828 279.317173 
L 390.793377 279.317173 
z
" style="fill:#377eb8;opacity:0.35;stroke:#ffffff;stroke-linejoin:miter;"/>
   </g>
   <g id="patch_43">
    <path clip-path="url(#p4b58d4dd0c)" d="M 398.525828 339.36 
L 406.258279 339.36 
L 406.258279 287.864596 
L 398.525828 287.864596 
z
" style="fill:#377eb8;opacity:0.35;stroke:#ffffff;stroke-linejoin:miter;"/>
   </g>
   <g id="patch_44">
    <path clip-path="url(#p4b58d4dd0c)" d="M 406.258279 339.36 
L 413.99073 339.36 
L 413.99073 295.824054 
L 406.258279 295.824054 
z
" style="fill:#377eb8;opacity:0.35;stroke:#ffffff;stroke-linejoin:miter;"/>
   </g>
   <g id="patch_45">
    <path clip-path="url(#p4b58d4dd0c)" d="M 413.99073 339.36 
L 421.723181 339.36 
L 421.723181 306.006647 
L 413.99073 306.006647 
z
" style="fill:#377eb8;opacity:0.35;stroke:#ffffff;stroke-linejoin:miter;"/>
   </g>
   <g id="patch_46">
    <path clip-path="url(#p4b58d4dd0c)" d="M 421.723181 339.36 
L 429.455633 339.36 
L 429.455633 299.951268 
L 421.723181 299.951268 
z
" style="fill:#377eb8;opacity:0.35;stroke:#ffffff;stroke-linejoin:miter;"/>
   </g>
   <g id="patch_47">
    <path clip-path="url(#p4b58d4dd0c)" d="M 429.455633 339.36 
L 437.188084 339.36 
L 437.188084 316.292302 
L 429.455633 316.292302 
z
" style="fill:#377eb8;opacity:0.35;stroke:#ffffff;stroke-linejoin:miter;"/>
   </g>
   <g id="patch_48">
    <path clip-path="url(#p4b58d4dd0c)" d="M 437.188084 339.36 
L 444.920535 339.36 
L 444.920535 321.303637 
L 437.188084 321.303637 
z
" style="fill:#377eb8;opacity:0.35;stroke:#ffffff;stroke-linejoin:miter;"/>
   </g>
   <g id="patch_49">
    <path clip-path="url(#p4b58d4dd0c)" d="M 444.920535 339.36 
L 452.652986 339.36 
L 452.652986 325.174183 
L 444.920535 325.174183 
z
" style="fill:#377eb8;opacity:0.35;stroke:#ffffff;stroke-linejoin:miter;"/>
   </g>
   <g id="patch_50">
    <path clip-path="url(#p4b58d4dd0c)" d="M 452.652986 339.36 
L 460.385437 339.36 
L 460.385437 327.735725 
L 452.652986 327.735725 
z
" style="fill:#377eb8;opacity:0.35;stroke:#ffffff;stroke-linejoin:miter;"/>
   </g>
   <g id="patch_51">
    <path clip-path="url(#p4b58d4dd0c)" d="M 460.385437 339.36 
L 468.117888 339.36 
L 468.117888 325.347532 
L 460.385437 325.347532 
z
" style="fill:#377eb8;opacity:0.35;stroke:#ffffff;stroke-linejoin:miter;"/>
   </g>
   <g id="patch_52">
    <path clip-path="url(#p4b58d4dd0c)" d="M 89.227786 339.36 
L 96.960237 339.36 
L 96.960237 339.338464 
L 89.227786 339.338464 
z
" style="fill:#ff7f00;opacity:0.35;stroke:#ffffff;stroke-linejoin:miter;"/>
   </g>
   <g id="patch_53">
    <path clip-path="url(#p4b58d4dd0c)" d="M 96.960237 339.36 
L 104.692688 339.36 
L 104.692688 339.273858 
L 96.960237 339.273858 
z
" style="fill:#ff7f00;opacity:0.35;stroke:#ffffff;stroke-linejoin:miter;"/>
   </g>
   <g id="patch_54">
    <path clip-path="url(#p4b58d4dd0c)" d="M 104.692688 339.36 
L 112.425139 339.36 
L 112.425139 339.316929 
L 104.692688 339.316929 
z
" style="fill:#ff7f00;opacity:0.35;stroke:#ffffff;stroke-linejoin:miter;"/>
   </g>
   <g id="patch_55">
    <path clip-path="url(#p4b58d4dd0c)" d="M 112.425139 339.36 
L 120.15759 339.36 
L 120.15759 339.295393 
L 112.425139 339.295393 
z
" style="fill:#ff7f00;opacity:0.35;stroke:#ffffff;stroke-linejoin:miter;"/>
   </g>
   <g id="patch_56">
    <path clip-path="url(#p4b58d4dd0c)" d="M 120.15759 339.36 
L 127.890041 339.36 
L 127.890041 339.252322 
L 120.15759 339.252322 
z
" style="fill:#ff7f00;opacity:0.35;stroke:#ffffff;stroke-linejoin:miter;"/>
   </g>
   <g id="patch_57">
    <path clip-path="url(#p4b58d4dd0c)" d="M 127.890041 339.36 
L 135.622492 339.36 
L 135.622492 339.316929 
L 127.890041 339.316929 
z
" style="fill:#ff7f00;opacity:0.35;stroke:#ffffff;stroke-linejoin:miter;"/>
   </g>
   <g id="patch_58">
    <path clip-path="url(#p4b58d4dd0c)" d="M 135.622492 339.36 
L 143.354944 339.36 
L 143.354944 339.36 
L 135.622492 339.36 
z
" style="fill:#ff7f00;opacity:0.35;stroke:#ffffff;stroke-linejoin:miter;"/>
   </g>
   <g id="patch_59">
    <path clip-path="url(#p4b58d4dd0c)" d="M 143.354944 339.36 
L 151.087395 339.36 
L 151.087395 339.252322 
L 143.354944 339.252322 
z
" style="fill:#ff7f00;opacity:0.35;stroke:#ffffff;stroke-linejoin:miter;"/>
   </g>
   <g id="patch_60">
    <path clip-path="url(#p4b58d4dd0c)" d="M 151.087395 339.36 
L 158.819846 339.36 
L 158.819846 339.295393 
L 151.087395 339.295393 
z
" style="fill:#ff7f00;opacity:0.35;stroke:#ffffff;stroke-linejoin:miter;"/>
   </g>
   <g id="patch_61">
    <path clip-path="url(#p4b58d4dd0c)" d="M 158.819846 339.36 
L 166.552297 339.36 
L 166.552297 339.080038 
L 158.819846 339.080038 
z
" style="fill:#ff7f00;opacity:0.35;stroke:#ffffff;stroke-linejoin:miter;"/>
   </g>
   <g id="patch_62">
    <path clip-path="url(#p4b58d4dd0c)" d="M 166.552297 339.36 
L 174.284748 339.36 
L 174.284748 338.261688 
L 166.552297 338.261688 
z
" style="fill:#ff7f00;opacity:0.35;stroke:#ffffff;stroke-linejoin:miter;"/>
   </g>
   <g id="patch_63">
    <path clip-path="url(#p4b58d4dd0c)" d="M 174.284748 339.36 
L 182.017199 339.36 
L 182.017199 336.711129 
L 174.284748 336.711129 
z
" style="fill:#ff7f00;opacity:0.35;stroke:#ffffff;stroke-linejoin:miter;"/>
   </g>
   <g id="patch_64">
    <path clip-path="url(#p4b58d4dd0c)" d="M 182.017199 339.36 
L 189.74965 339.36 
L 189.74965 334.966751 
L 182.017199 334.966751 
z
" style="fill:#ff7f00;opacity:0.35;stroke:#ffffff;stroke-linejoin:miter;"/>
   </g>
   <g id="patch_65">
    <path clip-path="url(#p4b58d4dd0c)" d="M 189.74965 339.36 
L 197.482101 339.36 
L 197.482101 332.425557 
L 189.74965 332.425557 
z
" style="fill:#ff7f00;opacity:0.35;stroke:#ffffff;stroke-linejoin:miter;"/>
   </g>
   <g id="patch_66">
    <path clip-path="url(#p4b58d4dd0c)" d="M 197.482101 339.36 
L 205.214552 339.36 
L 205.214552 326.09411 
L 197.482101 326.09411 
z
" style="fill:#ff7f00;opacity:0.35;stroke:#ffffff;stroke-linejoin:miter;"/>
   </g>
   <g id="patch_67">
    <path clip-path="url(#p4b58d4dd0c)" d="M 205.214552 339.36 
L 212.947003 339.36 
L 212.947003 320.860975 
L 205.214552 320.860975 
z
" style="fill:#ff7f00;opacity:0.35;stroke:#ffffff;stroke-linejoin:miter;"/>
   </g>
   <g id="patch_68">
    <path clip-path="url(#p4b58d4dd0c)" d="M 212.947003 339.36 
L 220.679454 339.36 
L 220.679454 311.191519 
L 212.947003 311.191519 
z
" style="fill:#ff7f00;opacity:0.35;stroke:#ffffff;stroke-linejoin:miter;"/>
   </g>
   <g id="patch_69">
    <path clip-path="url(#p4b58d4dd0c)" d="M 220.679454 339.36 
L 228.411905 339.36 
L 228.411905 301.306708 
L 220.679454 301.306708 
z
" style="fill:#ff7f00;opacity:0.35;stroke:#ffffff;stroke-linejoin:miter;"/>
   </g>
   <g id="patch_70">
    <path clip-path="url(#p4b58d4dd0c)" d="M 228.411905 339.36 
L 236.144356 339.36 
L 236.144356 281.429408 
L 228.411905 281.429408 
z
" style="fill:#ff7f00;opacity:0.35;stroke:#ffffff;stroke-linejoin:miter;"/>
   </g>
   <g id="patch_71">
    <path clip-path="url(#p4b58d4dd0c)" d="M 236.144356 339.36 
L 243.876807 339.36 
L 243.876807 250.698198 
L 236.144356 250.698198 
z
" style="fill:#ff7f00;opacity:0.35;stroke:#ffffff;stroke-linejoin:miter;"/>
   </g>
   <g id="patch_72">
    <path clip-path="url(#p4b58d4dd0c)" d="M 243.876807 339.36 
L 251.609258 339.36 
L 251.609258 229.937942 
L 243.876807 229.937942 
z
" style="fill:#ff7f00;opacity:0.35;stroke:#ffffff;stroke-linejoin:miter;"/>
   </g>
   <g id="patch_73">
    <path clip-path="url(#p4b58d4dd0c)" d="M 251.609258 339.36 
L 259.341709 339.36 
L 259.341709 202.501669 
L 251.609258 202.501669 
z
" style="fill:#ff7f00;opacity:0.35;stroke:#ffffff;stroke-linejoin:miter;"/>
   </g>
   <g id="patch_74">
    <path clip-path="url(#p4b58d4dd0c)" d="M 259.341709 339.36 
L 267.07416 339.36 
L 267.07416 164.297628 
L 259.341709 164.297628 
z
" style="fill:#ff7f00;opacity:0.35;stroke:#ffffff;stroke-linejoin:miter;"/>
   </g>
   <g id="patch_75">
    <path clip-path="url(#p4b58d4dd0c)" d="M 267.07416 339.36 
L 274.806611 339.36 
L 274.806611 126.438155 
L 267.07416 126.438155 
z
" style="fill:#ff7f00;opacity:0.35;stroke:#ffffff;stroke-linejoin:miter;"/>
   </g>
   <g id="patch_76">
    <path clip-path="url(#p4b58d4dd0c)" d="M 274.806611 339.36 
L 282.539062 339.36 
L 282.539062 97.666679 
L 274.806611 97.666679 
z
" style="fill:#ff7f00;opacity:0.35;stroke:#ffffff;stroke-linejoin:miter;"/>
   </g>
   <g id="patch_77">
    <path clip-path="url(#p4b58d4dd0c)" d="M 282.539062 339.36 
L 290.271514 339.36 
L 290.271514 71.824036 
L 282.539062 71.824036 
z
" style="fill:#ff7f00;opacity:0.35;stroke:#ffffff;stroke-linejoin:miter;"/>
   </g>
   <g id="patch_78">
    <path clip-path="url(#p4b58d4dd0c)" d="M 290.271514 339.36 
L 298.003965 339.36 
L 298.003965 45.163043 
L 290.271514 45.163043 
z
" style="fill:#ff7f00;opacity:0.35;stroke:#ffffff;stroke-linejoin:miter;"/>
   </g>
   <g id="patch_79">
    <path clip-path="url(#p4b58d4dd0c)" d="M 298.003965 339.36 
L 305.736416 339.36 
L 305.736416 28.731429 
L 298.003965 28.731429 
z
" style="fill:#ff7f00;opacity:0.35;stroke:#ffffff;stroke-linejoin:miter;"/>
   </g>
   <g id="patch_80">
    <path clip-path="url(#p4b58d4dd0c)" d="M 305.736416 339.36 
L 313.468867 339.36 
L 313.468867 46.778208 
L 305.736416 46.778208 
z
" style="fill:#ff7f00;opacity:0.35;stroke:#ffffff;stroke-linejoin:miter;"/>
   </g>
   <g id="patch_81">
    <path clip-path="url(#p4b58d4dd0c)" d="M 313.468867 339.36 
L 321.201318 339.36 
L 321.201318 59.677994 
L 313.468867 59.677994 
z
" style="fill:#ff7f00;opacity:0.35;stroke:#ffffff;stroke-linejoin:miter;"/>
   </g>
   <g id="patch_82">
    <path clip-path="url(#p4b58d4dd0c)" d="M 321.201318 339.36 
L 328.933769 339.36 
L 328.933769 60.474809 
L 321.201318 60.474809 
z
" style="fill:#ff7f00;opacity:0.35;stroke:#ffffff;stroke-linejoin:miter;"/>
   </g>
   <g id="patch_83">
    <path clip-path="url(#p4b58d4dd0c)" d="M 328.933769 339.36 
L 336.66622 339.36 
L 336.66622 80.868961 
L 328.933769 80.868961 
z
" style="fill:#ff7f00;opacity:0.35;stroke:#ffffff;stroke-linejoin:miter;"/>
   </g>
   <g id="patch_84">
    <path clip-path="url(#p4b58d4dd0c)" d="M 336.66622 339.36 
L 344.398671 339.36 
L 344.398671 93.553392 
L 336.66622 93.553392 
z
" style="fill:#ff7f00;opacity:0.35;stroke:#ffffff;stroke-linejoin:miter;"/>
   </g>
   <g id="patch_85">
    <path clip-path="url(#p4b58d4dd0c)" d="M 344.398671 339.36 
L 352.131122 339.36 
L 352.131122 113.990616 
L 344.398671 113.990616 
z
" style="fill:#ff7f00;opacity:0.35;stroke:#ffffff;stroke-linejoin:miter;"/>
   </g>
   <g id="patch_86">
    <path clip-path="url(#p4b58d4dd0c)" d="M 352.131122 339.36 
L 359.863573 339.36 
L 359.863573 121.678802 
L 352.131122 121.678802 
z
" style="fill:#ff7f00;opacity:0.35;stroke:#ffffff;stroke-linejoin:miter;"/>
   </g>
   <g id="patch_87">
    <path clip-path="url(#p4b58d4dd0c)" d="M 359.863573 339.36 
L 367.596024 339.36 
L 367.596024 116.165705 
L 359.863573 116.165705 
z
" style="fill:#ff7f00;opacity:0.35;stroke:#ffffff;stroke-linejoin:miter;"/>
   </g>
   <g id="patch_88">
    <path clip-path="url(#p4b58d4dd0c)" d="M 367.596024 339.36 
L 375.328475 339.36 
L 375.328475 160.636587 
L 367.596024 160.636587 
z
" style="fill:#ff7f00;opacity:0.35;stroke:#ffffff;stroke-linejoin:miter;"/>
   </g>
   <g id="patch_89">
    <path clip-path="url(#p4b58d4dd0c)" d="M 375.328475 339.36 
L 383.060926 339.36 
L 383.060926 186.393088 
L 375.328475 186.393088 
z
" style="fill:#ff7f00;opacity:0.35;stroke:#ffffff;stroke-linejoin:miter;"/>
   </g>
   <g id="patch_90">
    <path clip-path="url(#p4b58d4dd0c)" d="M 383.060926 339.36 
L 390.793377 339.36 
L 390.793377 230.713221 
L 383.060926 230.713221 
z
" style="fill:#ff7f00;opacity:0.35;stroke:#ffffff;stroke-linejoin:miter;"/>
   </g>
   <g id="patch_91">
    <path clip-path="url(#p4b58d4dd0c)" d="M 390.793377 339.36 
L 398.525828 339.36 
L 398.525828 249.922919 
L 390.793377 249.922919 
z
" style="fill:#ff7f00;opacity:0.35;stroke:#ffffff;stroke-linejoin:miter;"/>
   </g>
   <g id="patch_92">
    <path clip-path="url(#p4b58d4dd0c)" d="M 398.525828 339.36 
L 406.258279 339.36 
L 406.258279 263.942553 
L 398.525828 263.942553 
z
" style="fill:#ff7f00;opacity:0.35;stroke:#ffffff;stroke-linejoin:miter;"/>
   </g>
   <g id="patch_93">
    <path clip-path="url(#p4b58d4dd0c)" d="M 406.258279 339.36 
L 413.99073 339.36 
L 413.99073 281.494015 
L 406.258279 281.494015 
z
" style="fill:#ff7f00;opacity:0.35;stroke:#ffffff;stroke-linejoin:miter;"/>
   </g>
   <g id="patch_94">
    <path clip-path="url(#p4b58d4dd0c)" d="M 413.99073 339.36 
L 421.723181 339.36 
L 421.723181 292.36946 
L 413.99073 292.36946 
z
" style="fill:#ff7f00;opacity:0.35;stroke:#ffffff;stroke-linejoin:miter;"/>
   </g>
   <g id="patch_95">
    <path clip-path="url(#p4b58d4dd0c)" d="M 421.723181 339.36 
L 429.455633 339.36 
L 429.455633 298.033306 
L 421.723181 298.033306 
z
" style="fill:#ff7f00;opacity:0.35;stroke:#ffffff;stroke-linejoin:miter;"/>
   </g>
   <g id="patch_96">
    <path clip-path="url(#p4b58d4dd0c)" d="M 429.455633 339.36 
L 437.188084 339.36 
L 437.188084 308.908752 
L 429.455633 308.908752 
z
" style="fill:#ff7f00;opacity:0.35;stroke:#ffffff;stroke-linejoin:miter;"/>
   </g>
   <g id="patch_97">
    <path clip-path="url(#p4b58d4dd0c)" d="M 437.188084 339.36 
L 444.920535 339.36 
L 444.920535 315.2402 
L 437.188084 315.2402 
z
" style="fill:#ff7f00;opacity:0.35;stroke:#ffffff;stroke-linejoin:miter;"/>
   </g>
   <g id="patch_98">
    <path clip-path="url(#p4b58d4dd0c)" d="M 444.920535 339.36 
L 452.652986 339.36 
L 452.652986 321.097865 
L 444.920535 321.097865 
z
" style="fill:#ff7f00;opacity:0.35;stroke:#ffffff;stroke-linejoin:miter;"/>
   </g>
   <g id="patch_99">
    <path clip-path="url(#p4b58d4dd0c)" d="M 452.652986 339.36 
L 460.385437 339.36 
L 460.385437 326.890925 
L 452.652986 326.890925 
z
" style="fill:#ff7f00;opacity:0.35;stroke:#ffffff;stroke-linejoin:miter;"/>
   </g>
   <g id="patch_100">
    <path clip-path="url(#p4b58d4dd0c)" d="M 460.385437 339.36 
L 468.117888 339.36 
L 468.117888 326.072574 
L 460.385437 326.072574 
z
" style="fill:#ff7f00;opacity:0.35;stroke:#ffffff;stroke-linejoin:miter;"/>
   </g>
   <g id="line2d_14">
    <path clip-path="url(#p4b58d4dd0c)" d="M 86.1459 339.344589 
L 93.063859 339.337419 
L 133.034287 339.332959 
L 145.332881 339.24565 
L 150.713515 339.027033 
L 153.019502 338.6885 
L 155.325488 338.102459 
L 156.862812 337.541443 
L 158.400136 336.811452 
L 159.93746 335.884654 
L 161.474784 334.71178 
L 163.780771 332.636405 
L 167.624081 328.559181 
L 169.930067 325.919095 
L 172.236054 323.068091 
L 177.616688 315.540744 
L 179.154012 313.005899 
L 180.691336 310.013072 
L 183.765985 303.146666 
L 186.071971 297.567233 
L 189.146619 290.887785 
L 191.452606 285.648226 
L 192.98993 281.258474 
L 195.295916 273.682492 
L 196.83324 268.331319 
L 197.601902 266.293157 
L 198.370564 264.886555 
L 200.676551 261.652926 
L 202.213875 259.124094 
L 202.982537 257.585173 
L 204.519861 253.562558 
L 209.131834 241.431751 
L 215.28113 229.318528 
L 216.818454 225.544098 
L 218.355779 222.373304 
L 219.893103 218.405016 
L 220.661765 216.433624 
L 222.967751 211.309606 
L 225.273737 204.970918 
L 226.042399 202.974513 
L 227.579724 197.967414 
L 229.117048 193.221218 
L 230.654372 188.683103 
L 232.191696 183.273565 
L 236.035006 171.636954 
L 236.803669 170.299985 
L 238.340993 168.673713 
L 239.109655 167.698629 
L 239.878317 166.928097 
L 240.646979 166.667469 
L 241.415641 166.69543 
L 242.184303 166.528748 
L 243.721627 165.654722 
L 244.490289 165.66938 
L 245.258951 165.899251 
L 246.027614 165.846717 
L 246.796276 165.340465 
L 247.564938 164.70106 
L 249.102262 163.764806 
L 249.870924 162.848039 
L 251.408248 159.705717 
L 252.945572 156.643073 
L 253.714234 154.67832 
L 256.020221 147.683413 
L 257.557545 143.727733 
L 259.094869 139.136247 
L 259.863531 137.537401 
L 260.632193 136.344203 
L 261.400855 134.931396 
L 262.938179 130.714276 
L 264.475504 126.14491 
L 265.244166 123.271799 
L 266.78149 116.440218 
L 268.318814 111.092819 
L 269.087476 108.367312 
L 273.699449 89.042297 
L 274.468111 86.60651 
L 275.236773 85.757133 
L 276.005435 86.370853 
L 276.774097 87.4898 
L 277.542759 88.278164 
L 278.311421 88.649954 
L 279.080083 88.876747 
L 279.848745 88.855182 
L 280.617407 88.101136 
L 281.386069 86.454895 
L 282.154731 84.451353 
L 282.923394 82.761862 
L 284.460718 79.907009 
L 285.998042 76.104103 
L 286.766704 75.003338 
L 288.304028 74.367153 
L 289.07269 73.593105 
L 289.841352 72.56935 
L 290.610014 71.8415 
L 291.378676 71.42458 
L 292.147339 70.744883 
L 294.453325 67.00537 
L 295.990649 66.366576 
L 297.527973 65.117312 
L 298.296635 65.318288 
L 299.065297 66.434113 
L 299.833959 67.787042 
L 300.602621 68.755422 
L 301.371284 69.506075 
L 302.139946 70.651367 
L 303.67727 74.01821 
L 305.214594 76.287714 
L 305.983256 77.900047 
L 308.289242 84.742993 
L 309.826566 87.827564 
L 311.363891 91.337273 
L 312.132553 92.432191 
L 312.901215 93.266154 
L 313.669877 94.576082 
L 316.744525 102.532355 
L 317.513187 104.521401 
L 319.819174 111.838173 
L 321.356498 115.461859 
L 323.662484 122.084421 
L 324.431146 123.763796 
L 325.199808 125.812432 
L 328.274456 136.439078 
L 329.043119 138.842379 
L 331.349105 146.917818 
L 332.886429 151.091857 
L 334.423753 156.219531 
L 335.192415 158.269507 
L 335.961077 159.678657 
L 337.498401 161.934066 
L 338.267064 162.810279 
L 339.035726 163.177701 
L 339.804388 163.290963 
L 340.57305 163.817982 
L 341.341712 165.12689 
L 342.879036 168.590717 
L 343.647698 170.133625 
L 344.41636 171.959931 
L 346.722346 178.945808 
L 347.491009 180.263746 
L 348.259671 181.062385 
L 349.028333 181.574624 
L 349.796995 181.691286 
L 350.565657 181.284547 
L 351.334319 180.720514 
L 352.102981 180.760021 
L 352.871643 181.856596 
L 355.177629 187.166611 
L 356.714954 189.890235 
L 357.483616 190.988624 
L 358.252278 191.434784 
L 359.02094 191.159947 
L 360.558264 189.75895 
L 361.326926 188.875401 
L 362.86425 186.779869 
L 363.632912 186.709713 
L 364.401574 188.062604 
L 365.170236 190.614704 
L 366.707561 196.939604 
L 368.244885 204.464853 
L 369.782209 212.807747 
L 370.550871 216.182822 
L 371.319533 218.900024 
L 372.088195 221.126883 
L 372.856857 222.872229 
L 373.625519 224.070695 
L 375.162844 225.899571 
L 375.931506 227.430798 
L 377.46883 231.750648 
L 379.006154 236.745483 
L 379.774816 239.962322 
L 384.386789 261.819716 
L 385.924113 267.886944 
L 387.461437 272.30673 
L 388.230099 274.066726 
L 388.998761 275.457827 
L 389.767423 276.479454 
L 392.073409 278.852564 
L 393.610734 280.042566 
L 394.379396 280.575409 
L 395.148058 281.279634 
L 398.991368 285.749833 
L 400.528692 288.004613 
L 402.066016 289.787802 
L 404.372003 291.965869 
L 405.909327 293.12665 
L 406.677989 293.927125 
L 410.521299 299.19512 
L 412.827286 302.356982 
L 415.901934 305.9224 
L 416.670596 306.631089 
L 418.20792 307.612949 
L 418.976582 307.889869 
L 419.745244 307.88547 
L 420.513906 307.449979 
L 421.282568 306.495859 
L 422.051231 305.0135 
L 424.357217 299.020745 
L 425.125879 298.022936 
L 425.894541 298.436397 
L 426.663203 300.326498 
L 428.200527 306.551829 
L 428.969189 309.627764 
L 429.737851 312.180306 
L 430.506513 314.136223 
L 431.275176 315.544276 
L 432.043838 316.520539 
L 433.581162 317.835875 
L 435.887148 319.468103 
L 440.499121 321.985026 
L 445.879755 324.650818 
L 447.417079 325.447787 
L 449.723066 326.340732 
L 452.029052 326.973705 
L 454.335038 327.691622 
L 459.715673 329.457346 
L 462.021659 329.900077 
L 467.402293 330.419951 
L 468.170956 330.666076 
L 468.939618 331.055199 
L 470.476942 332.193366 
L 472.014266 333.704694 
L 473.55159 335.676287 
L 475.088914 337.619783 
L 475.857576 338.326839 
L 476.626238 338.807596 
L 477.394901 339.094732 
L 478.932225 339.315873 
L 478.932225 339.315873 
" style="fill:none;stroke:#4c72b0;stroke-linecap:round;stroke-width:1.5;"/>
   </g>
   <g id="line2d_15">
    <path clip-path="url(#p4b58d4dd0c)" d="M 79.629972 339.347747 
L 91.542443 339.322658 
L 106.631573 339.312429 
L 153.487292 339.222414 
L 159.84061 339.018494 
L 164.605599 338.655129 
L 169.370587 338.045713 
L 174.135576 337.186287 
L 180.488893 335.77784 
L 184.459717 334.67825 
L 187.636376 333.592193 
L 190.01887 332.578464 
L 192.401365 331.304056 
L 194.783859 329.75929 
L 201.931341 324.616544 
L 205.108 322.166204 
L 207.490495 320.033868 
L 209.872989 317.548384 
L 212.255483 314.691084 
L 215.432142 310.464035 
L 220.19713 303.72685 
L 221.78546 301.215998 
L 223.373789 298.375048 
L 224.962119 295.074314 
L 226.550448 291.219852 
L 228.138778 286.774057 
L 229.727107 281.768335 
L 232.109602 273.461933 
L 236.87459 256.391211 
L 239.257084 248.696005 
L 247.992896 221.710656 
L 250.375391 213.182761 
L 252.757885 203.855357 
L 255.140379 193.686238 
L 259.905367 171.987249 
L 264.670356 149.732629 
L 268.64118 129.472835 
L 271.023674 117.812592 
L 272.612003 110.977993 
L 274.200333 105.02011 
L 276.582827 97.292536 
L 282.936145 77.69289 
L 287.701133 62.170771 
L 293.260286 43.314228 
L 294.848616 38.947045 
L 295.642781 37.171765 
L 296.436945 35.722839 
L 297.23111 34.628557 
L 298.025275 33.904861 
L 298.81944 33.554317 
L 299.613604 33.566115 
L 300.407769 33.917091 
L 301.201934 34.57363 
L 301.996099 35.494232 
L 303.584428 37.939926 
L 305.966922 42.422677 
L 309.143581 48.468766 
L 311.526075 52.502269 
L 313.114405 54.873965 
L 314.702734 56.928302 
L 316.291064 58.605948 
L 317.879393 59.922025 
L 321.056052 62.224406 
L 322.644382 63.811174 
L 324.232711 66.006282 
L 325.821041 68.843513 
L 327.40937 72.18818 
L 333.762688 86.258277 
L 336.145182 90.6572 
L 339.321841 96.281013 
L 340.910171 99.418667 
L 343.292665 104.757468 
L 346.469324 112.131435 
L 348.057653 115.244947 
L 349.645983 117.637175 
L 350.440148 118.529264 
L 351.234312 119.220292 
L 352.028477 119.722467 
L 352.822642 120.055112 
L 353.616807 120.243088 
L 355.205136 120.304352 
L 357.58763 120.144274 
L 358.381795 120.196053 
L 359.17596 120.389537 
L 359.970125 120.788307 
L 360.764289 121.460833 
L 361.558454 122.476723 
L 362.352619 123.901144 
L 363.146784 125.787942 
L 363.940948 128.172325 
L 364.735113 131.064296 
L 366.323443 138.260216 
L 367.911772 146.855845 
L 371.088431 164.735704 
L 372.67676 172.529478 
L 374.26509 179.293444 
L 379.030078 198.014959 
L 381.412573 209.020694 
L 385.383396 228.290719 
L 386.971726 234.920251 
L 388.560055 240.429719 
L 390.148385 244.836077 
L 391.736714 248.383887 
L 394.119208 252.835419 
L 398.090032 259.977507 
L 401.266691 266.231925 
L 407.620009 279.200858 
L 410.002503 283.429129 
L 412.384997 287.106606 
L 414.767492 290.31128 
L 417.149986 293.091086 
L 419.53248 295.462257 
L 425.091633 300.599502 
L 427.474127 303.281899 
L 433.033281 309.822405 
L 435.415775 312.135815 
L 437.798269 314.132964 
L 450.504905 323.981741 
L 452.887399 325.576841 
L 455.269893 326.920313 
L 458.446552 328.393834 
L 463.211541 330.252285 
L 466.3882 331.579458 
L 468.770694 332.836601 
L 471.153188 334.366501 
L 475.124012 337.017341 
L 476.712341 337.856031 
L 478.300671 338.480739 
L 479.889 338.895144 
L 482.271494 339.213775 
L 485.448153 339.338829 
L 485.448153 339.338829 
" style="fill:none;stroke:#dd8452;stroke-linecap:round;stroke-width:1.5;"/>
   </g>
   <g id="patch_101">
    <path d="M 59.339063 339.36 
L 59.339063 13.2 
" style="fill:none;stroke:#262626;stroke-linecap:square;stroke-linejoin:miter;stroke-width:1.25;"/>
   </g>
   <g id="patch_102">
    <path d="M 59.339062 339.36 
L 505.739062 339.36 
" style="fill:none;stroke:#262626;stroke-linecap:square;stroke-linejoin:miter;stroke-width:1.25;"/>
   </g>
   <g id="legend_1">
    <g id="patch_103">
     <path d="M 71.039063 34.363594 
L 97.039063 34.363594 
L 97.039063 25.263594 
L 71.039063 25.263594 
z
" style="fill:#377eb8;opacity:0.35;stroke:#ffffff;stroke-linejoin:miter;"/>
    </g>
    <g id="text_16">
     <!-- Companies House -->
     <defs>
      <path d="M 58.796875 25.09375 
L 68.265625 22.703125 
Q 65.28125 11.03125 57.546875 4.90625 
Q 49.8125 -1.21875 38.625 -1.21875 
Q 27.046875 -1.21875 19.796875 3.484375 
Q 12.546875 8.203125 8.765625 17.140625 
Q 4.984375 26.078125 4.984375 36.328125 
Q 4.984375 47.515625 9.25 55.828125 
Q 13.53125 64.15625 21.40625 68.46875 
Q 29.296875 72.796875 38.765625 72.796875 
Q 49.515625 72.796875 56.828125 67.328125 
Q 64.15625 61.859375 67.046875 51.953125 
L 57.71875 49.75 
Q 55.21875 57.5625 50.484375 61.125 
Q 45.75 64.703125 38.578125 64.703125 
Q 30.328125 64.703125 24.78125 60.734375 
Q 19.234375 56.78125 16.984375 50.109375 
Q 14.75 43.453125 14.75 36.375 
Q 14.75 27.25 17.40625 20.4375 
Q 20.0625 13.625 25.671875 10.25 
Q 31.296875 6.890625 37.84375 6.890625 
Q 45.796875 6.890625 51.3125 11.46875 
Q 56.84375 16.0625 58.796875 25.09375 
z
" id="ArialMT-43"/>
      <path d="M 6.59375 -19.875 
L 6.59375 51.859375 
L 14.59375 51.859375 
L 14.59375 45.125 
Q 17.4375 49.078125 21 51.046875 
Q 24.5625 53.03125 29.640625 53.03125 
Q 36.28125 53.03125 41.359375 49.609375 
Q 46.4375 46.1875 49.015625 39.953125 
Q 51.609375 33.734375 51.609375 26.3125 
Q 51.609375 18.359375 48.75 11.984375 
Q 45.90625 5.609375 40.453125 2.21875 
Q 35.015625 -1.171875 29 -1.171875 
Q 24.609375 -1.171875 21.109375 0.6875 
Q 17.625 2.546875 15.375 5.375 
L 15.375 -19.875 
z
M 14.546875 25.640625 
Q 14.546875 15.625 18.59375 10.84375 
Q 22.65625 6.0625 28.421875 6.0625 
Q 34.28125 6.0625 38.453125 11.015625 
Q 42.625 15.96875 42.625 26.375 
Q 42.625 36.28125 38.546875 41.203125 
Q 34.46875 46.140625 28.8125 46.140625 
Q 23.1875 46.140625 18.859375 40.890625 
Q 14.546875 35.640625 14.546875 25.640625 
z
" id="ArialMT-70"/>
      <path d="M 3.078125 15.484375 
L 11.765625 16.84375 
Q 12.5 11.625 15.84375 8.84375 
Q 19.1875 6.0625 25.203125 6.0625 
Q 31.25 6.0625 34.171875 8.515625 
Q 37.109375 10.984375 37.109375 14.3125 
Q 37.109375 17.28125 34.515625 19 
Q 32.71875 20.171875 25.53125 21.96875 
Q 15.875 24.421875 12.140625 26.203125 
Q 8.40625 27.984375 6.46875 31.125 
Q 4.546875 34.28125 4.546875 38.09375 
Q 4.546875 41.546875 6.125 44.5 
Q 7.71875 47.46875 10.453125 49.421875 
Q 12.5 50.921875 16.03125 51.96875 
Q 19.578125 53.03125 23.640625 53.03125 
Q 29.734375 53.03125 34.34375 51.265625 
Q 38.96875 49.515625 41.15625 46.5 
Q 43.359375 43.5 44.1875 38.484375 
L 35.59375 37.3125 
Q 35.015625 41.3125 32.203125 43.546875 
Q 29.390625 45.796875 24.265625 45.796875 
Q 18.21875 45.796875 15.625 43.796875 
Q 13.03125 41.796875 13.03125 39.109375 
Q 13.03125 37.40625 14.109375 36.03125 
Q 15.1875 34.625 17.484375 33.6875 
Q 18.796875 33.203125 25.25 31.453125 
Q 34.578125 28.953125 38.25 27.359375 
Q 41.9375 25.78125 44.03125 22.75 
Q 46.140625 19.734375 46.140625 15.234375 
Q 46.140625 10.84375 43.578125 6.953125 
Q 41.015625 3.078125 36.171875 0.953125 
Q 31.34375 -1.171875 25.25 -1.171875 
Q 15.140625 -1.171875 9.84375 3.03125 
Q 4.546875 7.234375 3.078125 15.484375 
z
" id="ArialMT-73"/>
      <path d="M 8.015625 0 
L 8.015625 71.578125 
L 17.484375 71.578125 
L 17.484375 42.1875 
L 54.6875 42.1875 
L 54.6875 71.578125 
L 64.15625 71.578125 
L 64.15625 0 
L 54.6875 0 
L 54.6875 33.734375 
L 17.484375 33.734375 
L 17.484375 0 
z
" id="ArialMT-48"/>
     </defs>
     <g style="fill:#262626;" transform="translate(107.439063 34.363594)scale(0.13 -0.13)">
      <use xlink:href="#ArialMT-43"/>
      <use x="72.216797" xlink:href="#ArialMT-6f"/>
      <use x="127.832031" xlink:href="#ArialMT-6d"/>
      <use x="211.132812" xlink:href="#ArialMT-70"/>
      <use x="266.748047" xlink:href="#ArialMT-61"/>
      <use x="322.363281" xlink:href="#ArialMT-6e"/>
      <use x="377.978516" xlink:href="#ArialMT-69"/>
      <use x="400.195312" xlink:href="#ArialMT-65"/>
      <use x="455.810547" xlink:href="#ArialMT-73"/>
      <use x="505.810547" xlink:href="#ArialMT-20"/>
      <use x="533.59375" xlink:href="#ArialMT-48"/>
      <use x="605.810547" xlink:href="#ArialMT-6f"/>
      <use x="661.425781" xlink:href="#ArialMT-75"/>
      <use x="717.041016" xlink:href="#ArialMT-73"/>
      <use x="767.041016" xlink:href="#ArialMT-65"/>
     </g>
    </g>
    <g id="patch_104">
     <path d="M 71.039063 52.7525 
L 97.039063 52.7525 
L 97.039063 43.6525 
L 71.039063 43.6525 
z
" style="fill:#ff7f00;opacity:0.35;stroke:#ffffff;stroke-linejoin:miter;"/>
    </g>
    <g id="text_17">
     <!-- Reconciled Officers -->
     <defs>
      <path d="M 7.859375 0 
L 7.859375 71.578125 
L 39.59375 71.578125 
Q 49.171875 71.578125 54.140625 69.640625 
Q 59.125 67.71875 62.109375 62.828125 
Q 65.09375 57.953125 65.09375 52.046875 
Q 65.09375 44.4375 60.15625 39.203125 
Q 55.21875 33.984375 44.921875 32.5625 
Q 48.6875 30.765625 50.640625 29 
Q 54.78125 25.203125 58.5 19.484375 
L 70.953125 0 
L 59.03125 0 
L 49.5625 14.890625 
Q 45.40625 21.34375 42.71875 24.75 
Q 40.046875 28.171875 37.921875 29.53125 
Q 35.796875 30.90625 33.59375 31.453125 
Q 31.984375 31.78125 28.328125 31.78125 
L 17.328125 31.78125 
L 17.328125 0 
z
M 17.328125 39.984375 
L 37.703125 39.984375 
Q 44.1875 39.984375 47.84375 41.328125 
Q 51.515625 42.671875 53.421875 45.625 
Q 55.328125 48.578125 55.328125 52.046875 
Q 55.328125 57.125 51.640625 60.390625 
Q 47.953125 63.671875 39.984375 63.671875 
L 17.328125 63.671875 
z
" id="ArialMT-52"/>
      <path d="M 4.828125 34.859375 
Q 4.828125 52.6875 14.390625 62.765625 
Q 23.96875 72.859375 39.109375 72.859375 
Q 49.03125 72.859375 56.984375 68.109375 
Q 64.9375 63.375 69.109375 54.90625 
Q 73.296875 46.4375 73.296875 35.6875 
Q 73.296875 24.8125 68.890625 16.21875 
Q 64.5 7.625 56.4375 3.203125 
Q 48.390625 -1.21875 39.0625 -1.21875 
Q 28.953125 -1.21875 20.984375 3.65625 
Q 13.03125 8.546875 8.921875 16.984375 
Q 4.828125 25.4375 4.828125 34.859375 
z
M 14.59375 34.71875 
Q 14.59375 21.78125 21.546875 14.328125 
Q 28.515625 6.890625 39.015625 6.890625 
Q 49.703125 6.890625 56.609375 14.40625 
Q 63.53125 21.921875 63.53125 35.75 
Q 63.53125 44.484375 60.578125 51 
Q 57.625 57.515625 51.921875 61.109375 
Q 46.234375 64.703125 39.15625 64.703125 
Q 29.109375 64.703125 21.84375 57.78125 
Q 14.59375 50.875 14.59375 34.71875 
z
" id="ArialMT-4f"/>
      <path d="M 8.6875 0 
L 8.6875 45.015625 
L 0.921875 45.015625 
L 0.921875 51.859375 
L 8.6875 51.859375 
L 8.6875 57.375 
Q 8.6875 62.59375 9.625 65.140625 
Q 10.890625 68.5625 14.078125 70.671875 
Q 17.28125 72.796875 23.046875 72.796875 
Q 26.765625 72.796875 31.25 71.921875 
L 29.9375 64.265625 
Q 27.203125 64.75 24.75 64.75 
Q 20.75 64.75 19.09375 63.03125 
Q 17.4375 61.328125 17.4375 56.640625 
L 17.4375 51.859375 
L 27.546875 51.859375 
L 27.546875 45.015625 
L 17.4375 45.015625 
L 17.4375 0 
z
" id="ArialMT-66"/>
     </defs>
     <g style="fill:#262626;" transform="translate(107.439063 52.7525)scale(0.13 -0.13)">
      <use xlink:href="#ArialMT-52"/>
      <use x="72.216797" xlink:href="#ArialMT-65"/>
      <use x="127.832031" xlink:href="#ArialMT-63"/>
      <use x="177.832031" xlink:href="#ArialMT-6f"/>
      <use x="233.447266" xlink:href="#ArialMT-6e"/>
      <use x="289.0625" xlink:href="#ArialMT-63"/>
      <use x="339.0625" xlink:href="#ArialMT-69"/>
      <use x="361.279297" xlink:href="#ArialMT-6c"/>
      <use x="383.496094" xlink:href="#ArialMT-65"/>
      <use x="439.111328" xlink:href="#ArialMT-64"/>
      <use x="494.726562" xlink:href="#ArialMT-20"/>
      <use x="522.509766" xlink:href="#ArialMT-4f"/>
      <use x="600.292969" xlink:href="#ArialMT-66"/>
      <use x="628.060547" xlink:href="#ArialMT-66"/>
      <use x="655.84375" xlink:href="#ArialMT-69"/>
      <use x="678.060547" xlink:href="#ArialMT-63"/>
      <use x="728.060547" xlink:href="#ArialMT-65"/>
      <use x="783.675781" xlink:href="#ArialMT-72"/>
      <use x="816.976562" xlink:href="#ArialMT-73"/>
     </g>
    </g>
   </g>
  </g>
 </g>
 <defs>
  <clipPath id="p4b58d4dd0c">
   <rect height="326.16" width="446.4" x="59.339063" y="13.2"/>
  </clipPath>
 </defs>
</svg>
