<?xml version="1.0" encoding="utf-8" standalone="no"?>
<!DOCTYPE svg PUBLIC "-//W3C//DTD SVG 1.1//EN"
  "http://www.w3.org/Graphics/SVG/1.1/DTD/svg11.dtd">
<!-- Created with matplotlib (http://matplotlib.org/) -->
<svg height="279.701601pt" version="1.1" viewBox="0 0 414.694375 279.701601" width="414.694375pt" xmlns="http://www.w3.org/2000/svg" xmlns:xlink="http://www.w3.org/1999/xlink">
 <defs>
  <style type="text/css">
*{stroke-linecap:butt;stroke-linejoin:round;}
  </style>
 </defs>
 <g id="figure_1">
  <g id="patch_1">
   <path d="M 0 279.701601 
L 414.694375 279.701601 
L 414.694375 0 
L 0 0 
z
" style="fill:#ffffff;"/>
  </g>
  <g id="axes_1">
   <g id="patch_2">
    <path d="M 66.694375 230.64 
L 401.494375 230.64 
L 401.494375 13.2 
L 66.694375 13.2 
z
" style="fill:#ffffff;"/>
   </g>
   <g id="matplotlib.axis_1">
    <g id="xtick_1">
     <g id="line2d_1">
      <path clip-path="url(#pf2d9c69053)" d="M 82.079386 230.64 
L 82.079386 13.2 
" style="fill:none;opacity:0.125;stroke:#808080;stroke-dasharray:3.7,1.6;stroke-dashoffset:0;"/>
     </g>
     <g id="line2d_2">
      <defs>
       <path d="M 0 0 
L 0 6 
" id="m44386b1c6d" style="stroke:#262626;stroke-width:1.25;"/>
      </defs>
      <g>
       <use style="fill:#262626;stroke:#262626;stroke-width:1.25;" x="82.079386" xlink:href="#m44386b1c6d" y="230.64"/>
      </g>
     </g>
     <g id="text_1">
      <!-- £0bn -->
      <defs>
       <path d="M 19.34375 39.5 
L 34.71875 39.5 
L 34.71875 32.28125 
L 20.84375 32.28125 
Q 21.78125 30.125 21.78125 27.984375 
Q 21.78125 23.734375 19.75 19 
Q 17.71875 14.265625 13.09375 9.328125 
Q 16.9375 10.40625 20.125 10.40625 
Q 24.171875 10.40625 29.25 9.1875 
Q 37.640625 7.171875 40.625 7.171875 
Q 44.234375 7.171875 50 9.90625 
L 52.828125 1.859375 
Q 48.34375 -0.046875 45.875 -0.625 
Q 43.40625 -1.21875 40.96875 -1.21875 
Q 38.921875 -1.21875 36.8125 -0.828125 
Q 35.5 -0.59375 30.484375 0.9375 
Q 25.484375 2.484375 24.03125 2.78125 
Q 21.734375 3.171875 19.4375 3.171875 
Q 15.921875 3.171875 11.9375 1.953125 
Q 7.953125 0.734375 4.6875 -1.375 
L 1.3125 7.078125 
Q 6 9.671875 9.265625 14.46875 
Q 12.546875 19.28125 12.546875 26.21875 
Q 12.546875 29.203125 11.71875 32.28125 
L 2.15625 32.28125 
L 2.15625 39.5 
L 9.671875 39.5 
Q 8.0625 44.96875 7.609375 47.484375 
Q 7.171875 50 7.171875 52.390625 
Q 7.171875 62.546875 14.703125 68.265625 
Q 20.75 72.796875 29.34375 72.796875 
Q 38.1875 72.796875 43.921875 67.9375 
Q 49.65625 63.09375 50.984375 54.296875 
L 42.234375 52.984375 
Q 41.5 58.84375 37.859375 62.203125 
Q 34.234375 65.578125 29.15625 65.578125 
Q 23.734375 65.578125 20.140625 62.078125 
Q 16.546875 58.59375 16.546875 53.65625 
Q 16.546875 48.25 19.34375 39.5 
z
" id="ArialMT-a3"/>
       <path d="M 4.15625 35.296875 
Q 4.15625 48 6.765625 55.734375 
Q 9.375 63.484375 14.515625 67.671875 
Q 19.671875 71.875 27.484375 71.875 
Q 33.25 71.875 37.59375 69.546875 
Q 41.9375 67.234375 44.765625 62.859375 
Q 47.609375 58.5 49.21875 52.21875 
Q 50.828125 45.953125 50.828125 35.296875 
Q 50.828125 22.703125 48.234375 14.96875 
Q 45.65625 7.234375 40.5 3 
Q 35.359375 -1.21875 27.484375 -1.21875 
Q 17.140625 -1.21875 11.234375 6.203125 
Q 4.15625 15.140625 4.15625 35.296875 
z
M 13.1875 35.296875 
Q 13.1875 17.671875 17.3125 11.828125 
Q 21.4375 6 27.484375 6 
Q 33.546875 6 37.671875 11.859375 
Q 41.796875 17.71875 41.796875 35.296875 
Q 41.796875 52.984375 37.671875 58.78125 
Q 33.546875 64.59375 27.390625 64.59375 
Q 21.34375 64.59375 17.71875 59.46875 
Q 13.1875 52.9375 13.1875 35.296875 
z
" id="ArialMT-30"/>
       <path d="M 14.703125 0 
L 6.546875 0 
L 6.546875 71.578125 
L 15.328125 71.578125 
L 15.328125 46.046875 
Q 20.90625 53.03125 29.546875 53.03125 
Q 34.328125 53.03125 38.59375 51.09375 
Q 42.875 49.171875 45.625 45.671875 
Q 48.390625 42.1875 49.953125 37.25 
Q 51.515625 32.328125 51.515625 26.703125 
Q 51.515625 13.375 44.921875 6.09375 
Q 38.328125 -1.171875 29.109375 -1.171875 
Q 19.921875 -1.171875 14.703125 6.5 
z
M 14.59375 26.3125 
Q 14.59375 17 17.140625 12.84375 
Q 21.296875 6.0625 28.375 6.0625 
Q 34.125 6.0625 38.328125 11.0625 
Q 42.53125 16.0625 42.53125 25.984375 
Q 42.53125 36.140625 38.5 40.96875 
Q 34.46875 45.796875 28.765625 45.796875 
Q 23 45.796875 18.796875 40.796875 
Q 14.59375 35.796875 14.59375 26.3125 
z
" id="ArialMT-62"/>
       <path d="M 6.59375 0 
L 6.59375 51.859375 
L 14.5 51.859375 
L 14.5 44.484375 
Q 20.21875 53.03125 31 53.03125 
Q 35.6875 53.03125 39.625 51.34375 
Q 43.5625 49.65625 45.515625 46.921875 
Q 47.46875 44.1875 48.25 40.4375 
Q 48.734375 37.984375 48.734375 31.890625 
L 48.734375 0 
L 39.9375 0 
L 39.9375 31.546875 
Q 39.9375 36.921875 38.90625 39.578125 
Q 37.890625 42.234375 35.28125 43.8125 
Q 32.671875 45.40625 29.15625 45.40625 
Q 23.53125 45.40625 19.453125 41.84375 
Q 15.375 38.28125 15.375 28.328125 
L 15.375 0 
z
" id="ArialMT-6e"/>
      </defs>
      <g style="fill:#262626;" transform="translate(70.998185 254.078124)rotate(-15)scale(0.11 -0.11)">
       <use xlink:href="#ArialMT-a3"/>
       <use x="55.615234" xlink:href="#ArialMT-30"/>
       <use x="111.230469" xlink:href="#ArialMT-62"/>
       <use x="166.845703" xlink:href="#ArialMT-6e"/>
      </g>
     </g>
    </g>
    <g id="xtick_2">
     <g id="line2d_3">
      <path clip-path="url(#pf2d9c69053)" d="M 123.071193 230.64 
L 123.071193 13.2 
" style="fill:none;opacity:0.125;stroke:#808080;stroke-dasharray:3.7,1.6;stroke-dashoffset:0;"/>
     </g>
     <g id="line2d_4">
      <g>
       <use style="fill:#262626;stroke:#262626;stroke-width:1.25;" x="123.071193" xlink:href="#m44386b1c6d" y="230.64"/>
      </g>
     </g>
     <g id="text_2">
      <!-- £25bn -->
      <defs>
       <path d="M 50.34375 8.453125 
L 50.34375 0 
L 3.03125 0 
Q 2.9375 3.171875 4.046875 6.109375 
Q 5.859375 10.9375 9.828125 15.625 
Q 13.8125 20.3125 21.34375 26.46875 
Q 33.015625 36.03125 37.109375 41.625 
Q 41.21875 47.21875 41.21875 52.203125 
Q 41.21875 57.421875 37.46875 61 
Q 33.734375 64.59375 27.734375 64.59375 
Q 21.390625 64.59375 17.578125 60.78125 
Q 13.765625 56.984375 13.71875 50.25 
L 4.6875 51.171875 
Q 5.609375 61.28125 11.65625 66.578125 
Q 17.71875 71.875 27.9375 71.875 
Q 38.234375 71.875 44.234375 66.15625 
Q 50.25 60.453125 50.25 52 
Q 50.25 47.703125 48.484375 43.546875 
Q 46.734375 39.40625 42.65625 34.8125 
Q 38.578125 30.21875 29.109375 22.21875 
Q 21.1875 15.578125 18.9375 13.203125 
Q 16.703125 10.84375 15.234375 8.453125 
z
" id="ArialMT-32"/>
       <path d="M 4.15625 18.75 
L 13.375 19.53125 
Q 14.40625 12.796875 18.140625 9.390625 
Q 21.875 6 27.15625 6 
Q 33.5 6 37.890625 10.78125 
Q 42.28125 15.578125 42.28125 23.484375 
Q 42.28125 31 38.0625 35.34375 
Q 33.84375 39.703125 27 39.703125 
Q 22.75 39.703125 19.328125 37.765625 
Q 15.921875 35.84375 13.96875 32.765625 
L 5.71875 33.84375 
L 12.640625 70.609375 
L 48.25 70.609375 
L 48.25 62.203125 
L 19.671875 62.203125 
L 15.828125 42.96875 
Q 22.265625 47.46875 29.34375 47.46875 
Q 38.71875 47.46875 45.15625 40.96875 
Q 51.609375 34.46875 51.609375 24.265625 
Q 51.609375 14.546875 45.953125 7.46875 
Q 39.0625 -1.21875 27.15625 -1.21875 
Q 17.390625 -1.21875 11.203125 4.25 
Q 5.03125 9.71875 4.15625 18.75 
z
" id="ArialMT-35"/>
      </defs>
      <g style="fill:#262626;" transform="translate(109.035693 255.661328)rotate(-15)scale(0.11 -0.11)">
       <use xlink:href="#ArialMT-a3"/>
       <use x="55.615234" xlink:href="#ArialMT-32"/>
       <use x="111.230469" xlink:href="#ArialMT-35"/>
       <use x="166.845703" xlink:href="#ArialMT-62"/>
       <use x="222.460938" xlink:href="#ArialMT-6e"/>
      </g>
     </g>
    </g>
    <g id="xtick_3">
     <g id="line2d_5">
      <path clip-path="url(#pf2d9c69053)" d="M 164.062999 230.64 
L 164.062999 13.2 
" style="fill:none;opacity:0.125;stroke:#808080;stroke-dasharray:3.7,1.6;stroke-dashoffset:0;"/>
     </g>
     <g id="line2d_6">
      <g>
       <use style="fill:#262626;stroke:#262626;stroke-width:1.25;" x="164.062999" xlink:href="#m44386b1c6d" y="230.64"/>
      </g>
     </g>
     <g id="text_3">
      <!-- £50bn -->
      <g style="fill:#262626;" transform="translate(150.0275 255.661328)rotate(-15)scale(0.11 -0.11)">
       <use xlink:href="#ArialMT-a3"/>
       <use x="55.615234" xlink:href="#ArialMT-35"/>
       <use x="111.230469" xlink:href="#ArialMT-30"/>
       <use x="166.845703" xlink:href="#ArialMT-62"/>
       <use x="222.460938" xlink:href="#ArialMT-6e"/>
      </g>
     </g>
    </g>
    <g id="xtick_4">
     <g id="line2d_7">
      <path clip-path="url(#pf2d9c69053)" d="M 205.054806 230.64 
L 205.054806 13.2 
" style="fill:none;opacity:0.125;stroke:#808080;stroke-dasharray:3.7,1.6;stroke-dashoffset:0;"/>
     </g>
     <g id="line2d_8">
      <g>
       <use style="fill:#262626;stroke:#262626;stroke-width:1.25;" x="205.054806" xlink:href="#m44386b1c6d" y="230.64"/>
      </g>
     </g>
     <g id="text_4">
      <!-- £75bn -->
      <defs>
       <path d="M 4.734375 62.203125 
L 4.734375 70.65625 
L 51.078125 70.65625 
L 51.078125 63.8125 
Q 44.234375 56.546875 37.515625 44.484375 
Q 30.8125 32.421875 27.15625 19.671875 
Q 24.515625 10.6875 23.78125 0 
L 14.75 0 
Q 14.890625 8.453125 18.0625 20.40625 
Q 21.234375 32.375 27.171875 43.484375 
Q 33.109375 54.59375 39.796875 62.203125 
z
" id="ArialMT-37"/>
      </defs>
      <g style="fill:#262626;" transform="translate(191.019306 255.661328)rotate(-15)scale(0.11 -0.11)">
       <use xlink:href="#ArialMT-a3"/>
       <use x="55.615234" xlink:href="#ArialMT-37"/>
       <use x="111.230469" xlink:href="#ArialMT-35"/>
       <use x="166.845703" xlink:href="#ArialMT-62"/>
       <use x="222.460938" xlink:href="#ArialMT-6e"/>
      </g>
     </g>
    </g>
    <g id="xtick_5">
     <g id="line2d_9">
      <path clip-path="url(#pf2d9c69053)" d="M 246.046613 230.64 
L 246.046613 13.2 
" style="fill:none;opacity:0.125;stroke:#808080;stroke-dasharray:3.7,1.6;stroke-dashoffset:0;"/>
     </g>
     <g id="line2d_10">
      <g>
       <use style="fill:#262626;stroke:#262626;stroke-width:1.25;" x="246.046613" xlink:href="#m44386b1c6d" y="230.64"/>
      </g>
     </g>
     <g id="text_5">
      <!-- £100bn -->
      <defs>
       <path d="M 37.25 0 
L 28.46875 0 
L 28.46875 56 
Q 25.296875 52.984375 20.140625 49.953125 
Q 14.984375 46.921875 10.890625 45.40625 
L 10.890625 53.90625 
Q 18.265625 57.375 23.78125 62.296875 
Q 29.296875 67.234375 31.59375 71.875 
L 37.25 71.875 
z
" id="ArialMT-31"/>
      </defs>
      <g style="fill:#262626;" transform="translate(229.056814 257.244533)rotate(-15)scale(0.11 -0.11)">
       <use xlink:href="#ArialMT-a3"/>
       <use x="55.615234" xlink:href="#ArialMT-31"/>
       <use x="111.230469" xlink:href="#ArialMT-30"/>
       <use x="166.845703" xlink:href="#ArialMT-30"/>
       <use x="222.460938" xlink:href="#ArialMT-62"/>
       <use x="278.076172" xlink:href="#ArialMT-6e"/>
      </g>
     </g>
    </g>
    <g id="xtick_6">
     <g id="line2d_11">
      <path clip-path="url(#pf2d9c69053)" d="M 287.038419 230.64 
L 287.038419 13.2 
" style="fill:none;opacity:0.125;stroke:#808080;stroke-dasharray:3.7,1.6;stroke-dashoffset:0;"/>
     </g>
     <g id="line2d_12">
      <g>
       <use style="fill:#262626;stroke:#262626;stroke-width:1.25;" x="287.038419" xlink:href="#m44386b1c6d" y="230.64"/>
      </g>
     </g>
     <g id="text_6">
      <!-- £125bn -->
      <g style="fill:#262626;" transform="translate(270.04862 257.244533)rotate(-15)scale(0.11 -0.11)">
       <use xlink:href="#ArialMT-a3"/>
       <use x="55.615234" xlink:href="#ArialMT-31"/>
       <use x="111.230469" xlink:href="#ArialMT-32"/>
       <use x="166.845703" xlink:href="#ArialMT-35"/>
       <use x="222.460938" xlink:href="#ArialMT-62"/>
       <use x="278.076172" xlink:href="#ArialMT-6e"/>
      </g>
     </g>
    </g>
    <g id="xtick_7">
     <g id="line2d_13">
      <path clip-path="url(#pf2d9c69053)" d="M 328.030226 230.64 
L 328.030226 13.2 
" style="fill:none;opacity:0.125;stroke:#808080;stroke-dasharray:3.7,1.6;stroke-dashoffset:0;"/>
     </g>
     <g id="line2d_14">
      <g>
       <use style="fill:#262626;stroke:#262626;stroke-width:1.25;" x="328.030226" xlink:href="#m44386b1c6d" y="230.64"/>
      </g>
     </g>
     <g id="text_7">
      <!-- £150bn -->
      <g style="fill:#262626;" transform="translate(311.040427 257.244533)rotate(-15)scale(0.11 -0.11)">
       <use xlink:href="#ArialMT-a3"/>
       <use x="55.615234" xlink:href="#ArialMT-31"/>
       <use x="111.230469" xlink:href="#ArialMT-35"/>
       <use x="166.845703" xlink:href="#ArialMT-30"/>
       <use x="222.460938" xlink:href="#ArialMT-62"/>
       <use x="278.076172" xlink:href="#ArialMT-6e"/>
      </g>
     </g>
    </g>
    <g id="xtick_8">
     <g id="line2d_15">
      <path clip-path="url(#pf2d9c69053)" d="M 369.022033 230.64 
L 369.022033 13.2 
" style="fill:none;opacity:0.125;stroke:#808080;stroke-dasharray:3.7,1.6;stroke-dashoffset:0;"/>
     </g>
     <g id="line2d_16">
      <g>
       <use style="fill:#262626;stroke:#262626;stroke-width:1.25;" x="369.022033" xlink:href="#m44386b1c6d" y="230.64"/>
      </g>
     </g>
     <g id="text_8">
      <!-- £175bn -->
      <g style="fill:#262626;" transform="translate(352.032234 257.244533)rotate(-15)scale(0.11 -0.11)">
       <use xlink:href="#ArialMT-a3"/>
       <use x="55.615234" xlink:href="#ArialMT-31"/>
       <use x="111.230469" xlink:href="#ArialMT-37"/>
       <use x="166.845703" xlink:href="#ArialMT-35"/>
       <use x="222.460938" xlink:href="#ArialMT-62"/>
       <use x="278.076172" xlink:href="#ArialMT-6e"/>
      </g>
     </g>
    </g>
    <g id="text_9">
     <!-- PESA: 2017-2018 -->
     <defs>
      <path d="M 7.71875 0 
L 7.71875 71.578125 
L 34.71875 71.578125 
Q 41.84375 71.578125 45.609375 70.90625 
Q 50.875 70.015625 54.4375 67.546875 
Q 58.015625 65.09375 60.1875 60.640625 
Q 62.359375 56.203125 62.359375 50.875 
Q 62.359375 41.75 56.546875 35.421875 
Q 50.734375 29.109375 35.546875 29.109375 
L 17.1875 29.109375 
L 17.1875 0 
z
M 17.1875 37.546875 
L 35.6875 37.546875 
Q 44.875 37.546875 48.734375 40.96875 
Q 52.59375 44.390625 52.59375 50.59375 
Q 52.59375 55.078125 50.3125 58.265625 
Q 48.046875 61.46875 44.34375 62.5 
Q 41.9375 63.140625 35.5 63.140625 
L 17.1875 63.140625 
z
" id="ArialMT-50"/>
      <path d="M 7.90625 0 
L 7.90625 71.578125 
L 59.671875 71.578125 
L 59.671875 63.140625 
L 17.390625 63.140625 
L 17.390625 41.21875 
L 56.984375 41.21875 
L 56.984375 32.8125 
L 17.390625 32.8125 
L 17.390625 8.453125 
L 61.328125 8.453125 
L 61.328125 0 
z
" id="ArialMT-45"/>
      <path d="M 4.5 23 
L 13.421875 23.78125 
Q 14.0625 18.40625 16.375 14.96875 
Q 18.703125 11.53125 23.578125 9.40625 
Q 28.46875 7.28125 34.578125 7.28125 
Q 39.984375 7.28125 44.140625 8.890625 
Q 48.296875 10.5 50.3125 13.296875 
Q 52.34375 16.109375 52.34375 19.4375 
Q 52.34375 22.796875 50.390625 25.3125 
Q 48.4375 27.828125 43.953125 29.546875 
Q 41.0625 30.671875 31.203125 33.03125 
Q 21.34375 35.40625 17.390625 37.5 
Q 12.25 40.1875 9.734375 44.15625 
Q 7.234375 48.140625 7.234375 53.078125 
Q 7.234375 58.5 10.296875 63.203125 
Q 13.375 67.921875 19.28125 70.359375 
Q 25.203125 72.796875 32.421875 72.796875 
Q 40.375 72.796875 46.453125 70.234375 
Q 52.546875 67.671875 55.8125 62.6875 
Q 59.078125 57.71875 59.328125 51.421875 
L 50.25 50.734375 
Q 49.515625 57.515625 45.28125 60.984375 
Q 41.0625 64.453125 32.8125 64.453125 
Q 24.21875 64.453125 20.28125 61.296875 
Q 16.359375 58.15625 16.359375 53.71875 
Q 16.359375 49.859375 19.140625 47.359375 
Q 21.875 44.875 33.421875 42.265625 
Q 44.96875 39.65625 49.265625 37.703125 
Q 55.515625 34.8125 58.484375 30.390625 
Q 61.46875 25.984375 61.46875 20.21875 
Q 61.46875 14.5 58.203125 9.4375 
Q 54.9375 4.390625 48.796875 1.578125 
Q 42.671875 -1.21875 35.015625 -1.21875 
Q 25.296875 -1.21875 18.71875 1.609375 
Q 12.15625 4.4375 8.421875 10.125 
Q 4.6875 15.828125 4.5 23 
z
" id="ArialMT-53"/>
      <path d="M -0.140625 0 
L 27.34375 71.578125 
L 37.546875 71.578125 
L 66.84375 0 
L 56.0625 0 
L 47.703125 21.6875 
L 17.78125 21.6875 
L 9.90625 0 
z
M 20.515625 29.390625 
L 44.78125 29.390625 
L 37.3125 49.21875 
Q 33.890625 58.25 32.234375 64.0625 
Q 30.859375 57.171875 28.375 50.390625 
z
" id="ArialMT-41"/>
      <path d="M 9.03125 41.84375 
L 9.03125 51.859375 
L 19.046875 51.859375 
L 19.046875 41.84375 
z
M 9.03125 0 
L 9.03125 10.015625 
L 19.046875 10.015625 
L 19.046875 0 
z
" id="ArialMT-3a"/>
      <path id="ArialMT-20"/>
      <path d="M 3.171875 21.484375 
L 3.171875 30.328125 
L 30.171875 30.328125 
L 30.171875 21.484375 
z
" id="ArialMT-2d"/>
      <path d="M 17.671875 38.8125 
Q 12.203125 40.828125 9.5625 44.53125 
Q 6.9375 48.25 6.9375 53.421875 
Q 6.9375 61.234375 12.546875 66.546875 
Q 18.171875 71.875 27.484375 71.875 
Q 36.859375 71.875 42.578125 66.421875 
Q 48.296875 60.984375 48.296875 53.171875 
Q 48.296875 48.1875 45.671875 44.5 
Q 43.0625 40.828125 37.75 38.8125 
Q 44.34375 36.671875 47.78125 31.875 
Q 51.21875 27.09375 51.21875 20.453125 
Q 51.21875 11.28125 44.71875 5.03125 
Q 38.234375 -1.21875 27.640625 -1.21875 
Q 17.046875 -1.21875 10.546875 5.046875 
Q 4.046875 11.328125 4.046875 20.703125 
Q 4.046875 27.6875 7.59375 32.390625 
Q 11.140625 37.109375 17.671875 38.8125 
z
M 15.921875 53.71875 
Q 15.921875 48.640625 19.1875 45.40625 
Q 22.46875 42.1875 27.6875 42.1875 
Q 32.765625 42.1875 36.015625 45.375 
Q 39.265625 48.578125 39.265625 53.21875 
Q 39.265625 58.0625 35.90625 61.359375 
Q 32.5625 64.65625 27.59375 64.65625 
Q 22.5625 64.65625 19.234375 61.421875 
Q 15.921875 58.203125 15.921875 53.71875 
z
M 13.09375 20.65625 
Q 13.09375 16.890625 14.875 13.375 
Q 16.65625 9.859375 20.171875 7.921875 
Q 23.6875 6 27.734375 6 
Q 34.03125 6 38.125 10.046875 
Q 42.234375 14.109375 42.234375 20.359375 
Q 42.234375 26.703125 38.015625 30.859375 
Q 33.796875 35.015625 27.4375 35.015625 
Q 21.234375 35.015625 17.15625 30.90625 
Q 13.09375 26.8125 13.09375 20.65625 
z
" id="ArialMT-38"/>
     </defs>
     <g style="fill:#262626;" transform="translate(194.067031 270.514101)scale(0.1 -0.1)">
      <use xlink:href="#ArialMT-50"/>
      <use x="66.699219" xlink:href="#ArialMT-45"/>
      <use x="133.398438" xlink:href="#ArialMT-53"/>
      <use x="200.097656" xlink:href="#ArialMT-41"/>
      <use x="266.796875" xlink:href="#ArialMT-3a"/>
      <use x="294.580078" xlink:href="#ArialMT-20"/>
      <use x="322.363281" xlink:href="#ArialMT-32"/>
      <use x="377.978516" xlink:href="#ArialMT-30"/>
      <use x="433.59375" xlink:href="#ArialMT-31"/>
      <use x="489.208984" xlink:href="#ArialMT-37"/>
      <use x="544.824219" xlink:href="#ArialMT-2d"/>
      <use x="578.125" xlink:href="#ArialMT-32"/>
      <use x="633.740234" xlink:href="#ArialMT-30"/>
      <use x="689.355469" xlink:href="#ArialMT-31"/>
      <use x="744.970703" xlink:href="#ArialMT-38"/>
     </g>
    </g>
   </g>
   <g id="matplotlib.axis_2">
    <g id="ytick_1">
     <g id="line2d_17">
      <path clip-path="url(#pf2d9c69053)" d="M 66.694375 219.975221 
L 401.494375 219.975221 
" style="fill:none;opacity:0.125;stroke:#808080;stroke-dasharray:3.7,1.6;stroke-dashoffset:0;"/>
     </g>
     <g id="line2d_18">
      <defs>
       <path d="M 0 0 
L -6 0 
" id="m5bba3dcc1b" style="stroke:#262626;stroke-width:1.25;"/>
      </defs>
      <g>
       <use style="fill:#262626;stroke:#262626;stroke-width:1.25;" x="66.694375" xlink:href="#m5bba3dcc1b" y="219.975221"/>
      </g>
     </g>
     <g id="text_10">
      <!-- £0bn -->
      <g style="fill:#262626;" transform="translate(32.72625 223.912018)scale(0.11 -0.11)">
       <use xlink:href="#ArialMT-a3"/>
       <use x="55.615234" xlink:href="#ArialMT-30"/>
       <use x="111.230469" xlink:href="#ArialMT-62"/>
       <use x="166.845703" xlink:href="#ArialMT-6e"/>
      </g>
     </g>
    </g>
    <g id="ytick_2">
     <g id="line2d_19">
      <path clip-path="url(#pf2d9c69053)" d="M 66.694375 186.86538 
L 401.494375 186.86538 
" style="fill:none;opacity:0.125;stroke:#808080;stroke-dasharray:3.7,1.6;stroke-dashoffset:0;"/>
     </g>
     <g id="line2d_20">
      <g>
       <use style="fill:#262626;stroke:#262626;stroke-width:1.25;" x="66.694375" xlink:href="#m5bba3dcc1b" y="186.86538"/>
      </g>
     </g>
     <g id="text_11">
      <!-- £20bn -->
      <g style="fill:#262626;" transform="translate(26.609219 190.802177)scale(0.11 -0.11)">
       <use xlink:href="#ArialMT-a3"/>
       <use x="55.615234" xlink:href="#ArialMT-32"/>
       <use x="111.230469" xlink:href="#ArialMT-30"/>
       <use x="166.845703" xlink:href="#ArialMT-62"/>
       <use x="222.460938" xlink:href="#ArialMT-6e"/>
      </g>
     </g>
    </g>
    <g id="ytick_3">
     <g id="line2d_21">
      <path clip-path="url(#pf2d9c69053)" d="M 66.694375 153.755539 
L 401.494375 153.755539 
" style="fill:none;opacity:0.125;stroke:#808080;stroke-dasharray:3.7,1.6;stroke-dashoffset:0;"/>
     </g>
     <g id="line2d_22">
      <g>
       <use style="fill:#262626;stroke:#262626;stroke-width:1.25;" x="66.694375" xlink:href="#m5bba3dcc1b" y="153.755539"/>
      </g>
     </g>
     <g id="text_12">
      <!-- £40bn -->
      <defs>
       <path d="M 32.328125 0 
L 32.328125 17.140625 
L 1.265625 17.140625 
L 1.265625 25.203125 
L 33.9375 71.578125 
L 41.109375 71.578125 
L 41.109375 25.203125 
L 50.78125 25.203125 
L 50.78125 17.140625 
L 41.109375 17.140625 
L 41.109375 0 
z
M 32.328125 25.203125 
L 32.328125 57.46875 
L 9.90625 25.203125 
z
" id="ArialMT-34"/>
      </defs>
      <g style="fill:#262626;" transform="translate(26.609219 157.692336)scale(0.11 -0.11)">
       <use xlink:href="#ArialMT-a3"/>
       <use x="55.615234" xlink:href="#ArialMT-34"/>
       <use x="111.230469" xlink:href="#ArialMT-30"/>
       <use x="166.845703" xlink:href="#ArialMT-62"/>
       <use x="222.460938" xlink:href="#ArialMT-6e"/>
      </g>
     </g>
    </g>
    <g id="ytick_4">
     <g id="line2d_23">
      <path clip-path="url(#pf2d9c69053)" d="M 66.694375 120.645698 
L 401.494375 120.645698 
" style="fill:none;opacity:0.125;stroke:#808080;stroke-dasharray:3.7,1.6;stroke-dashoffset:0;"/>
     </g>
     <g id="line2d_24">
      <g>
       <use style="fill:#262626;stroke:#262626;stroke-width:1.25;" x="66.694375" xlink:href="#m5bba3dcc1b" y="120.645698"/>
      </g>
     </g>
     <g id="text_13">
      <!-- £60bn -->
      <defs>
       <path d="M 49.75 54.046875 
L 41.015625 53.375 
Q 39.84375 58.546875 37.703125 60.890625 
Q 34.125 64.65625 28.90625 64.65625 
Q 24.703125 64.65625 21.53125 62.3125 
Q 17.390625 59.28125 14.984375 53.46875 
Q 12.59375 47.65625 12.5 36.921875 
Q 15.671875 41.75 20.265625 44.09375 
Q 24.859375 46.4375 29.890625 46.4375 
Q 38.671875 46.4375 44.84375 39.96875 
Q 51.03125 33.5 51.03125 23.25 
Q 51.03125 16.5 48.125 10.71875 
Q 45.21875 4.9375 40.140625 1.859375 
Q 35.0625 -1.21875 28.609375 -1.21875 
Q 17.625 -1.21875 10.6875 6.859375 
Q 3.765625 14.9375 3.765625 33.5 
Q 3.765625 54.25 11.421875 63.671875 
Q 18.109375 71.875 29.4375 71.875 
Q 37.890625 71.875 43.28125 67.140625 
Q 48.6875 62.40625 49.75 54.046875 
z
M 13.875 23.1875 
Q 13.875 18.65625 15.796875 14.5 
Q 17.71875 10.359375 21.1875 8.171875 
Q 24.65625 6 28.46875 6 
Q 34.03125 6 38.03125 10.484375 
Q 42.046875 14.984375 42.046875 22.703125 
Q 42.046875 30.125 38.078125 34.390625 
Q 34.125 38.671875 28.125 38.671875 
Q 22.171875 38.671875 18.015625 34.390625 
Q 13.875 30.125 13.875 23.1875 
z
" id="ArialMT-36"/>
      </defs>
      <g style="fill:#262626;" transform="translate(26.609219 124.582495)scale(0.11 -0.11)">
       <use xlink:href="#ArialMT-a3"/>
       <use x="55.615234" xlink:href="#ArialMT-36"/>
       <use x="111.230469" xlink:href="#ArialMT-30"/>
       <use x="166.845703" xlink:href="#ArialMT-62"/>
       <use x="222.460938" xlink:href="#ArialMT-6e"/>
      </g>
     </g>
    </g>
    <g id="ytick_5">
     <g id="line2d_25">
      <path clip-path="url(#pf2d9c69053)" d="M 66.694375 87.535857 
L 401.494375 87.535857 
" style="fill:none;opacity:0.125;stroke:#808080;stroke-dasharray:3.7,1.6;stroke-dashoffset:0;"/>
     </g>
     <g id="line2d_26">
      <g>
       <use style="fill:#262626;stroke:#262626;stroke-width:1.25;" x="66.694375" xlink:href="#m5bba3dcc1b" y="87.535857"/>
      </g>
     </g>
     <g id="text_14">
      <!-- £80bn -->
      <g style="fill:#262626;" transform="translate(26.609219 91.472653)scale(0.11 -0.11)">
       <use xlink:href="#ArialMT-a3"/>
       <use x="55.615234" xlink:href="#ArialMT-38"/>
       <use x="111.230469" xlink:href="#ArialMT-30"/>
       <use x="166.845703" xlink:href="#ArialMT-62"/>
       <use x="222.460938" xlink:href="#ArialMT-6e"/>
      </g>
     </g>
    </g>
    <g id="ytick_6">
     <g id="line2d_27">
      <path clip-path="url(#pf2d9c69053)" d="M 66.694375 54.426015 
L 401.494375 54.426015 
" style="fill:none;opacity:0.125;stroke:#808080;stroke-dasharray:3.7,1.6;stroke-dashoffset:0;"/>
     </g>
     <g id="line2d_28">
      <g>
       <use style="fill:#262626;stroke:#262626;stroke-width:1.25;" x="66.694375" xlink:href="#m5bba3dcc1b" y="54.426015"/>
      </g>
     </g>
     <g id="text_15">
      <!-- £100bn -->
      <g style="fill:#262626;" transform="translate(20.492188 58.362812)scale(0.11 -0.11)">
       <use xlink:href="#ArialMT-a3"/>
       <use x="55.615234" xlink:href="#ArialMT-31"/>
       <use x="111.230469" xlink:href="#ArialMT-30"/>
       <use x="166.845703" xlink:href="#ArialMT-30"/>
       <use x="222.460938" xlink:href="#ArialMT-62"/>
       <use x="278.076172" xlink:href="#ArialMT-6e"/>
      </g>
     </g>
    </g>
    <g id="ytick_7">
     <g id="line2d_29">
      <path clip-path="url(#pf2d9c69053)" d="M 66.694375 21.316174 
L 401.494375 21.316174 
" style="fill:none;opacity:0.125;stroke:#808080;stroke-dasharray:3.7,1.6;stroke-dashoffset:0;"/>
     </g>
     <g id="line2d_30">
      <g>
       <use style="fill:#262626;stroke:#262626;stroke-width:1.25;" x="66.694375" xlink:href="#m5bba3dcc1b" y="21.316174"/>
      </g>
     </g>
     <g id="text_16">
      <!-- £120bn -->
      <g style="fill:#262626;" transform="translate(20.492188 25.252971)scale(0.11 -0.11)">
       <use xlink:href="#ArialMT-a3"/>
       <use x="55.615234" xlink:href="#ArialMT-31"/>
       <use x="111.230469" xlink:href="#ArialMT-32"/>
       <use x="166.845703" xlink:href="#ArialMT-30"/>
       <use x="222.460938" xlink:href="#ArialMT-62"/>
       <use x="278.076172" xlink:href="#ArialMT-6e"/>
      </g>
     </g>
    </g>
    <g id="text_17">
     <!-- centgovspend: 2017-2018 -->
     <defs>
      <path d="M 40.4375 19 
L 49.078125 17.875 
Q 47.65625 8.9375 41.8125 3.875 
Q 35.984375 -1.171875 27.484375 -1.171875 
Q 16.84375 -1.171875 10.375 5.78125 
Q 3.90625 12.75 3.90625 25.734375 
Q 3.90625 34.125 6.6875 40.421875 
Q 9.46875 46.734375 15.15625 49.875 
Q 20.84375 53.03125 27.546875 53.03125 
Q 35.984375 53.03125 41.359375 48.75 
Q 46.734375 44.484375 48.25 36.625 
L 39.703125 35.296875 
Q 38.484375 40.53125 35.375 43.15625 
Q 32.28125 45.796875 27.875 45.796875 
Q 21.234375 45.796875 17.078125 41.03125 
Q 12.9375 36.28125 12.9375 25.984375 
Q 12.9375 15.53125 16.9375 10.796875 
Q 20.953125 6.0625 27.390625 6.0625 
Q 32.5625 6.0625 36.03125 9.234375 
Q 39.5 12.40625 40.4375 19 
z
" id="ArialMT-63"/>
      <path d="M 42.09375 16.703125 
L 51.171875 15.578125 
Q 49.03125 7.625 43.21875 3.21875 
Q 37.40625 -1.171875 28.375 -1.171875 
Q 17 -1.171875 10.328125 5.828125 
Q 3.65625 12.84375 3.65625 25.484375 
Q 3.65625 38.578125 10.390625 45.796875 
Q 17.140625 53.03125 27.875 53.03125 
Q 38.28125 53.03125 44.875 45.953125 
Q 51.46875 38.875 51.46875 26.03125 
Q 51.46875 25.25 51.421875 23.6875 
L 12.75 23.6875 
Q 13.234375 15.140625 17.578125 10.59375 
Q 21.921875 6.0625 28.421875 6.0625 
Q 33.25 6.0625 36.671875 8.59375 
Q 40.09375 11.140625 42.09375 16.703125 
z
M 13.234375 30.90625 
L 42.1875 30.90625 
Q 41.609375 37.453125 38.875 40.71875 
Q 34.671875 45.796875 27.984375 45.796875 
Q 21.921875 45.796875 17.796875 41.75 
Q 13.671875 37.703125 13.234375 30.90625 
z
" id="ArialMT-65"/>
      <path d="M 25.78125 7.859375 
L 27.046875 0.09375 
Q 23.34375 -0.6875 20.40625 -0.6875 
Q 15.625 -0.6875 12.984375 0.828125 
Q 10.359375 2.34375 9.28125 4.8125 
Q 8.203125 7.28125 8.203125 15.1875 
L 8.203125 45.015625 
L 1.765625 45.015625 
L 1.765625 51.859375 
L 8.203125 51.859375 
L 8.203125 64.703125 
L 16.9375 69.96875 
L 16.9375 51.859375 
L 25.78125 51.859375 
L 25.78125 45.015625 
L 16.9375 45.015625 
L 16.9375 14.703125 
Q 16.9375 10.9375 17.40625 9.859375 
Q 17.875 8.796875 18.921875 8.15625 
Q 19.96875 7.515625 21.921875 7.515625 
Q 23.390625 7.515625 25.78125 7.859375 
z
" id="ArialMT-74"/>
      <path d="M 4.984375 -4.296875 
L 13.53125 -5.5625 
Q 14.0625 -9.515625 16.5 -11.328125 
Q 19.78125 -13.765625 25.4375 -13.765625 
Q 31.546875 -13.765625 34.859375 -11.328125 
Q 38.1875 -8.890625 39.359375 -4.5 
Q 40.046875 -1.8125 39.984375 6.78125 
Q 34.234375 0 25.640625 0 
Q 14.9375 0 9.078125 7.71875 
Q 3.21875 15.4375 3.21875 26.21875 
Q 3.21875 33.640625 5.90625 39.90625 
Q 8.59375 46.1875 13.6875 49.609375 
Q 18.796875 53.03125 25.6875 53.03125 
Q 34.859375 53.03125 40.828125 45.609375 
L 40.828125 51.859375 
L 48.921875 51.859375 
L 48.921875 7.03125 
Q 48.921875 -5.078125 46.453125 -10.125 
Q 44 -15.1875 38.640625 -18.109375 
Q 33.296875 -21.046875 25.484375 -21.046875 
Q 16.21875 -21.046875 10.5 -16.875 
Q 4.78125 -12.703125 4.984375 -4.296875 
z
M 12.25 26.859375 
Q 12.25 16.65625 16.296875 11.96875 
Q 20.359375 7.28125 26.46875 7.28125 
Q 32.515625 7.28125 36.609375 11.9375 
Q 40.71875 16.609375 40.71875 26.5625 
Q 40.71875 36.078125 36.5 40.90625 
Q 32.28125 45.75 26.3125 45.75 
Q 20.453125 45.75 16.34375 40.984375 
Q 12.25 36.234375 12.25 26.859375 
z
" id="ArialMT-67"/>
      <path d="M 3.328125 25.921875 
Q 3.328125 40.328125 11.328125 47.265625 
Q 18.015625 53.03125 27.640625 53.03125 
Q 38.328125 53.03125 45.109375 46.015625 
Q 51.90625 39.015625 51.90625 26.65625 
Q 51.90625 16.65625 48.90625 10.90625 
Q 45.90625 5.171875 40.15625 2 
Q 34.421875 -1.171875 27.640625 -1.171875 
Q 16.75 -1.171875 10.03125 5.8125 
Q 3.328125 12.796875 3.328125 25.921875 
z
M 12.359375 25.921875 
Q 12.359375 15.96875 16.703125 11.015625 
Q 21.046875 6.0625 27.640625 6.0625 
Q 34.1875 6.0625 38.53125 11.03125 
Q 42.875 16.015625 42.875 26.21875 
Q 42.875 35.84375 38.5 40.796875 
Q 34.125 45.75 27.640625 45.75 
Q 21.046875 45.75 16.703125 40.8125 
Q 12.359375 35.890625 12.359375 25.921875 
z
" id="ArialMT-6f"/>
      <path d="M 21 0 
L 1.265625 51.859375 
L 10.546875 51.859375 
L 21.6875 20.796875 
Q 23.484375 15.765625 25 10.359375 
Q 26.171875 14.453125 28.265625 20.21875 
L 39.796875 51.859375 
L 48.828125 51.859375 
L 29.203125 0 
z
" id="ArialMT-76"/>
      <path d="M 3.078125 15.484375 
L 11.765625 16.84375 
Q 12.5 11.625 15.84375 8.84375 
Q 19.1875 6.0625 25.203125 6.0625 
Q 31.25 6.0625 34.171875 8.515625 
Q 37.109375 10.984375 37.109375 14.3125 
Q 37.109375 17.28125 34.515625 19 
Q 32.71875 20.171875 25.53125 21.96875 
Q 15.875 24.421875 12.140625 26.203125 
Q 8.40625 27.984375 6.46875 31.125 
Q 4.546875 34.28125 4.546875 38.09375 
Q 4.546875 41.546875 6.125 44.5 
Q 7.71875 47.46875 10.453125 49.421875 
Q 12.5 50.921875 16.03125 51.96875 
Q 19.578125 53.03125 23.640625 53.03125 
Q 29.734375 53.03125 34.34375 51.265625 
Q 38.96875 49.515625 41.15625 46.5 
Q 43.359375 43.5 44.1875 38.484375 
L 35.59375 37.3125 
Q 35.015625 41.3125 32.203125 43.546875 
Q 29.390625 45.796875 24.265625 45.796875 
Q 18.21875 45.796875 15.625 43.796875 
Q 13.03125 41.796875 13.03125 39.109375 
Q 13.03125 37.40625 14.109375 36.03125 
Q 15.1875 34.625 17.484375 33.6875 
Q 18.796875 33.203125 25.25 31.453125 
Q 34.578125 28.953125 38.25 27.359375 
Q 41.9375 25.78125 44.03125 22.75 
Q 46.140625 19.734375 46.140625 15.234375 
Q 46.140625 10.84375 43.578125 6.953125 
Q 41.015625 3.078125 36.171875 0.953125 
Q 31.34375 -1.171875 25.25 -1.171875 
Q 15.140625 -1.171875 9.84375 3.03125 
Q 4.546875 7.234375 3.078125 15.484375 
z
" id="ArialMT-73"/>
      <path d="M 6.59375 -19.875 
L 6.59375 51.859375 
L 14.59375 51.859375 
L 14.59375 45.125 
Q 17.4375 49.078125 21 51.046875 
Q 24.5625 53.03125 29.640625 53.03125 
Q 36.28125 53.03125 41.359375 49.609375 
Q 46.4375 46.1875 49.015625 39.953125 
Q 51.609375 33.734375 51.609375 26.3125 
Q 51.609375 18.359375 48.75 11.984375 
Q 45.90625 5.609375 40.453125 2.21875 
Q 35.015625 -1.171875 29 -1.171875 
Q 24.609375 -1.171875 21.109375 0.6875 
Q 17.625 2.546875 15.375 5.375 
L 15.375 -19.875 
z
M 14.546875 25.640625 
Q 14.546875 15.625 18.59375 10.84375 
Q 22.65625 6.0625 28.421875 6.0625 
Q 34.28125 6.0625 38.453125 11.015625 
Q 42.625 15.96875 42.625 26.375 
Q 42.625 36.28125 38.546875 41.203125 
Q 34.46875 46.140625 28.8125 46.140625 
Q 23.1875 46.140625 18.859375 40.890625 
Q 14.546875 35.640625 14.546875 25.640625 
z
" id="ArialMT-70"/>
      <path d="M 40.234375 0 
L 40.234375 6.546875 
Q 35.296875 -1.171875 25.734375 -1.171875 
Q 19.53125 -1.171875 14.328125 2.25 
Q 9.125 5.671875 6.265625 11.796875 
Q 3.421875 17.921875 3.421875 25.875 
Q 3.421875 33.640625 6 39.96875 
Q 8.59375 46.296875 13.765625 49.65625 
Q 18.953125 53.03125 25.34375 53.03125 
Q 30.03125 53.03125 33.6875 51.046875 
Q 37.359375 49.078125 39.65625 45.90625 
L 39.65625 71.578125 
L 48.390625 71.578125 
L 48.390625 0 
z
M 12.453125 25.875 
Q 12.453125 15.921875 16.640625 10.984375 
Q 20.84375 6.0625 26.5625 6.0625 
Q 32.328125 6.0625 36.34375 10.765625 
Q 40.375 15.484375 40.375 25.140625 
Q 40.375 35.796875 36.265625 40.765625 
Q 32.171875 45.75 26.171875 45.75 
Q 20.3125 45.75 16.375 40.96875 
Q 12.453125 36.1875 12.453125 25.875 
z
" id="ArialMT-64"/>
     </defs>
     <g style="fill:#262626;" transform="translate(14.3875 179.739531)rotate(-90)scale(0.1 -0.1)">
      <use xlink:href="#ArialMT-63"/>
      <use x="50" xlink:href="#ArialMT-65"/>
      <use x="105.615234" xlink:href="#ArialMT-6e"/>
      <use x="161.230469" xlink:href="#ArialMT-74"/>
      <use x="189.013672" xlink:href="#ArialMT-67"/>
      <use x="244.628906" xlink:href="#ArialMT-6f"/>
      <use x="300.244141" xlink:href="#ArialMT-76"/>
      <use x="350.244141" xlink:href="#ArialMT-73"/>
      <use x="400.244141" xlink:href="#ArialMT-70"/>
      <use x="455.859375" xlink:href="#ArialMT-65"/>
      <use x="511.474609" xlink:href="#ArialMT-6e"/>
      <use x="567.089844" xlink:href="#ArialMT-64"/>
      <use x="622.705078" xlink:href="#ArialMT-3a"/>
      <use x="650.488281" xlink:href="#ArialMT-20"/>
      <use x="678.271484" xlink:href="#ArialMT-32"/>
      <use x="733.886719" xlink:href="#ArialMT-30"/>
      <use x="789.501953" xlink:href="#ArialMT-31"/>
      <use x="845.117188" xlink:href="#ArialMT-37"/>
      <use x="900.732422" xlink:href="#ArialMT-2d"/>
      <use x="934.033203" xlink:href="#ArialMT-32"/>
      <use x="989.648438" xlink:href="#ArialMT-30"/>
      <use x="1045.263672" xlink:href="#ArialMT-31"/>
      <use x="1100.878906" xlink:href="#ArialMT-38"/>
     </g>
    </g>
   </g>
   <g id="PathCollection_1">
    <path clip-path="url(#pf2d9c69053)" d="M 82.349932 220.915143 
C 82.778628 220.915143 83.189823 220.74482 83.492957 220.441686 
C 83.796091 220.138552 83.966414 219.727357 83.966414 219.298661 
C 83.966414 218.869965 83.796091 218.458769 83.492957 218.155635 
C 83.189823 217.852501 82.778628 217.682179 82.349932 217.682179 
C 81.921236 217.682179 81.51004 217.852501 81.206906 218.155635 
C 80.903772 218.458769 80.73345 218.869965 80.73345 219.298661 
C 80.73345 219.727357 80.903772 220.138552 81.206906 220.441686 
C 81.51004 220.74482 81.921236 220.915143 82.349932 220.915143 
z
" style="fill:#377eb8;fill-opacity:0.5;stroke:#1a1a1a;stroke-opacity:0.5;"/>
    <path clip-path="url(#pf2d9c69053)" d="M 85.280026 217.402713 
C 85.965008 217.402713 86.622026 217.130567 87.106381 216.646212 
C 87.590736 216.161856 87.862883 215.504838 87.862883 214.819856 
C 87.862883 214.134875 87.590736 213.477856 87.106381 212.993501 
C 86.622026 212.509146 85.965008 212.237 85.280026 212.237 
C 84.595045 212.237 83.938026 212.509146 83.453671 212.993501 
C 82.969316 213.477856 82.69717 214.134875 82.69717 214.819856 
C 82.69717 215.504838 82.969316 216.161856 83.453671 216.646212 
C 83.938026 217.130567 84.595045 217.402713 85.280026 217.402713 
z
" style="fill:#377eb8;fill-opacity:0.5;stroke:#1a1a1a;stroke-opacity:0.5;"/>
    <path clip-path="url(#pf2d9c69053)" d="M 85.535815 216.009056 
C 86.294594 216.009056 87.022398 215.70759 87.558936 215.171052 
C 88.095474 214.634514 88.39694 213.90671 88.39694 213.147931 
C 88.39694 212.389152 88.095474 211.661348 87.558936 211.12481 
C 87.022398 210.588272 86.294594 210.286806 85.535815 210.286806 
C 84.777036 210.286806 84.049232 210.588272 83.512694 211.12481 
C 82.976156 211.661348 82.67469 212.389152 82.67469 213.147931 
C 82.67469 213.90671 82.976156 214.634514 83.512694 215.171052 
C 84.049232 215.70759 84.777036 216.009056 85.535815 216.009056 
z
" style="fill:#377eb8;fill-opacity:0.5;stroke:#1a1a1a;stroke-opacity:0.5;"/>
    <path clip-path="url(#pf2d9c69053)" d="M 104.588807 185.899936 
C 106.234275 185.899936 107.812571 185.246184 108.976093 184.082662 
C 110.139615 182.91914 110.793366 181.340844 110.793366 179.695376 
C 110.793366 178.049907 110.139615 176.471611 108.976093 175.30809 
C 107.812571 174.144568 106.234275 173.490816 104.588807 173.490816 
C 102.943338 173.490816 101.365042 174.144568 100.20152 175.30809 
C 99.037999 176.471611 98.384247 178.049907 98.384247 179.695376 
C 98.384247 181.340844 99.037999 182.91914 100.20152 184.082662 
C 101.365042 185.246184 102.943338 185.899936 104.588807 185.899936 
z
" style="fill:#377eb8;fill-opacity:0.5;stroke:#1a1a1a;stroke-opacity:0.5;"/>
    <path clip-path="url(#pf2d9c69053)" d="M 118.439118 182.504551 
C 120.153938 182.504551 121.798755 181.823245 123.011316 180.610684 
C 124.223877 179.398124 124.905182 177.753307 124.905182 176.038487 
C 124.905182 174.323667 124.223877 172.678851 123.011316 171.46629 
C 121.798755 170.253729 120.153938 169.572424 118.439118 169.572424 
C 116.724298 169.572424 115.079482 170.253729 113.866921 171.46629 
C 112.65436 172.678851 111.973055 174.323667 111.973055 176.038487 
C 111.973055 177.753307 112.65436 179.398124 113.866921 180.610684 
C 115.079482 181.823245 116.724298 182.504551 118.439118 182.504551 
z
" style="fill:#377eb8;fill-opacity:0.5;stroke:#1a1a1a;stroke-opacity:0.5;"/>
    <path clip-path="url(#pf2d9c69053)" d="M 239.573186 65.749975 
C 242.85298 65.749975 245.998883 64.4469 248.318047 62.127736 
C 250.637211 59.808571 251.940287 56.662668 251.940287 53.382875 
C 251.940287 50.103082 250.637211 46.957179 248.318047 44.638015 
C 245.998883 42.318851 242.85298 41.015775 239.573186 41.015775 
C 236.293393 41.015775 233.14749 42.318851 230.828326 44.638015 
C 228.509162 46.957179 227.206086 50.103082 227.206086 53.382875 
C 227.206086 56.662668 228.509162 59.808571 230.828326 62.127736 
C 233.14749 64.4469 236.293393 65.749975 239.573186 65.749975 
z
" style="fill:#377eb8;fill-opacity:0.5;stroke:#1a1a1a;stroke-opacity:0.5;"/>
   </g>
   <g id="PathCollection_2">
    <path clip-path="url(#pf2d9c69053)" d="M 82.728696 221.009226 
C 83.147518 221.009226 83.549243 220.842826 83.845395 220.546674 
C 84.141547 220.250522 84.307947 219.848798 84.307947 219.429975 
C 84.307947 219.011153 84.141547 218.609428 83.845395 218.313276 
C 83.549243 218.017124 83.147518 217.850724 82.728696 217.850724 
C 82.309874 217.850724 81.908149 218.017124 81.611997 218.313276 
C 81.315845 218.609428 81.149445 219.011153 81.149445 219.429975 
C 81.149445 219.848798 81.315845 220.250522 81.611997 220.546674 
C 81.908149 220.842826 82.309874 221.009226 82.728696 221.009226 
z
" style="fill:#ff7f00;fill-opacity:0.5;stroke:#1a1a1a;stroke-opacity:0.5;"/>
    <path clip-path="url(#pf2d9c69053)" d="M 93.932577 213.036098 
C 94.825581 213.036098 95.68213 212.681304 96.313579 212.049855 
C 96.945028 211.418406 97.299822 210.561857 97.299822 209.668853 
C 97.299822 208.775849 96.945028 207.9193 96.313579 207.287851 
C 95.68213 206.656401 94.825581 206.301607 93.932577 206.301607 
C 93.039573 206.301607 92.183024 206.656401 91.551575 207.287851 
C 90.920125 207.9193 90.565331 208.775849 90.565331 209.668853 
C 90.565331 210.561857 90.920125 211.418406 91.551575 212.049855 
C 92.183024 212.681304 93.039573 213.036098 93.932577 213.036098 
z
" style="fill:#ff7f00;fill-opacity:0.5;stroke:#1a1a1a;stroke-opacity:0.5;"/>
    <path clip-path="url(#pf2d9c69053)" d="M 95.56897 219.671587 
C 96.106789 219.671587 96.622653 219.457909 97.002949 219.077614 
C 97.383244 218.697318 97.596922 218.181454 97.596922 217.643635 
C 97.596922 217.105815 97.383244 216.589951 97.002949 216.209655 
C 96.622653 215.82936 96.106789 215.615682 95.56897 215.615682 
C 95.03115 215.615682 94.515286 215.82936 94.134991 216.209655 
C 93.754695 216.589951 93.541017 217.105815 93.541017 217.643635 
C 93.541017 218.181454 93.754695 218.697318 94.134991 219.077614 
C 94.515286 219.457909 95.03115 219.671587 95.56897 219.671587 
z
" style="fill:#ff7f00;fill-opacity:0.5;stroke:#1a1a1a;stroke-opacity:0.5;"/>
    <path clip-path="url(#pf2d9c69053)" d="M 100.606043 220.578004 
C 101.067785 220.578004 101.510678 220.394552 101.837179 220.068051 
C 102.16368 219.74155 102.347132 219.298657 102.347132 218.836915 
C 102.347132 218.375173 102.16368 217.93228 101.837179 217.605779 
C 101.510678 217.279278 101.067785 217.095826 100.606043 217.095826 
C 100.144301 217.095826 99.701408 217.279278 99.374907 217.605779 
C 99.048406 217.93228 98.864954 218.375173 98.864954 218.836915 
C 98.864954 219.298657 99.048406 219.74155 99.374907 220.068051 
C 99.701408 220.394552 100.144301 220.578004 100.606043 220.578004 
z
" style="fill:#ff7f00;fill-opacity:0.5;stroke:#1a1a1a;stroke-opacity:0.5;"/>
    <path clip-path="url(#pf2d9c69053)" d="M 100.087906 206.478154 
C 101.215637 206.478154 102.29733 206.030102 103.094755 205.232676 
C 103.892181 204.435251 104.340233 203.353558 104.340233 202.225827 
C 104.340233 201.098097 103.892181 200.016404 103.094755 199.218978 
C 102.29733 198.421553 101.215637 197.973501 100.087906 197.973501 
C 98.960176 197.973501 97.878483 198.421553 97.081057 199.218978 
C 96.283632 200.016404 95.83558 201.098097 95.83558 202.225827 
C 95.83558 203.353558 96.283632 204.435251 97.081057 205.232676 
C 97.878483 206.030102 98.960176 206.478154 100.087906 206.478154 
z
" style="fill:#ff7f00;fill-opacity:0.5;stroke:#1a1a1a;stroke-opacity:0.5;"/>
    <path clip-path="url(#pf2d9c69053)" d="M 223.283043 170.426153 
C 225.223272 170.426153 227.084295 169.655292 228.456244 168.283342 
C 229.828193 166.911393 230.599054 165.05037 230.599054 163.110141 
C 230.599054 161.169912 229.828193 159.308888 228.456244 157.936939 
C 227.084295 156.56499 225.223272 155.794129 223.283043 155.794129 
C 221.342813 155.794129 219.48179 156.56499 218.109841 157.936939 
C 216.737892 159.308888 215.967031 161.169912 215.967031 163.110141 
C 215.967031 165.05037 216.737892 166.911393 218.109841 168.283342 
C 219.48179 169.655292 221.342813 170.426153 223.283043 170.426153 
z
" style="fill:#ff7f00;fill-opacity:0.5;stroke:#1a1a1a;stroke-opacity:0.5;"/>
    <path clip-path="url(#pf2d9c69053)" d="M 134.016005 216.484274 
C 134.750617 216.484274 135.45524 216.192409 135.974689 215.67296 
C 136.494138 215.153511 136.786002 214.448888 136.786002 213.714276 
C 136.786002 212.979664 136.494138 212.275041 135.974689 211.755592 
C 135.45524 211.236143 134.750617 210.944279 134.016005 210.944279 
C 133.281393 210.944279 132.57677 211.236143 132.057321 211.755592 
C 131.537872 212.275041 131.246008 212.979664 131.246008 213.714276 
C 131.246008 214.448888 131.537872 215.153511 132.057321 215.67296 
C 132.57677 216.192409 133.281393 216.484274 134.016005 216.484274 
z
" style="fill:#ff7f00;fill-opacity:0.5;stroke:#1a1a1a;stroke-opacity:0.5;"/>
    <path clip-path="url(#pf2d9c69053)" d="M 169.452602 208.141757 
C 170.526273 208.141757 171.556114 207.715183 172.315314 206.955983 
C 173.074514 206.196783 173.501088 205.166942 173.501088 204.093271 
C 173.501088 203.0196 173.074514 201.98976 172.315314 201.23056 
C 171.556114 200.471359 170.526273 200.044785 169.452602 200.044785 
C 168.378931 200.044785 167.34909 200.471359 166.58989 201.23056 
C 165.83069 201.98976 165.404116 203.0196 165.404116 204.093271 
C 165.404116 205.166942 165.83069 206.196783 166.58989 206.955983 
C 167.34909 207.715183 168.378931 208.141757 169.452602 208.141757 
z
" style="fill:#ff7f00;fill-opacity:0.5;stroke:#1a1a1a;stroke-opacity:0.5;"/>
    <path clip-path="url(#pf2d9c69053)" d="M 157.135384 218.73664 
C 157.739299 218.73664 158.31856 218.496702 158.745592 218.06967 
C 159.172624 217.642638 159.412562 217.063376 159.412562 216.459462 
C 159.412562 215.855547 159.172624 215.276285 158.745592 214.849253 
C 158.31856 214.422221 157.739299 214.182283 157.135384 214.182283 
C 156.531469 214.182283 155.952208 214.422221 155.525176 214.849253 
C 155.098143 215.276285 154.858205 215.855547 154.858205 216.459462 
C 154.858205 217.063376 155.098143 217.642638 155.525176 218.06967 
C 155.952208 218.496702 156.531469 218.73664 157.135384 218.73664 
z
" style="fill:#ff7f00;fill-opacity:0.5;stroke:#1a1a1a;stroke-opacity:0.5;"/>
    <path clip-path="url(#pf2d9c69053)" d="M 352.328529 47.105429 
C 355.791059 47.105429 359.112238 45.729752 361.560616 43.281374 
C 364.008994 40.832996 365.384671 37.511816 365.384671 34.049287 
C 365.384671 30.586758 364.008994 27.265578 361.560616 24.8172 
C 359.112238 22.368823 355.791059 20.993145 352.328529 20.993145 
C 348.866 20.993145 345.544821 22.368823 343.096443 24.8172 
C 340.648065 27.265578 339.272387 30.586758 339.272387 34.049287 
C 339.272387 37.511816 340.648065 40.832996 343.096443 43.281374 
C 345.544821 45.729752 348.866 47.105429 352.328529 47.105429 
z
" style="fill:#ff7f00;fill-opacity:0.5;stroke:#1a1a1a;stroke-opacity:0.5;"/>
    <path clip-path="url(#pf2d9c69053)" d="M 383.072384 185.964724 
C 384.716499 185.964724 386.293496 185.311511 387.45606 184.148946 
C 388.618625 182.986382 389.271838 181.409384 389.271838 179.76527 
C 389.271838 178.121155 388.618625 176.544158 387.45606 175.381594 
C 386.293496 174.219029 384.716499 173.565816 383.072384 173.565816 
C 381.42827 173.565816 379.851273 174.219029 378.688708 175.381594 
C 377.526144 176.544158 376.87293 178.121155 376.87293 179.76527 
C 376.87293 181.409384 377.526144 182.986382 378.688708 184.148946 
C 379.851273 185.311511 381.42827 185.964724 383.072384 185.964724 
z
" style="fill:#ff7f00;fill-opacity:0.5;stroke:#1a1a1a;stroke-opacity:0.5;"/>
   </g>
   <g id="patch_3">
    <path d="M 66.694375 230.64 
L 66.694375 13.2 
" style="fill:none;stroke:#262626;stroke-linecap:square;stroke-linejoin:miter;stroke-width:1.25;"/>
   </g>
   <g id="patch_4">
    <path d="M 66.694375 230.64 
L 401.494375 230.64 
" style="fill:none;stroke:#262626;stroke-linecap:square;stroke-linejoin:miter;stroke-width:1.25;"/>
   </g>
   <g id="text_18">
    <!-- HMT -->
    <defs>
     <path d="M 8.015625 0 
L 8.015625 71.578125 
L 17.484375 71.578125 
L 17.484375 42.1875 
L 54.6875 42.1875 
L 54.6875 71.578125 
L 64.15625 71.578125 
L 64.15625 0 
L 54.6875 0 
L 54.6875 33.734375 
L 17.484375 33.734375 
L 17.484375 0 
z
" id="ArialMT-48"/>
     <path d="M 7.421875 0 
L 7.421875 71.578125 
L 21.6875 71.578125 
L 38.625 20.90625 
Q 40.96875 13.8125 42.046875 10.296875 
Q 43.265625 14.203125 45.84375 21.78125 
L 62.984375 71.578125 
L 75.734375 71.578125 
L 75.734375 0 
L 66.609375 0 
L 66.609375 59.90625 
L 45.796875 0 
L 37.25 0 
L 16.546875 60.9375 
L 16.546875 0 
z
" id="ArialMT-4d"/>
     <path d="M 25.921875 0 
L 25.921875 63.140625 
L 2.34375 63.140625 
L 2.34375 71.578125 
L 59.078125 71.578125 
L 59.078125 63.140625 
L 35.40625 63.140625 
L 35.40625 0 
z
" id="ArialMT-54"/>
    </defs>
    <g style="fill:#262626;opacity:0.7;" transform="translate(82.349932 219.298661)scale(0.070341 -0.070341)">
     <use xlink:href="#ArialMT-48"/>
     <use x="72.216797" xlink:href="#ArialMT-4d"/>
     <use x="155.517578" xlink:href="#ArialMT-54"/>
    </g>
   </g>
   <g id="text_19">
    <!-- DIT -->
    <defs>
     <path d="M 7.71875 0 
L 7.71875 71.578125 
L 32.375 71.578125 
Q 40.71875 71.578125 45.125 70.5625 
Q 51.265625 69.140625 55.609375 65.4375 
Q 61.28125 60.640625 64.078125 53.1875 
Q 66.890625 45.75 66.890625 36.1875 
Q 66.890625 28.03125 64.984375 21.734375 
Q 63.09375 15.4375 60.109375 11.296875 
Q 57.125 7.171875 53.578125 4.796875 
Q 50.046875 2.4375 45.046875 1.21875 
Q 40.046875 0 33.546875 0 
z
M 17.1875 8.453125 
L 32.46875 8.453125 
Q 39.546875 8.453125 43.578125 9.765625 
Q 47.609375 11.078125 50 13.484375 
Q 53.375 16.84375 55.25 22.53125 
Q 57.125 28.21875 57.125 36.328125 
Q 57.125 47.5625 53.4375 53.59375 
Q 49.75 59.625 44.484375 61.671875 
Q 40.671875 63.140625 32.234375 63.140625 
L 17.1875 63.140625 
z
" id="ArialMT-44"/>
     <path d="M 9.328125 0 
L 9.328125 71.578125 
L 18.796875 71.578125 
L 18.796875 0 
z
" id="ArialMT-49"/>
    </defs>
    <g style="fill:#262626;opacity:0.7;" transform="translate(82.728696 219.429975)scale(0.070274 -0.070274)">
     <use xlink:href="#ArialMT-44"/>
     <use x="72.216797" xlink:href="#ArialMT-49"/>
     <use x="100" xlink:href="#ArialMT-54"/>
    </g>
   </g>
   <g id="text_20">
    <!-- FO -->
    <defs>
     <path d="M 8.203125 0 
L 8.203125 71.578125 
L 56.5 71.578125 
L 56.5 63.140625 
L 17.671875 63.140625 
L 17.671875 40.96875 
L 51.265625 40.96875 
L 51.265625 32.515625 
L 17.671875 32.515625 
L 17.671875 0 
z
" id="ArialMT-46"/>
     <path d="M 4.828125 34.859375 
Q 4.828125 52.6875 14.390625 62.765625 
Q 23.96875 72.859375 39.109375 72.859375 
Q 49.03125 72.859375 56.984375 68.109375 
Q 64.9375 63.375 69.109375 54.90625 
Q 73.296875 46.4375 73.296875 35.6875 
Q 73.296875 24.8125 68.890625 16.21875 
Q 64.5 7.625 56.4375 3.203125 
Q 48.390625 -1.21875 39.0625 -1.21875 
Q 28.953125 -1.21875 20.984375 3.65625 
Q 13.03125 8.546875 8.921875 16.984375 
Q 4.828125 25.4375 4.828125 34.859375 
z
M 14.59375 34.71875 
Q 14.59375 21.78125 21.546875 14.328125 
Q 28.515625 6.890625 39.015625 6.890625 
Q 49.703125 6.890625 56.609375 14.40625 
Q 63.53125 21.921875 63.53125 35.75 
Q 63.53125 44.484375 60.578125 51 
Q 57.625 57.515625 51.921875 61.109375 
Q 46.234375 64.703125 39.15625 64.703125 
Q 29.109375 64.703125 21.84375 57.78125 
Q 14.59375 50.875 14.59375 34.71875 
z
" id="ArialMT-4f"/>
    </defs>
    <g style="fill:#262626;opacity:0.7;" transform="translate(85.280026 214.819856)scale(0.072595 -0.072595)">
     <use xlink:href="#ArialMT-46"/>
     <use x="61.083984" xlink:href="#ArialMT-4f"/>
    </g>
   </g>
   <g id="text_21">
    <!-- DEFRA -->
    <defs>
     <path d="M 7.859375 0 
L 7.859375 71.578125 
L 39.59375 71.578125 
Q 49.171875 71.578125 54.140625 69.640625 
Q 59.125 67.71875 62.109375 62.828125 
Q 65.09375 57.953125 65.09375 52.046875 
Q 65.09375 44.4375 60.15625 39.203125 
Q 55.21875 33.984375 44.921875 32.5625 
Q 48.6875 30.765625 50.640625 29 
Q 54.78125 25.203125 58.5 19.484375 
L 70.953125 0 
L 59.03125 0 
L 49.5625 14.890625 
Q 45.40625 21.34375 42.71875 24.75 
Q 40.046875 28.171875 37.921875 29.53125 
Q 35.796875 30.90625 33.59375 31.453125 
Q 31.984375 31.78125 28.328125 31.78125 
L 17.328125 31.78125 
L 17.328125 0 
z
M 17.328125 39.984375 
L 37.703125 39.984375 
Q 44.1875 39.984375 47.84375 41.328125 
Q 51.515625 42.671875 53.421875 45.625 
Q 55.328125 48.578125 55.328125 52.046875 
Q 55.328125 57.125 51.640625 60.390625 
Q 47.953125 63.671875 39.984375 63.671875 
L 17.328125 63.671875 
z
" id="ArialMT-52"/>
    </defs>
    <g style="fill:#262626;opacity:0.7;" transform="translate(85.535815 213.147931)scale(0.073437 -0.073437)">
     <use xlink:href="#ArialMT-44"/>
     <use x="72.216797" xlink:href="#ArialMT-45"/>
     <use x="138.916016" xlink:href="#ArialMT-46"/>
     <use x="200" xlink:href="#ArialMT-52"/>
     <use x="272.216797" xlink:href="#ArialMT-41"/>
    </g>
   </g>
   <g id="text_22">
    <!-- DCMS -->
    <defs>
     <path d="M 58.796875 25.09375 
L 68.265625 22.703125 
Q 65.28125 11.03125 57.546875 4.90625 
Q 49.8125 -1.21875 38.625 -1.21875 
Q 27.046875 -1.21875 19.796875 3.484375 
Q 12.546875 8.203125 8.765625 17.140625 
Q 4.984375 26.078125 4.984375 36.328125 
Q 4.984375 47.515625 9.25 55.828125 
Q 13.53125 64.15625 21.40625 68.46875 
Q 29.296875 72.796875 38.765625 72.796875 
Q 49.515625 72.796875 56.828125 67.328125 
Q 64.15625 61.859375 67.046875 51.953125 
L 57.71875 49.75 
Q 55.21875 57.5625 50.484375 61.125 
Q 45.75 64.703125 38.578125 64.703125 
Q 30.328125 64.703125 24.78125 60.734375 
Q 19.234375 56.78125 16.984375 50.109375 
Q 14.75 43.453125 14.75 36.375 
Q 14.75 27.25 17.40625 20.4375 
Q 20.0625 13.625 25.671875 10.25 
Q 31.296875 6.890625 37.84375 6.890625 
Q 45.796875 6.890625 51.3125 11.46875 
Q 56.84375 16.0625 58.796875 25.09375 
z
" id="ArialMT-43"/>
    </defs>
    <g style="fill:#262626;opacity:0.7;" transform="translate(93.932577 209.668853)scale(0.075188 -0.075188)">
     <use xlink:href="#ArialMT-44"/>
     <use x="72.216797" xlink:href="#ArialMT-43"/>
     <use x="144.433594" xlink:href="#ArialMT-4d"/>
     <use x="227.734375" xlink:href="#ArialMT-53"/>
    </g>
   </g>
   <g id="text_23">
    <!-- MOJ -->
    <defs>
     <path d="M 2.875 20.3125 
L 11.421875 21.484375 
Q 11.765625 13.28125 14.5 10.25 
Q 17.234375 7.234375 22.078125 7.234375 
Q 25.640625 7.234375 28.21875 8.859375 
Q 30.8125 10.5 31.78125 13.296875 
Q 32.765625 16.109375 32.765625 22.265625 
L 32.765625 71.578125 
L 42.234375 71.578125 
L 42.234375 22.796875 
Q 42.234375 13.8125 40.0625 8.875 
Q 37.890625 3.953125 33.171875 1.359375 
Q 28.46875 -1.21875 22.125 -1.21875 
Q 12.703125 -1.21875 7.6875 4.203125 
Q 2.6875 9.625 2.875 20.3125 
z
" id="ArialMT-4a"/>
    </defs>
    <g style="fill:#262626;opacity:0.7;" transform="translate(95.56897 217.643635)scale(0.071174 -0.071174)">
     <use xlink:href="#ArialMT-4d"/>
     <use x="83.300781" xlink:href="#ArialMT-4f"/>
     <use x="161.083984" xlink:href="#ArialMT-4a"/>
    </g>
   </g>
   <g id="text_24">
    <!-- CO -->
    <g style="fill:#262626;opacity:0.7;" transform="translate(100.606043 218.836915)scale(0.070573 -0.070573)">
     <use xlink:href="#ArialMT-43"/>
     <use x="72.216797" xlink:href="#ArialMT-4f"/>
    </g>
   </g>
   <g id="text_25">
    <!-- DID -->
    <g style="fill:#262626;opacity:0.7;" transform="translate(100.087906 202.225827)scale(0.078935 -0.078935)">
     <use xlink:href="#ArialMT-44"/>
     <use x="72.216797" xlink:href="#ArialMT-49"/>
     <use x="100" xlink:href="#ArialMT-44"/>
    </g>
   </g>
   <g id="text_26">
    <!-- HO -->
    <g style="fill:#262626;opacity:0.7;" transform="translate(104.588807 179.695376)scale(0.090276 -0.090276)">
     <use xlink:href="#ArialMT-48"/>
     <use x="72.216797" xlink:href="#ArialMT-4f"/>
    </g>
   </g>
   <g id="text_27">
    <!-- BEIS -->
    <defs>
     <path d="M 7.328125 0 
L 7.328125 71.578125 
L 34.1875 71.578125 
Q 42.390625 71.578125 47.34375 69.40625 
Q 52.296875 67.234375 55.09375 62.71875 
Q 57.90625 58.203125 57.90625 53.265625 
Q 57.90625 48.6875 55.421875 44.625 
Q 52.9375 40.578125 47.90625 38.09375 
Q 54.390625 36.1875 57.875 31.59375 
Q 61.375 27 61.375 20.75 
Q 61.375 15.71875 59.25 11.390625 
Q 57.125 7.078125 54 4.734375 
Q 50.875 2.390625 46.15625 1.1875 
Q 41.453125 0 34.625 0 
z
M 16.796875 41.5 
L 32.28125 41.5 
Q 38.578125 41.5 41.3125 42.328125 
Q 44.921875 43.40625 46.75 45.890625 
Q 48.578125 48.390625 48.578125 52.15625 
Q 48.578125 55.71875 46.875 58.421875 
Q 45.171875 61.140625 41.984375 62.140625 
Q 38.8125 63.140625 31.109375 63.140625 
L 16.796875 63.140625 
z
M 16.796875 8.453125 
L 34.625 8.453125 
Q 39.203125 8.453125 41.0625 8.796875 
Q 44.34375 9.375 46.53125 10.734375 
Q 48.734375 12.109375 50.140625 14.71875 
Q 51.5625 17.328125 51.5625 20.75 
Q 51.5625 24.75 49.515625 27.703125 
Q 47.46875 30.671875 43.828125 31.859375 
Q 40.1875 33.0625 33.34375 33.0625 
L 16.796875 33.0625 
z
" id="ArialMT-42"/>
    </defs>
    <g style="fill:#262626;opacity:0.7;" transform="translate(223.283043 163.110141)scale(0.098624 -0.098624)">
     <use xlink:href="#ArialMT-42"/>
     <use x="66.699219" xlink:href="#ArialMT-45"/>
     <use x="133.398438" xlink:href="#ArialMT-49"/>
     <use x="161.181641" xlink:href="#ArialMT-53"/>
    </g>
   </g>
   <g id="text_28">
    <!-- DT -->
    <g style="fill:#262626;opacity:0.7;" transform="translate(118.439118 176.038487)scale(0.092117 -0.092117)">
     <use xlink:href="#ArialMT-44"/>
     <use x="72.216797" xlink:href="#ArialMT-54"/>
    </g>
   </g>
   <g id="text_29">
    <!-- MHCLG -->
    <defs>
     <path d="M 7.328125 0 
L 7.328125 71.578125 
L 16.796875 71.578125 
L 16.796875 8.453125 
L 52.046875 8.453125 
L 52.046875 0 
z
" id="ArialMT-4c"/>
     <path d="M 41.21875 28.078125 
L 41.21875 36.46875 
L 71.53125 36.53125 
L 71.53125 9.96875 
Q 64.546875 4.390625 57.125 1.578125 
Q 49.703125 -1.21875 41.890625 -1.21875 
Q 31.34375 -1.21875 22.71875 3.296875 
Q 14.109375 7.8125 9.71875 16.359375 
Q 5.328125 24.90625 5.328125 35.453125 
Q 5.328125 45.90625 9.6875 54.953125 
Q 14.0625 64.015625 22.265625 68.40625 
Q 30.46875 72.796875 41.15625 72.796875 
Q 48.921875 72.796875 55.1875 70.28125 
Q 61.46875 67.78125 65.03125 63.28125 
Q 68.609375 58.796875 70.453125 51.5625 
L 61.921875 49.21875 
Q 60.296875 54.6875 57.90625 57.8125 
Q 55.515625 60.9375 51.0625 62.8125 
Q 46.625 64.703125 41.21875 64.703125 
Q 34.71875 64.703125 29.984375 62.71875 
Q 25.25 60.75 22.34375 57.515625 
Q 19.4375 54.296875 17.828125 50.4375 
Q 15.09375 43.796875 15.09375 36.03125 
Q 15.09375 26.46875 18.390625 20.015625 
Q 21.6875 13.578125 27.984375 10.453125 
Q 34.28125 7.328125 41.359375 7.328125 
Q 47.515625 7.328125 53.375 9.6875 
Q 59.234375 12.0625 62.25 14.75 
L 62.25 28.078125 
z
" id="ArialMT-47"/>
    </defs>
    <g style="fill:#262626;opacity:0.7;" transform="translate(134.016005 213.714276)scale(0.073152 -0.073152)">
     <use xlink:href="#ArialMT-4d"/>
     <use x="83.300781" xlink:href="#ArialMT-48"/>
     <use x="155.517578" xlink:href="#ArialMT-43"/>
     <use x="227.734375" xlink:href="#ArialMT-4c"/>
     <use x="283.349609" xlink:href="#ArialMT-47"/>
    </g>
   </g>
   <g id="text_30">
    <!-- MoD -->
    <g style="fill:#262626;opacity:0.7;" transform="translate(169.452602 204.093271)scale(0.077995 -0.077995)">
     <use xlink:href="#ArialMT-4d"/>
     <use x="83.300781" xlink:href="#ArialMT-6f"/>
     <use x="138.916016" xlink:href="#ArialMT-44"/>
    </g>
   </g>
   <g id="text_31">
    <!-- HMRC -->
    <g style="fill:#262626;opacity:0.7;" transform="translate(157.135384 216.459462)scale(0.07177 -0.07177)">
     <use xlink:href="#ArialMT-48"/>
     <use x="72.216797" xlink:href="#ArialMT-4d"/>
     <use x="155.517578" xlink:href="#ArialMT-52"/>
     <use x="227.734375" xlink:href="#ArialMT-43"/>
    </g>
   </g>
   <g id="text_32">
    <!-- DfE -->
    <defs>
     <path d="M 8.6875 0 
L 8.6875 45.015625 
L 0.921875 45.015625 
L 0.921875 51.859375 
L 8.6875 51.859375 
L 8.6875 57.375 
Q 8.6875 62.59375 9.625 65.140625 
Q 10.890625 68.5625 14.078125 70.671875 
Q 17.28125 72.796875 23.046875 72.796875 
Q 26.765625 72.796875 31.25 71.921875 
L 29.9375 64.265625 
Q 27.203125 64.75 24.75 64.75 
Q 20.75 64.75 19.09375 63.03125 
Q 17.4375 61.328125 17.4375 56.640625 
L 17.4375 51.859375 
L 27.546875 51.859375 
L 27.546875 45.015625 
L 17.4375 45.015625 
L 17.4375 0 
z
" id="ArialMT-66"/>
    </defs>
    <g style="fill:#262626;opacity:0.7;" transform="translate(239.573186 53.382875)scale(0.153858 -0.153858)">
     <use xlink:href="#ArialMT-44"/>
     <use x="72.216797" xlink:href="#ArialMT-66"/>
     <use x="100" xlink:href="#ArialMT-45"/>
    </g>
   </g>
   <g id="text_33">
    <!-- DoH -->
    <g style="fill:#262626;opacity:0.7;" transform="translate(352.328529 34.049287)scale(0.16359 -0.16359)">
     <use xlink:href="#ArialMT-44"/>
     <use x="72.216797" xlink:href="#ArialMT-6f"/>
     <use x="127.832031" xlink:href="#ArialMT-48"/>
    </g>
   </g>
   <g id="text_34">
    <!-- DWP -->
    <defs>
     <path d="M 20.21875 0 
L 1.21875 71.578125 
L 10.9375 71.578125 
L 21.828125 24.65625 
Q 23.578125 17.28125 24.859375 10.015625 
Q 27.59375 21.484375 28.078125 23.25 
L 41.703125 71.578125 
L 53.125 71.578125 
L 63.375 35.359375 
Q 67.234375 21.875 68.953125 10.015625 
Q 70.3125 16.796875 72.515625 25.59375 
L 83.734375 71.578125 
L 93.265625 71.578125 
L 73.640625 0 
L 64.5 0 
L 49.421875 54.546875 
Q 47.515625 61.375 47.171875 62.9375 
Q 46.046875 58.015625 45.0625 54.546875 
L 29.890625 0 
z
" id="ArialMT-57"/>
    </defs>
    <g style="fill:#262626;opacity:0.7;" transform="translate(383.072384 179.76527)scale(0.090241 -0.090241)">
     <use xlink:href="#ArialMT-44"/>
     <use x="72.216797" xlink:href="#ArialMT-57"/>
     <use x="166.601562" xlink:href="#ArialMT-50"/>
    </g>
   </g>
   <g id="legend_1">
    <g id="PathCollection_3">
     <defs>
      <path d="M 0 5.291547 
C 1.403335 5.291547 2.749381 4.733996 3.741689 3.741689 
C 4.733996 2.749381 5.291547 1.403335 5.291547 0 
C 5.291547 -1.403335 4.733996 -2.749381 3.741689 -3.741689 
C 2.749381 -4.733996 1.403335 -5.291547 0 -5.291547 
C -1.403335 -5.291547 -2.749381 -4.733996 -3.741689 -3.741689 
C -4.733996 -2.749381 -5.291547 -1.403335 -5.291547 0 
C -5.291547 1.403335 -4.733996 2.749381 -3.741689 3.741689 
C -2.749381 4.733996 -1.403335 5.291547 0 5.291547 
z
" id="mb1a09416e2" style="stroke:#1a1a1a;stroke-opacity:0.5;"/>
     </defs>
     <g>
      <use style="fill:#377eb8;fill-opacity:0.5;stroke:#1a1a1a;stroke-opacity:0.5;" x="87.594375" xlink:href="#mb1a09416e2" y="28.086094"/>
     </g>
    </g>
    <g id="text_35">
     <!-- PESA Ratio &gt; 1 -->
     <defs>
      <path d="M 40.4375 6.390625 
Q 35.546875 2.25 31.03125 0.53125 
Q 26.515625 -1.171875 21.34375 -1.171875 
Q 12.796875 -1.171875 8.203125 3 
Q 3.609375 7.171875 3.609375 13.671875 
Q 3.609375 17.484375 5.34375 20.625 
Q 7.078125 23.78125 9.890625 25.6875 
Q 12.703125 27.59375 16.21875 28.5625 
Q 18.796875 29.25 24.03125 29.890625 
Q 34.671875 31.15625 39.703125 32.90625 
Q 39.75 34.71875 39.75 35.203125 
Q 39.75 40.578125 37.25 42.78125 
Q 33.890625 45.75 27.25 45.75 
Q 21.046875 45.75 18.09375 43.578125 
Q 15.140625 41.40625 13.71875 35.890625 
L 5.125 37.0625 
Q 6.296875 42.578125 8.984375 45.96875 
Q 11.671875 49.359375 16.75 51.1875 
Q 21.828125 53.03125 28.515625 53.03125 
Q 35.15625 53.03125 39.296875 51.46875 
Q 43.453125 49.90625 45.40625 47.53125 
Q 47.359375 45.171875 48.140625 41.546875 
Q 48.578125 39.3125 48.578125 33.453125 
L 48.578125 21.734375 
Q 48.578125 9.46875 49.140625 6.21875 
Q 49.703125 2.984375 51.375 0 
L 42.1875 0 
Q 40.828125 2.734375 40.4375 6.390625 
z
M 39.703125 26.03125 
Q 34.90625 24.078125 25.34375 22.703125 
Q 19.921875 21.921875 17.671875 20.9375 
Q 15.4375 19.96875 14.203125 18.09375 
Q 12.984375 16.21875 12.984375 13.921875 
Q 12.984375 10.40625 15.640625 8.0625 
Q 18.3125 5.71875 23.4375 5.71875 
Q 28.515625 5.71875 32.46875 7.9375 
Q 36.421875 10.15625 38.28125 14.015625 
Q 39.703125 17 39.703125 22.796875 
z
" id="ArialMT-61"/>
      <path d="M 6.640625 61.46875 
L 6.640625 71.578125 
L 15.4375 71.578125 
L 15.4375 61.46875 
z
M 6.640625 0 
L 6.640625 51.859375 
L 15.4375 51.859375 
L 15.4375 0 
z
" id="ArialMT-69"/>
      <path d="M 52.875 31.296875 
L 5.46875 11.03125 
L 5.46875 19.78125 
L 43.015625 35.359375 
L 5.46875 50.78125 
L 5.46875 59.515625 
L 52.875 39.5 
z
" id="ArialMT-3e"/>
     </defs>
     <g style="fill:#262626;" transform="translate(107.394375 30.973594)scale(0.11 -0.11)">
      <use xlink:href="#ArialMT-50"/>
      <use x="66.699219" xlink:href="#ArialMT-45"/>
      <use x="133.398438" xlink:href="#ArialMT-53"/>
      <use x="200.097656" xlink:href="#ArialMT-41"/>
      <use x="266.71875" xlink:href="#ArialMT-20"/>
      <use x="294.501953" xlink:href="#ArialMT-52"/>
      <use x="366.71875" xlink:href="#ArialMT-61"/>
      <use x="422.333984" xlink:href="#ArialMT-74"/>
      <use x="450.117188" xlink:href="#ArialMT-69"/>
      <use x="472.333984" xlink:href="#ArialMT-6f"/>
      <use x="527.949219" xlink:href="#ArialMT-20"/>
      <use x="555.732422" xlink:href="#ArialMT-3e"/>
      <use x="614.130859" xlink:href="#ArialMT-20"/>
      <use x="641.914062" xlink:href="#ArialMT-31"/>
     </g>
    </g>
    <g id="PathCollection_4">
     <defs>
      <path d="M 0 5.579627 
C 1.479734 5.579627 2.899062 4.991722 3.945392 3.945392 
C 4.991722 2.899062 5.579627 1.479734 5.579627 0 
C 5.579627 -1.479734 4.991722 -2.899062 3.945392 -3.945392 
C 2.899062 -4.991722 1.479734 -5.579627 0 -5.579627 
C -1.479734 -5.579627 -2.899062 -4.991722 -3.945392 -3.945392 
C -4.991722 -2.899062 -5.579627 -1.479734 -5.579627 0 
C -5.579627 1.479734 -4.991722 2.899062 -3.945392 3.945392 
C -2.899062 4.991722 -1.479734 5.579627 0 5.579627 
z
" id="m34f699c224" style="stroke:#1a1a1a;stroke-opacity:0.5;"/>
     </defs>
     <g>
      <use style="fill:#ff7f00;fill-opacity:0.5;stroke:#1a1a1a;stroke-opacity:0.5;" x="87.594375" xlink:href="#m34f699c224" y="43.645937"/>
     </g>
    </g>
    <g id="text_36">
     <!-- PESA Ratio &lt; 1 -->
     <defs>
      <path d="M 5.46875 31.296875 
L 5.46875 39.5 
L 52.875 59.515625 
L 52.875 50.78125 
L 15.28125 35.359375 
L 52.875 19.78125 
L 52.875 11.03125 
z
" id="ArialMT-3c"/>
     </defs>
     <g style="fill:#262626;" transform="translate(107.394375 46.533437)scale(0.11 -0.11)">
      <use xlink:href="#ArialMT-50"/>
      <use x="66.699219" xlink:href="#ArialMT-45"/>
      <use x="133.398438" xlink:href="#ArialMT-53"/>
      <use x="200.097656" xlink:href="#ArialMT-41"/>
      <use x="266.71875" xlink:href="#ArialMT-20"/>
      <use x="294.501953" xlink:href="#ArialMT-52"/>
      <use x="366.71875" xlink:href="#ArialMT-61"/>
      <use x="422.333984" xlink:href="#ArialMT-74"/>
      <use x="450.117188" xlink:href="#ArialMT-69"/>
      <use x="472.333984" xlink:href="#ArialMT-6f"/>
      <use x="527.949219" xlink:href="#ArialMT-20"/>
      <use x="555.732422" xlink:href="#ArialMT-3c"/>
      <use x="614.130859" xlink:href="#ArialMT-20"/>
      <use x="641.914062" xlink:href="#ArialMT-31"/>
     </g>
    </g>
   </g>
  </g>
 </g>
 <defs>
  <clipPath id="pf2d9c69053">
   <rect height="217.44" width="334.8" x="66.694375" y="13.2"/>
  </clipPath>
 </defs>
</svg>
