<?xml version="1.0" encoding="utf-8" standalone="no"?>
<!DOCTYPE svg PUBLIC "-//W3C//DTD SVG 1.1//EN"
  "http://www.w3.org/Graphics/SVG/1.1/DTD/svg11.dtd">
<!-- Created with matplotlib (http://matplotlib.org/) -->
<svg height="381.234844pt" version="1.1" viewBox="0 0 518.939062 381.234844" width="518.939062pt" xmlns="http://www.w3.org/2000/svg" xmlns:xlink="http://www.w3.org/1999/xlink">
 <defs>
  <style type="text/css">
*{stroke-linecap:butt;stroke-linejoin:round;}
  </style>
 </defs>
 <g id="figure_1">
  <g id="patch_1">
   <path d="M 0 381.234844 
L 518.939062 381.234844 
L 518.939062 0 
L 0 0 
z
" style="fill:#ffffff;"/>
  </g>
  <g id="axes_1">
   <g id="patch_2">
    <path d="M 59.339063 339.36 
L 505.739062 339.36 
L 505.739062 13.2 
L 59.339063 13.2 
z
" style="fill:#ffffff;"/>
   </g>
   <g id="matplotlib.axis_1">
    <g id="xtick_1">
     <g id="line2d_1">
      <defs>
       <path d="M 0 0 
L 0 6 
" id="mcdc464ea6a" style="stroke:#262626;stroke-width:1.25;"/>
      </defs>
      <g>
       <use style="fill:#262626;stroke:#262626;stroke-width:1.25;" x="97.284061" xlink:href="#mcdc464ea6a" y="339.36"/>
      </g>
     </g>
     <g id="text_1">
      <!-- 0 -->
      <defs>
       <path d="M 4.15625 35.296875 
Q 4.15625 48 6.765625 55.734375 
Q 9.375 63.484375 14.515625 67.671875 
Q 19.671875 71.875 27.484375 71.875 
Q 33.25 71.875 37.59375 69.546875 
Q 41.9375 67.234375 44.765625 62.859375 
Q 47.609375 58.5 49.21875 52.21875 
Q 50.828125 45.953125 50.828125 35.296875 
Q 50.828125 22.703125 48.234375 14.96875 
Q 45.65625 7.234375 40.5 3 
Q 35.359375 -1.21875 27.484375 -1.21875 
Q 17.140625 -1.21875 11.234375 6.203125 
Q 4.15625 15.140625 4.15625 35.296875 
z
M 13.1875 35.296875 
Q 13.1875 17.671875 17.3125 11.828125 
Q 21.4375 6 27.484375 6 
Q 33.546875 6 37.671875 11.859375 
Q 41.796875 17.71875 41.796875 35.296875 
Q 41.796875 52.984375 37.671875 58.78125 
Q 33.546875 64.59375 27.390625 64.59375 
Q 21.34375 64.59375 17.71875 59.46875 
Q 13.1875 52.9375 13.1875 35.296875 
z
" id="ArialMT-30"/>
      </defs>
      <g style="fill:#262626;" transform="translate(94.225545 356.733594)scale(0.11 -0.11)">
       <use xlink:href="#ArialMT-30"/>
      </g>
     </g>
    </g>
    <g id="xtick_2">
     <g id="line2d_2">
      <g>
       <use style="fill:#262626;stroke:#262626;stroke-width:1.25;" x="174.235801" xlink:href="#mcdc464ea6a" y="339.36"/>
      </g>
     </g>
     <g id="text_2">
      <!-- 20 -->
      <defs>
       <path d="M 50.34375 8.453125 
L 50.34375 0 
L 3.03125 0 
Q 2.9375 3.171875 4.046875 6.109375 
Q 5.859375 10.9375 9.828125 15.625 
Q 13.8125 20.3125 21.34375 26.46875 
Q 33.015625 36.03125 37.109375 41.625 
Q 41.21875 47.21875 41.21875 52.203125 
Q 41.21875 57.421875 37.46875 61 
Q 33.734375 64.59375 27.734375 64.59375 
Q 21.390625 64.59375 17.578125 60.78125 
Q 13.765625 56.984375 13.71875 50.25 
L 4.6875 51.171875 
Q 5.609375 61.28125 11.65625 66.578125 
Q 17.71875 71.875 27.9375 71.875 
Q 38.234375 71.875 44.234375 66.15625 
Q 50.25 60.453125 50.25 52 
Q 50.25 47.703125 48.484375 43.546875 
Q 46.734375 39.40625 42.65625 34.8125 
Q 38.578125 30.21875 29.109375 22.21875 
Q 21.1875 15.578125 18.9375 13.203125 
Q 16.703125 10.84375 15.234375 8.453125 
z
" id="ArialMT-32"/>
      </defs>
      <g style="fill:#262626;" transform="translate(168.11877 356.733594)scale(0.11 -0.11)">
       <use xlink:href="#ArialMT-32"/>
       <use x="55.615234" xlink:href="#ArialMT-30"/>
      </g>
     </g>
    </g>
    <g id="xtick_3">
     <g id="line2d_3">
      <g>
       <use style="fill:#262626;stroke:#262626;stroke-width:1.25;" x="251.187541" xlink:href="#mcdc464ea6a" y="339.36"/>
      </g>
     </g>
     <g id="text_3">
      <!-- 40 -->
      <defs>
       <path d="M 32.328125 0 
L 32.328125 17.140625 
L 1.265625 17.140625 
L 1.265625 25.203125 
L 33.9375 71.578125 
L 41.109375 71.578125 
L 41.109375 25.203125 
L 50.78125 25.203125 
L 50.78125 17.140625 
L 41.109375 17.140625 
L 41.109375 0 
z
M 32.328125 25.203125 
L 32.328125 57.46875 
L 9.90625 25.203125 
z
" id="ArialMT-34"/>
      </defs>
      <g style="fill:#262626;" transform="translate(245.07051 356.733594)scale(0.11 -0.11)">
       <use xlink:href="#ArialMT-34"/>
       <use x="55.615234" xlink:href="#ArialMT-30"/>
      </g>
     </g>
    </g>
    <g id="xtick_4">
     <g id="line2d_4">
      <g>
       <use style="fill:#262626;stroke:#262626;stroke-width:1.25;" x="328.139281" xlink:href="#mcdc464ea6a" y="339.36"/>
      </g>
     </g>
     <g id="text_4">
      <!-- 60 -->
      <defs>
       <path d="M 49.75 54.046875 
L 41.015625 53.375 
Q 39.84375 58.546875 37.703125 60.890625 
Q 34.125 64.65625 28.90625 64.65625 
Q 24.703125 64.65625 21.53125 62.3125 
Q 17.390625 59.28125 14.984375 53.46875 
Q 12.59375 47.65625 12.5 36.921875 
Q 15.671875 41.75 20.265625 44.09375 
Q 24.859375 46.4375 29.890625 46.4375 
Q 38.671875 46.4375 44.84375 39.96875 
Q 51.03125 33.5 51.03125 23.25 
Q 51.03125 16.5 48.125 10.71875 
Q 45.21875 4.9375 40.140625 1.859375 
Q 35.0625 -1.21875 28.609375 -1.21875 
Q 17.625 -1.21875 10.6875 6.859375 
Q 3.765625 14.9375 3.765625 33.5 
Q 3.765625 54.25 11.421875 63.671875 
Q 18.109375 71.875 29.4375 71.875 
Q 37.890625 71.875 43.28125 67.140625 
Q 48.6875 62.40625 49.75 54.046875 
z
M 13.875 23.1875 
Q 13.875 18.65625 15.796875 14.5 
Q 17.71875 10.359375 21.1875 8.171875 
Q 24.65625 6 28.46875 6 
Q 34.03125 6 38.03125 10.484375 
Q 42.046875 14.984375 42.046875 22.703125 
Q 42.046875 30.125 38.078125 34.390625 
Q 34.125 38.671875 28.125 38.671875 
Q 22.171875 38.671875 18.015625 34.390625 
Q 13.875 30.125 13.875 23.1875 
z
" id="ArialMT-36"/>
      </defs>
      <g style="fill:#262626;" transform="translate(322.02225 356.733594)scale(0.11 -0.11)">
       <use xlink:href="#ArialMT-36"/>
       <use x="55.615234" xlink:href="#ArialMT-30"/>
      </g>
     </g>
    </g>
    <g id="xtick_5">
     <g id="line2d_5">
      <g>
       <use style="fill:#262626;stroke:#262626;stroke-width:1.25;" x="405.091021" xlink:href="#mcdc464ea6a" y="339.36"/>
      </g>
     </g>
     <g id="text_5">
      <!-- 80 -->
      <defs>
       <path d="M 17.671875 38.8125 
Q 12.203125 40.828125 9.5625 44.53125 
Q 6.9375 48.25 6.9375 53.421875 
Q 6.9375 61.234375 12.546875 66.546875 
Q 18.171875 71.875 27.484375 71.875 
Q 36.859375 71.875 42.578125 66.421875 
Q 48.296875 60.984375 48.296875 53.171875 
Q 48.296875 48.1875 45.671875 44.5 
Q 43.0625 40.828125 37.75 38.8125 
Q 44.34375 36.671875 47.78125 31.875 
Q 51.21875 27.09375 51.21875 20.453125 
Q 51.21875 11.28125 44.71875 5.03125 
Q 38.234375 -1.21875 27.640625 -1.21875 
Q 17.046875 -1.21875 10.546875 5.046875 
Q 4.046875 11.328125 4.046875 20.703125 
Q 4.046875 27.6875 7.59375 32.390625 
Q 11.140625 37.109375 17.671875 38.8125 
z
M 15.921875 53.71875 
Q 15.921875 48.640625 19.1875 45.40625 
Q 22.46875 42.1875 27.6875 42.1875 
Q 32.765625 42.1875 36.015625 45.375 
Q 39.265625 48.578125 39.265625 53.21875 
Q 39.265625 58.0625 35.90625 61.359375 
Q 32.5625 64.65625 27.59375 64.65625 
Q 22.5625 64.65625 19.234375 61.421875 
Q 15.921875 58.203125 15.921875 53.71875 
z
M 13.09375 20.65625 
Q 13.09375 16.890625 14.875 13.375 
Q 16.65625 9.859375 20.171875 7.921875 
Q 23.6875 6 27.734375 6 
Q 34.03125 6 38.125 10.046875 
Q 42.234375 14.109375 42.234375 20.359375 
Q 42.234375 26.703125 38.015625 30.859375 
Q 33.796875 35.015625 27.4375 35.015625 
Q 21.234375 35.015625 17.15625 30.90625 
Q 13.09375 26.8125 13.09375 20.65625 
z
" id="ArialMT-38"/>
      </defs>
      <g style="fill:#262626;" transform="translate(398.97399 356.733594)scale(0.11 -0.11)">
       <use xlink:href="#ArialMT-38"/>
       <use x="55.615234" xlink:href="#ArialMT-30"/>
      </g>
     </g>
    </g>
    <g id="xtick_6">
     <g id="line2d_6">
      <g>
       <use style="fill:#262626;stroke:#262626;stroke-width:1.25;" x="482.042762" xlink:href="#mcdc464ea6a" y="339.36"/>
      </g>
     </g>
     <g id="text_6">
      <!-- 100 -->
      <defs>
       <path d="M 37.25 0 
L 28.46875 0 
L 28.46875 56 
Q 25.296875 52.984375 20.140625 49.953125 
Q 14.984375 46.921875 10.890625 45.40625 
L 10.890625 53.90625 
Q 18.265625 57.375 23.78125 62.296875 
Q 29.296875 67.234375 31.59375 71.875 
L 37.25 71.875 
z
" id="ArialMT-31"/>
      </defs>
      <g style="fill:#262626;" transform="translate(472.867215 356.733594)scale(0.11 -0.11)">
       <use xlink:href="#ArialMT-31"/>
       <use x="55.615234" xlink:href="#ArialMT-30"/>
       <use x="111.230469" xlink:href="#ArialMT-30"/>
      </g>
     </g>
    </g>
    <g id="text_7">
     <!-- Age -->
     <defs>
      <path d="M -0.140625 0 
L 27.34375 71.578125 
L 37.546875 71.578125 
L 66.84375 0 
L 56.0625 0 
L 47.703125 21.6875 
L 17.78125 21.6875 
L 9.90625 0 
z
M 20.515625 29.390625 
L 44.78125 29.390625 
L 37.3125 49.21875 
Q 33.890625 58.25 32.234375 64.0625 
Q 30.859375 57.171875 28.375 50.390625 
z
" id="ArialMT-41"/>
      <path d="M 4.984375 -4.296875 
L 13.53125 -5.5625 
Q 14.0625 -9.515625 16.5 -11.328125 
Q 19.78125 -13.765625 25.4375 -13.765625 
Q 31.546875 -13.765625 34.859375 -11.328125 
Q 38.1875 -8.890625 39.359375 -4.5 
Q 40.046875 -1.8125 39.984375 6.78125 
Q 34.234375 0 25.640625 0 
Q 14.9375 0 9.078125 7.71875 
Q 3.21875 15.4375 3.21875 26.21875 
Q 3.21875 33.640625 5.90625 39.90625 
Q 8.59375 46.1875 13.6875 49.609375 
Q 18.796875 53.03125 25.6875 53.03125 
Q 34.859375 53.03125 40.828125 45.609375 
L 40.828125 51.859375 
L 48.921875 51.859375 
L 48.921875 7.03125 
Q 48.921875 -5.078125 46.453125 -10.125 
Q 44 -15.1875 38.640625 -18.109375 
Q 33.296875 -21.046875 25.484375 -21.046875 
Q 16.21875 -21.046875 10.5 -16.875 
Q 4.78125 -12.703125 4.984375 -4.296875 
z
M 12.25 26.859375 
Q 12.25 16.65625 16.296875 11.96875 
Q 20.359375 7.28125 26.46875 7.28125 
Q 32.515625 7.28125 36.609375 11.9375 
Q 40.71875 16.609375 40.71875 26.5625 
Q 40.71875 36.078125 36.5 40.90625 
Q 32.28125 45.75 26.3125 45.75 
Q 20.453125 45.75 16.34375 40.984375 
Q 12.25 36.234375 12.25 26.859375 
z
" id="ArialMT-67"/>
      <path d="M 42.09375 16.703125 
L 51.171875 15.578125 
Q 49.03125 7.625 43.21875 3.21875 
Q 37.40625 -1.171875 28.375 -1.171875 
Q 17 -1.171875 10.328125 5.828125 
Q 3.65625 12.84375 3.65625 25.484375 
Q 3.65625 38.578125 10.390625 45.796875 
Q 17.140625 53.03125 27.875 53.03125 
Q 38.28125 53.03125 44.875 45.953125 
Q 51.46875 38.875 51.46875 26.03125 
Q 51.46875 25.25 51.421875 23.6875 
L 12.75 23.6875 
Q 13.234375 15.140625 17.578125 10.59375 
Q 21.921875 6.0625 28.421875 6.0625 
Q 33.25 6.0625 36.671875 8.59375 
Q 40.09375 11.140625 42.09375 16.703125 
z
M 13.234375 30.90625 
L 42.1875 30.90625 
Q 41.609375 37.453125 38.875 40.71875 
Q 34.671875 45.796875 27.984375 45.796875 
Q 21.921875 45.796875 17.796875 41.75 
Q 13.671875 37.703125 13.234375 30.90625 
z
" id="ArialMT-65"/>
     </defs>
     <g style="fill:#262626;" transform="translate(271.86375 371.509219)scale(0.12 -0.12)">
      <use xlink:href="#ArialMT-41"/>
      <use x="66.699219" xlink:href="#ArialMT-67"/>
      <use x="122.314453" xlink:href="#ArialMT-65"/>
     </g>
    </g>
   </g>
   <g id="matplotlib.axis_2">
    <g id="ytick_1">
     <g id="line2d_7">
      <defs>
       <path d="M 0 0 
L -6 0 
" id="m2c20c7f880" style="stroke:#262626;stroke-width:1.25;"/>
      </defs>
      <g>
       <use style="fill:#262626;stroke:#262626;stroke-width:1.25;" x="59.339063" xlink:href="#m2c20c7f880" y="339.36"/>
      </g>
     </g>
     <g id="text_8">
      <!-- 0.000 -->
      <defs>
       <path d="M 9.078125 0 
L 9.078125 10.015625 
L 19.09375 10.015625 
L 19.09375 0 
z
" id="ArialMT-2e"/>
      </defs>
      <g style="fill:#262626;" transform="translate(22.315 343.296797)scale(0.11 -0.11)">
       <use xlink:href="#ArialMT-30"/>
       <use x="55.615234" xlink:href="#ArialMT-2e"/>
       <use x="83.398438" xlink:href="#ArialMT-30"/>
       <use x="139.013672" xlink:href="#ArialMT-30"/>
       <use x="194.628906" xlink:href="#ArialMT-30"/>
      </g>
     </g>
    </g>
    <g id="ytick_2">
     <g id="line2d_8">
      <g>
       <use style="fill:#262626;stroke:#262626;stroke-width:1.25;" x="59.339063" xlink:href="#m2c20c7f880" y="297.553536"/>
      </g>
     </g>
     <g id="text_9">
      <!-- 0.005 -->
      <defs>
       <path d="M 4.15625 18.75 
L 13.375 19.53125 
Q 14.40625 12.796875 18.140625 9.390625 
Q 21.875 6 27.15625 6 
Q 33.5 6 37.890625 10.78125 
Q 42.28125 15.578125 42.28125 23.484375 
Q 42.28125 31 38.0625 35.34375 
Q 33.84375 39.703125 27 39.703125 
Q 22.75 39.703125 19.328125 37.765625 
Q 15.921875 35.84375 13.96875 32.765625 
L 5.71875 33.84375 
L 12.640625 70.609375 
L 48.25 70.609375 
L 48.25 62.203125 
L 19.671875 62.203125 
L 15.828125 42.96875 
Q 22.265625 47.46875 29.34375 47.46875 
Q 38.71875 47.46875 45.15625 40.96875 
Q 51.609375 34.46875 51.609375 24.265625 
Q 51.609375 14.546875 45.953125 7.46875 
Q 39.0625 -1.21875 27.15625 -1.21875 
Q 17.390625 -1.21875 11.203125 4.25 
Q 5.03125 9.71875 4.15625 18.75 
z
" id="ArialMT-35"/>
      </defs>
      <g style="fill:#262626;" transform="translate(22.315 301.490333)scale(0.11 -0.11)">
       <use xlink:href="#ArialMT-30"/>
       <use x="55.615234" xlink:href="#ArialMT-2e"/>
       <use x="83.398438" xlink:href="#ArialMT-30"/>
       <use x="139.013672" xlink:href="#ArialMT-30"/>
       <use x="194.628906" xlink:href="#ArialMT-35"/>
      </g>
     </g>
    </g>
    <g id="ytick_3">
     <g id="line2d_9">
      <g>
       <use style="fill:#262626;stroke:#262626;stroke-width:1.25;" x="59.339063" xlink:href="#m2c20c7f880" y="255.747072"/>
      </g>
     </g>
     <g id="text_10">
      <!-- 0.010 -->
      <g style="fill:#262626;" transform="translate(22.315 259.683869)scale(0.11 -0.11)">
       <use xlink:href="#ArialMT-30"/>
       <use x="55.615234" xlink:href="#ArialMT-2e"/>
       <use x="83.398438" xlink:href="#ArialMT-30"/>
       <use x="139.013672" xlink:href="#ArialMT-31"/>
       <use x="194.628906" xlink:href="#ArialMT-30"/>
      </g>
     </g>
    </g>
    <g id="ytick_4">
     <g id="line2d_10">
      <g>
       <use style="fill:#262626;stroke:#262626;stroke-width:1.25;" x="59.339063" xlink:href="#m2c20c7f880" y="213.940608"/>
      </g>
     </g>
     <g id="text_11">
      <!-- 0.015 -->
      <g style="fill:#262626;" transform="translate(22.315 217.877405)scale(0.11 -0.11)">
       <use xlink:href="#ArialMT-30"/>
       <use x="55.615234" xlink:href="#ArialMT-2e"/>
       <use x="83.398438" xlink:href="#ArialMT-30"/>
       <use x="139.013672" xlink:href="#ArialMT-31"/>
       <use x="194.628906" xlink:href="#ArialMT-35"/>
      </g>
     </g>
    </g>
    <g id="ytick_5">
     <g id="line2d_11">
      <g>
       <use style="fill:#262626;stroke:#262626;stroke-width:1.25;" x="59.339063" xlink:href="#m2c20c7f880" y="172.134144"/>
      </g>
     </g>
     <g id="text_12">
      <!-- 0.020 -->
      <g style="fill:#262626;" transform="translate(22.315 176.070941)scale(0.11 -0.11)">
       <use xlink:href="#ArialMT-30"/>
       <use x="55.615234" xlink:href="#ArialMT-2e"/>
       <use x="83.398438" xlink:href="#ArialMT-30"/>
       <use x="139.013672" xlink:href="#ArialMT-32"/>
       <use x="194.628906" xlink:href="#ArialMT-30"/>
      </g>
     </g>
    </g>
    <g id="ytick_6">
     <g id="line2d_12">
      <g>
       <use style="fill:#262626;stroke:#262626;stroke-width:1.25;" x="59.339063" xlink:href="#m2c20c7f880" y="130.32768"/>
      </g>
     </g>
     <g id="text_13">
      <!-- 0.025 -->
      <g style="fill:#262626;" transform="translate(22.315 134.264477)scale(0.11 -0.11)">
       <use xlink:href="#ArialMT-30"/>
       <use x="55.615234" xlink:href="#ArialMT-2e"/>
       <use x="83.398438" xlink:href="#ArialMT-30"/>
       <use x="139.013672" xlink:href="#ArialMT-32"/>
       <use x="194.628906" xlink:href="#ArialMT-35"/>
      </g>
     </g>
    </g>
    <g id="ytick_7">
     <g id="line2d_13">
      <g>
       <use style="fill:#262626;stroke:#262626;stroke-width:1.25;" x="59.339063" xlink:href="#m2c20c7f880" y="88.521216"/>
      </g>
     </g>
     <g id="text_14">
      <!-- 0.030 -->
      <defs>
       <path d="M 4.203125 18.890625 
L 12.984375 20.0625 
Q 14.5 12.59375 18.140625 9.296875 
Q 21.78125 6 27 6 
Q 33.203125 6 37.46875 10.296875 
Q 41.75 14.59375 41.75 20.953125 
Q 41.75 27 37.796875 30.921875 
Q 33.84375 34.859375 27.734375 34.859375 
Q 25.25 34.859375 21.53125 33.890625 
L 22.515625 41.609375 
Q 23.390625 41.5 23.921875 41.5 
Q 29.546875 41.5 34.03125 44.421875 
Q 38.53125 47.359375 38.53125 53.46875 
Q 38.53125 58.296875 35.25 61.46875 
Q 31.984375 64.65625 26.8125 64.65625 
Q 21.6875 64.65625 18.265625 61.421875 
Q 14.84375 58.203125 13.875 51.765625 
L 5.078125 53.328125 
Q 6.6875 62.15625 12.390625 67.015625 
Q 18.109375 71.875 26.609375 71.875 
Q 32.46875 71.875 37.390625 69.359375 
Q 42.328125 66.84375 44.9375 62.5 
Q 47.5625 58.15625 47.5625 53.265625 
Q 47.5625 48.640625 45.0625 44.828125 
Q 42.578125 41.015625 37.703125 38.765625 
Q 44.046875 37.3125 47.5625 32.6875 
Q 51.078125 28.078125 51.078125 21.140625 
Q 51.078125 11.765625 44.234375 5.25 
Q 37.40625 -1.265625 26.953125 -1.265625 
Q 17.53125 -1.265625 11.296875 4.34375 
Q 5.078125 9.96875 4.203125 18.890625 
z
" id="ArialMT-33"/>
      </defs>
      <g style="fill:#262626;" transform="translate(22.315 92.458013)scale(0.11 -0.11)">
       <use xlink:href="#ArialMT-30"/>
       <use x="55.615234" xlink:href="#ArialMT-2e"/>
       <use x="83.398438" xlink:href="#ArialMT-30"/>
       <use x="139.013672" xlink:href="#ArialMT-33"/>
       <use x="194.628906" xlink:href="#ArialMT-30"/>
      </g>
     </g>
    </g>
    <g id="ytick_8">
     <g id="line2d_14">
      <g>
       <use style="fill:#262626;stroke:#262626;stroke-width:1.25;" x="59.339063" xlink:href="#m2c20c7f880" y="46.714752"/>
      </g>
     </g>
     <g id="text_15">
      <!-- 0.035 -->
      <g style="fill:#262626;" transform="translate(22.315 50.651549)scale(0.11 -0.11)">
       <use xlink:href="#ArialMT-30"/>
       <use x="55.615234" xlink:href="#ArialMT-2e"/>
       <use x="83.398438" xlink:href="#ArialMT-30"/>
       <use x="139.013672" xlink:href="#ArialMT-33"/>
       <use x="194.628906" xlink:href="#ArialMT-35"/>
      </g>
     </g>
    </g>
    <g id="text_16">
     <!-- Normalized Frequency -->
     <defs>
      <path d="M 7.625 0 
L 7.625 71.578125 
L 17.328125 71.578125 
L 54.9375 15.375 
L 54.9375 71.578125 
L 64.015625 71.578125 
L 64.015625 0 
L 54.296875 0 
L 16.703125 56.25 
L 16.703125 0 
z
" id="ArialMT-4e"/>
      <path d="M 3.328125 25.921875 
Q 3.328125 40.328125 11.328125 47.265625 
Q 18.015625 53.03125 27.640625 53.03125 
Q 38.328125 53.03125 45.109375 46.015625 
Q 51.90625 39.015625 51.90625 26.65625 
Q 51.90625 16.65625 48.90625 10.90625 
Q 45.90625 5.171875 40.15625 2 
Q 34.421875 -1.171875 27.640625 -1.171875 
Q 16.75 -1.171875 10.03125 5.8125 
Q 3.328125 12.796875 3.328125 25.921875 
z
M 12.359375 25.921875 
Q 12.359375 15.96875 16.703125 11.015625 
Q 21.046875 6.0625 27.640625 6.0625 
Q 34.1875 6.0625 38.53125 11.03125 
Q 42.875 16.015625 42.875 26.21875 
Q 42.875 35.84375 38.5 40.796875 
Q 34.125 45.75 27.640625 45.75 
Q 21.046875 45.75 16.703125 40.8125 
Q 12.359375 35.890625 12.359375 25.921875 
z
" id="ArialMT-6f"/>
      <path d="M 6.5 0 
L 6.5 51.859375 
L 14.40625 51.859375 
L 14.40625 44 
Q 17.4375 49.515625 20 51.265625 
Q 22.5625 53.03125 25.640625 53.03125 
Q 30.078125 53.03125 34.671875 50.203125 
L 31.640625 42.046875 
Q 28.421875 43.953125 25.203125 43.953125 
Q 22.3125 43.953125 20.015625 42.21875 
Q 17.71875 40.484375 16.75 37.40625 
Q 15.28125 32.71875 15.28125 27.15625 
L 15.28125 0 
z
" id="ArialMT-72"/>
      <path d="M 6.59375 0 
L 6.59375 51.859375 
L 14.453125 51.859375 
L 14.453125 44.578125 
Q 16.890625 48.390625 20.9375 50.703125 
Q 25 53.03125 30.171875 53.03125 
Q 35.9375 53.03125 39.625 50.640625 
Q 43.3125 48.25 44.828125 43.953125 
Q 50.984375 53.03125 60.84375 53.03125 
Q 68.5625 53.03125 72.703125 48.75 
Q 76.859375 44.484375 76.859375 35.59375 
L 76.859375 0 
L 68.109375 0 
L 68.109375 32.671875 
Q 68.109375 37.9375 67.25 40.25 
Q 66.40625 42.578125 64.15625 43.984375 
Q 61.921875 45.40625 58.890625 45.40625 
Q 53.421875 45.40625 49.796875 41.765625 
Q 46.1875 38.140625 46.1875 30.125 
L 46.1875 0 
L 37.40625 0 
L 37.40625 33.6875 
Q 37.40625 39.546875 35.25 42.46875 
Q 33.109375 45.40625 28.21875 45.40625 
Q 24.515625 45.40625 21.359375 43.453125 
Q 18.21875 41.5 16.796875 37.734375 
Q 15.375 33.984375 15.375 26.90625 
L 15.375 0 
z
" id="ArialMT-6d"/>
      <path d="M 40.4375 6.390625 
Q 35.546875 2.25 31.03125 0.53125 
Q 26.515625 -1.171875 21.34375 -1.171875 
Q 12.796875 -1.171875 8.203125 3 
Q 3.609375 7.171875 3.609375 13.671875 
Q 3.609375 17.484375 5.34375 20.625 
Q 7.078125 23.78125 9.890625 25.6875 
Q 12.703125 27.59375 16.21875 28.5625 
Q 18.796875 29.25 24.03125 29.890625 
Q 34.671875 31.15625 39.703125 32.90625 
Q 39.75 34.71875 39.75 35.203125 
Q 39.75 40.578125 37.25 42.78125 
Q 33.890625 45.75 27.25 45.75 
Q 21.046875 45.75 18.09375 43.578125 
Q 15.140625 41.40625 13.71875 35.890625 
L 5.125 37.0625 
Q 6.296875 42.578125 8.984375 45.96875 
Q 11.671875 49.359375 16.75 51.1875 
Q 21.828125 53.03125 28.515625 53.03125 
Q 35.15625 53.03125 39.296875 51.46875 
Q 43.453125 49.90625 45.40625 47.53125 
Q 47.359375 45.171875 48.140625 41.546875 
Q 48.578125 39.3125 48.578125 33.453125 
L 48.578125 21.734375 
Q 48.578125 9.46875 49.140625 6.21875 
Q 49.703125 2.984375 51.375 0 
L 42.1875 0 
Q 40.828125 2.734375 40.4375 6.390625 
z
M 39.703125 26.03125 
Q 34.90625 24.078125 25.34375 22.703125 
Q 19.921875 21.921875 17.671875 20.9375 
Q 15.4375 19.96875 14.203125 18.09375 
Q 12.984375 16.21875 12.984375 13.921875 
Q 12.984375 10.40625 15.640625 8.0625 
Q 18.3125 5.71875 23.4375 5.71875 
Q 28.515625 5.71875 32.46875 7.9375 
Q 36.421875 10.15625 38.28125 14.015625 
Q 39.703125 17 39.703125 22.796875 
z
" id="ArialMT-61"/>
      <path d="M 6.390625 0 
L 6.390625 71.578125 
L 15.1875 71.578125 
L 15.1875 0 
z
" id="ArialMT-6c"/>
      <path d="M 6.640625 61.46875 
L 6.640625 71.578125 
L 15.4375 71.578125 
L 15.4375 61.46875 
z
M 6.640625 0 
L 6.640625 51.859375 
L 15.4375 51.859375 
L 15.4375 0 
z
" id="ArialMT-69"/>
      <path d="M 1.953125 0 
L 1.953125 7.125 
L 34.96875 45.015625 
Q 29.34375 44.734375 25.046875 44.734375 
L 3.90625 44.734375 
L 3.90625 51.859375 
L 46.296875 51.859375 
L 46.296875 46.046875 
L 18.21875 13.140625 
L 12.796875 7.125 
Q 18.703125 7.5625 23.875 7.5625 
L 47.859375 7.5625 
L 47.859375 0 
z
" id="ArialMT-7a"/>
      <path d="M 40.234375 0 
L 40.234375 6.546875 
Q 35.296875 -1.171875 25.734375 -1.171875 
Q 19.53125 -1.171875 14.328125 2.25 
Q 9.125 5.671875 6.265625 11.796875 
Q 3.421875 17.921875 3.421875 25.875 
Q 3.421875 33.640625 6 39.96875 
Q 8.59375 46.296875 13.765625 49.65625 
Q 18.953125 53.03125 25.34375 53.03125 
Q 30.03125 53.03125 33.6875 51.046875 
Q 37.359375 49.078125 39.65625 45.90625 
L 39.65625 71.578125 
L 48.390625 71.578125 
L 48.390625 0 
z
M 12.453125 25.875 
Q 12.453125 15.921875 16.640625 10.984375 
Q 20.84375 6.0625 26.5625 6.0625 
Q 32.328125 6.0625 36.34375 10.765625 
Q 40.375 15.484375 40.375 25.140625 
Q 40.375 35.796875 36.265625 40.765625 
Q 32.171875 45.75 26.171875 45.75 
Q 20.3125 45.75 16.375 40.96875 
Q 12.453125 36.1875 12.453125 25.875 
z
" id="ArialMT-64"/>
      <path id="ArialMT-20"/>
      <path d="M 8.203125 0 
L 8.203125 71.578125 
L 56.5 71.578125 
L 56.5 63.140625 
L 17.671875 63.140625 
L 17.671875 40.96875 
L 51.265625 40.96875 
L 51.265625 32.515625 
L 17.671875 32.515625 
L 17.671875 0 
z
" id="ArialMT-46"/>
      <path d="M 39.65625 -19.875 
L 39.65625 5.515625 
Q 37.59375 2.640625 33.90625 0.734375 
Q 30.21875 -1.171875 26.078125 -1.171875 
Q 16.84375 -1.171875 10.171875 6.203125 
Q 3.515625 13.578125 3.515625 26.421875 
Q 3.515625 34.234375 6.21875 40.421875 
Q 8.9375 46.625 14.078125 49.828125 
Q 19.234375 53.03125 25.390625 53.03125 
Q 35.015625 53.03125 40.53125 44.921875 
L 40.53125 51.859375 
L 48.4375 51.859375 
L 48.4375 -19.875 
z
M 12.546875 26.078125 
Q 12.546875 16.0625 16.75 11.0625 
Q 20.953125 6.0625 26.8125 6.0625 
Q 32.421875 6.0625 36.46875 10.8125 
Q 40.53125 15.578125 40.53125 25.296875 
Q 40.53125 35.640625 36.25 40.859375 
Q 31.984375 46.09375 26.21875 46.09375 
Q 20.515625 46.09375 16.53125 41.234375 
Q 12.546875 36.375 12.546875 26.078125 
z
" id="ArialMT-71"/>
      <path d="M 40.578125 0 
L 40.578125 7.625 
Q 34.515625 -1.171875 24.125 -1.171875 
Q 19.53125 -1.171875 15.546875 0.578125 
Q 11.578125 2.34375 9.640625 5 
Q 7.71875 7.671875 6.9375 11.53125 
Q 6.390625 14.109375 6.390625 19.734375 
L 6.390625 51.859375 
L 15.1875 51.859375 
L 15.1875 23.09375 
Q 15.1875 16.21875 15.71875 13.8125 
Q 16.546875 10.359375 19.234375 8.375 
Q 21.921875 6.390625 25.875 6.390625 
Q 29.828125 6.390625 33.296875 8.421875 
Q 36.765625 10.453125 38.203125 13.9375 
Q 39.65625 17.4375 39.65625 24.078125 
L 39.65625 51.859375 
L 48.4375 51.859375 
L 48.4375 0 
z
" id="ArialMT-75"/>
      <path d="M 6.59375 0 
L 6.59375 51.859375 
L 14.5 51.859375 
L 14.5 44.484375 
Q 20.21875 53.03125 31 53.03125 
Q 35.6875 53.03125 39.625 51.34375 
Q 43.5625 49.65625 45.515625 46.921875 
Q 47.46875 44.1875 48.25 40.4375 
Q 48.734375 37.984375 48.734375 31.890625 
L 48.734375 0 
L 39.9375 0 
L 39.9375 31.546875 
Q 39.9375 36.921875 38.90625 39.578125 
Q 37.890625 42.234375 35.28125 43.8125 
Q 32.671875 45.40625 29.15625 45.40625 
Q 23.53125 45.40625 19.453125 41.84375 
Q 15.375 38.28125 15.375 28.328125 
L 15.375 0 
z
" id="ArialMT-6e"/>
      <path d="M 40.4375 19 
L 49.078125 17.875 
Q 47.65625 8.9375 41.8125 3.875 
Q 35.984375 -1.171875 27.484375 -1.171875 
Q 16.84375 -1.171875 10.375 5.78125 
Q 3.90625 12.75 3.90625 25.734375 
Q 3.90625 34.125 6.6875 40.421875 
Q 9.46875 46.734375 15.15625 49.875 
Q 20.84375 53.03125 27.546875 53.03125 
Q 35.984375 53.03125 41.359375 48.75 
Q 46.734375 44.484375 48.25 36.625 
L 39.703125 35.296875 
Q 38.484375 40.53125 35.375 43.15625 
Q 32.28125 45.796875 27.875 45.796875 
Q 21.234375 45.796875 17.078125 41.03125 
Q 12.9375 36.28125 12.9375 25.984375 
Q 12.9375 15.53125 16.9375 10.796875 
Q 20.953125 6.0625 27.390625 6.0625 
Q 32.5625 6.0625 36.03125 9.234375 
Q 39.5 12.40625 40.4375 19 
z
" id="ArialMT-63"/>
      <path d="M 6.203125 -19.96875 
L 5.21875 -11.71875 
Q 8.109375 -12.5 10.25 -12.5 
Q 13.1875 -12.5 14.9375 -11.515625 
Q 16.703125 -10.546875 17.828125 -8.796875 
Q 18.65625 -7.46875 20.515625 -2.25 
Q 20.75 -1.515625 21.296875 -0.09375 
L 1.609375 51.859375 
L 11.078125 51.859375 
L 21.875 21.828125 
Q 23.96875 16.109375 25.640625 9.8125 
Q 27.15625 15.875 29.25 21.625 
L 40.328125 51.859375 
L 49.125 51.859375 
L 29.390625 -0.875 
Q 26.21875 -9.421875 24.46875 -12.640625 
Q 22.125 -17 19.09375 -19.015625 
Q 16.0625 -21.046875 11.859375 -21.046875 
Q 9.328125 -21.046875 6.203125 -19.96875 
z
" id="ArialMT-79"/>
     </defs>
     <g style="fill:#262626;" transform="translate(15.789375 236.633437)rotate(-90)scale(0.12 -0.12)">
      <use xlink:href="#ArialMT-4e"/>
      <use x="72.216797" xlink:href="#ArialMT-6f"/>
      <use x="127.832031" xlink:href="#ArialMT-72"/>
      <use x="161.132812" xlink:href="#ArialMT-6d"/>
      <use x="244.433594" xlink:href="#ArialMT-61"/>
      <use x="300.048828" xlink:href="#ArialMT-6c"/>
      <use x="322.265625" xlink:href="#ArialMT-69"/>
      <use x="344.482422" xlink:href="#ArialMT-7a"/>
      <use x="394.482422" xlink:href="#ArialMT-65"/>
      <use x="450.097656" xlink:href="#ArialMT-64"/>
      <use x="505.712891" xlink:href="#ArialMT-20"/>
      <use x="533.496094" xlink:href="#ArialMT-46"/>
      <use x="594.580078" xlink:href="#ArialMT-72"/>
      <use x="627.880859" xlink:href="#ArialMT-65"/>
      <use x="683.496094" xlink:href="#ArialMT-71"/>
      <use x="739.111328" xlink:href="#ArialMT-75"/>
      <use x="794.726562" xlink:href="#ArialMT-65"/>
      <use x="850.341797" xlink:href="#ArialMT-6e"/>
      <use x="905.957031" xlink:href="#ArialMT-63"/>
      <use x="955.957031" xlink:href="#ArialMT-79"/>
     </g>
    </g>
   </g>
   <g id="patch_3">
    <path clip-path="url(#pd60c58cfe4)" d="M 97.284061 339.36 
L 104.979235 339.36 
L 104.979235 337.881014 
L 97.284061 337.881014 
z
" style="fill:#377eb8;opacity:0.35;stroke:#ffffff;stroke-linejoin:miter;"/>
   </g>
   <g id="patch_4">
    <path clip-path="url(#pd60c58cfe4)" d="M 104.979235 339.36 
L 112.674409 339.36 
L 112.674409 335.877972 
L 104.979235 335.877972 
z
" style="fill:#377eb8;opacity:0.35;stroke:#ffffff;stroke-linejoin:miter;"/>
   </g>
   <g id="patch_5">
    <path clip-path="url(#pd60c58cfe4)" d="M 112.674409 339.36 
L 120.369583 339.36 
L 120.369583 339.144962 
L 112.674409 339.144962 
z
" style="fill:#377eb8;opacity:0.35;stroke:#ffffff;stroke-linejoin:miter;"/>
   </g>
   <g id="patch_6">
    <path clip-path="url(#pd60c58cfe4)" d="M 120.369583 339.36 
L 128.064757 339.36 
L 128.064757 339.209473 
L 120.369583 339.209473 
z
" style="fill:#377eb8;opacity:0.35;stroke:#ffffff;stroke-linejoin:miter;"/>
   </g>
   <g id="patch_7">
    <path clip-path="url(#pd60c58cfe4)" d="M 128.064757 339.36 
L 135.759931 339.36 
L 135.759931 339.246906 
L 128.064757 339.246906 
z
" style="fill:#377eb8;opacity:0.35;stroke:#ffffff;stroke-linejoin:miter;"/>
   </g>
   <g id="patch_8">
    <path clip-path="url(#pd60c58cfe4)" d="M 135.759931 339.36 
L 143.455105 339.36 
L 143.455105 339.248499 
L 135.759931 339.248499 
z
" style="fill:#377eb8;opacity:0.35;stroke:#ffffff;stroke-linejoin:miter;"/>
   </g>
   <g id="patch_9">
    <path clip-path="url(#pd60c58cfe4)" d="M 143.455105 339.36 
L 151.150279 339.36 
L 151.150279 339.245313 
L 143.455105 339.245313 
z
" style="fill:#377eb8;opacity:0.35;stroke:#ffffff;stroke-linejoin:miter;"/>
   </g>
   <g id="patch_10">
    <path clip-path="url(#pd60c58cfe4)" d="M 151.150279 339.36 
L 158.845453 339.36 
L 158.845453 339.18558 
L 151.150279 339.18558 
z
" style="fill:#377eb8;opacity:0.35;stroke:#ffffff;stroke-linejoin:miter;"/>
   </g>
   <g id="patch_11">
    <path clip-path="url(#pd60c58cfe4)" d="M 158.845453 339.36 
L 166.540627 339.36 
L 166.540627 338.350913 
L 158.845453 338.350913 
z
" style="fill:#377eb8;opacity:0.35;stroke:#ffffff;stroke-linejoin:miter;"/>
   </g>
   <g id="patch_12">
    <path clip-path="url(#pd60c58cfe4)" d="M 166.540627 339.36 
L 174.235801 339.36 
L 174.235801 333.486268 
L 166.540627 333.486268 
z
" style="fill:#377eb8;opacity:0.35;stroke:#ffffff;stroke-linejoin:miter;"/>
   </g>
   <g id="patch_13">
    <path clip-path="url(#pd60c58cfe4)" d="M 174.235801 339.36 
L 181.930975 339.36 
L 181.930975 321.630487 
L 174.235801 321.630487 
z
" style="fill:#377eb8;opacity:0.35;stroke:#ffffff;stroke-linejoin:miter;"/>
   </g>
   <g id="patch_14">
    <path clip-path="url(#pd60c58cfe4)" d="M 181.930975 339.36 
L 189.626149 339.36 
L 189.626149 305.472347 
L 181.930975 305.472347 
z
" style="fill:#377eb8;opacity:0.35;stroke:#ffffff;stroke-linejoin:miter;"/>
   </g>
   <g id="patch_15">
    <path clip-path="url(#pd60c58cfe4)" d="M 189.626149 339.36 
L 197.321323 339.36 
L 197.321323 285.350333 
L 189.626149 285.350333 
z
" style="fill:#377eb8;opacity:0.35;stroke:#ffffff;stroke-linejoin:miter;"/>
   </g>
   <g id="patch_16">
    <path clip-path="url(#pd60c58cfe4)" d="M 197.321323 339.36 
L 205.016497 339.36 
L 205.016497 259.443788 
L 197.321323 259.443788 
z
" style="fill:#377eb8;opacity:0.35;stroke:#ffffff;stroke-linejoin:miter;"/>
   </g>
   <g id="patch_17">
    <path clip-path="url(#pd60c58cfe4)" d="M 205.016497 339.36 
L 212.711671 339.36 
L 212.711671 228.497382 
L 205.016497 228.497382 
z
" style="fill:#377eb8;opacity:0.35;stroke:#ffffff;stroke-linejoin:miter;"/>
   </g>
   <g id="patch_18">
    <path clip-path="url(#pd60c58cfe4)" d="M 212.711671 339.36 
L 220.406845 339.36 
L 220.406845 202.128902 
L 212.711671 202.128902 
z
" style="fill:#377eb8;opacity:0.35;stroke:#ffffff;stroke-linejoin:miter;"/>
   </g>
   <g id="patch_19">
    <path clip-path="url(#pd60c58cfe4)" d="M 220.406845 339.36 
L 228.102019 339.36 
L 228.102019 181.289298 
L 220.406845 181.289298 
z
" style="fill:#377eb8;opacity:0.35;stroke:#ffffff;stroke-linejoin:miter;"/>
   </g>
   <g id="patch_20">
    <path clip-path="url(#pd60c58cfe4)" d="M 228.102019 339.36 
L 235.797193 339.36 
L 235.797193 163.663322 
L 228.102019 163.663322 
z
" style="fill:#377eb8;opacity:0.35;stroke:#ffffff;stroke-linejoin:miter;"/>
   </g>
   <g id="patch_21">
    <path clip-path="url(#pd60c58cfe4)" d="M 235.797193 339.36 
L 243.492367 339.36 
L 243.492367 142.437445 
L 235.797193 142.437445 
z
" style="fill:#377eb8;opacity:0.35;stroke:#ffffff;stroke-linejoin:miter;"/>
   </g>
   <g id="patch_22">
    <path clip-path="url(#pd60c58cfe4)" d="M 243.492367 339.36 
L 251.187541 339.36 
L 251.187541 123.666987 
L 243.492367 123.666987 
z
" style="fill:#377eb8;opacity:0.35;stroke:#ffffff;stroke-linejoin:miter;"/>
   </g>
   <g id="patch_23">
    <path clip-path="url(#pd60c58cfe4)" d="M 251.187541 339.36 
L 258.882715 339.36 
L 258.882715 133.881308 
L 251.187541 133.881308 
z
" style="fill:#377eb8;opacity:0.35;stroke:#ffffff;stroke-linejoin:miter;"/>
   </g>
   <g id="patch_24">
    <path clip-path="url(#pd60c58cfe4)" d="M 258.882715 339.36 
L 266.577889 339.36 
L 266.577889 132.454091 
L 258.882715 132.454091 
z
" style="fill:#377eb8;opacity:0.35;stroke:#ffffff;stroke-linejoin:miter;"/>
   </g>
   <g id="patch_25">
    <path clip-path="url(#pd60c58cfe4)" d="M 266.577889 339.36 
L 274.273063 339.36 
L 274.273063 121.569168 
L 266.577889 121.569168 
z
" style="fill:#377eb8;opacity:0.35;stroke:#ffffff;stroke-linejoin:miter;"/>
   </g>
   <g id="patch_26">
    <path clip-path="url(#pd60c58cfe4)" d="M 274.273063 339.36 
L 281.968237 339.36 
L 281.968237 106.531617 
L 274.273063 106.531617 
z
" style="fill:#377eb8;opacity:0.35;stroke:#ffffff;stroke-linejoin:miter;"/>
   </g>
   <g id="patch_27">
    <path clip-path="url(#pd60c58cfe4)" d="M 281.968237 339.36 
L 289.663411 339.36 
L 289.663411 102.589247 
L 281.968237 102.589247 
z
" style="fill:#377eb8;opacity:0.35;stroke:#ffffff;stroke-linejoin:miter;"/>
   </g>
   <g id="patch_28">
    <path clip-path="url(#pd60c58cfe4)" d="M 289.663411 339.36 
L 297.358585 339.36 
L 297.358585 103.057553 
L 289.663411 103.057553 
z
" style="fill:#377eb8;opacity:0.35;stroke:#ffffff;stroke-linejoin:miter;"/>
   </g>
   <g id="patch_29">
    <path clip-path="url(#pd60c58cfe4)" d="M 297.358585 339.36 
L 305.053759 339.36 
L 305.053759 106.860546 
L 297.358585 106.860546 
z
" style="fill:#377eb8;opacity:0.35;stroke:#ffffff;stroke-linejoin:miter;"/>
   </g>
   <g id="patch_30">
    <path clip-path="url(#pd60c58cfe4)" d="M 305.053759 339.36 
L 312.748933 339.36 
L 312.748933 115.149079 
L 305.053759 115.149079 
z
" style="fill:#377eb8;opacity:0.35;stroke:#ffffff;stroke-linejoin:miter;"/>
   </g>
   <g id="patch_31">
    <path clip-path="url(#pd60c58cfe4)" d="M 312.748933 339.36 
L 320.444107 339.36 
L 320.444107 137.063079 
L 312.748933 137.063079 
z
" style="fill:#377eb8;opacity:0.35;stroke:#ffffff;stroke-linejoin:miter;"/>
   </g>
   <g id="patch_32">
    <path clip-path="url(#pd60c58cfe4)" d="M 320.444107 339.36 
L 328.139281 339.36 
L 328.139281 159.878647 
L 320.444107 159.878647 
z
" style="fill:#377eb8;opacity:0.35;stroke:#ffffff;stroke-linejoin:miter;"/>
   </g>
   <g id="patch_33">
    <path clip-path="url(#pd60c58cfe4)" d="M 328.139281 339.36 
L 335.834455 339.36 
L 335.834455 181.806983 
L 328.139281 181.806983 
z
" style="fill:#377eb8;opacity:0.35;stroke:#ffffff;stroke-linejoin:miter;"/>
   </g>
   <g id="patch_34">
    <path clip-path="url(#pd60c58cfe4)" d="M 335.834455 339.36 
L 343.529629 339.36 
L 343.529629 206.987176 
L 335.834455 206.987176 
z
" style="fill:#377eb8;opacity:0.35;stroke:#ffffff;stroke-linejoin:miter;"/>
   </g>
   <g id="patch_35">
    <path clip-path="url(#pd60c58cfe4)" d="M 343.529629 339.36 
L 351.224803 339.36 
L 351.224803 228.351633 
L 343.529629 228.351633 
z
" style="fill:#377eb8;opacity:0.35;stroke:#ffffff;stroke-linejoin:miter;"/>
   </g>
   <g id="patch_36">
    <path clip-path="url(#pd60c58cfe4)" d="M 351.224803 339.36 
L 358.919977 339.36 
L 358.919977 248.800187 
L 351.224803 248.800187 
z
" style="fill:#377eb8;opacity:0.35;stroke:#ffffff;stroke-linejoin:miter;"/>
   </g>
   <g id="patch_37">
    <path clip-path="url(#pd60c58cfe4)" d="M 358.919977 339.36 
L 366.615151 339.36 
L 366.615151 259.432638 
L 358.919977 259.432638 
z
" style="fill:#377eb8;opacity:0.35;stroke:#ffffff;stroke-linejoin:miter;"/>
   </g>
   <g id="patch_38">
    <path clip-path="url(#pd60c58cfe4)" d="M 366.615151 339.36 
L 374.310325 339.36 
L 374.310325 270.060311 
L 366.615151 270.060311 
z
" style="fill:#377eb8;opacity:0.35;stroke:#ffffff;stroke-linejoin:miter;"/>
   </g>
   <g id="patch_39">
    <path clip-path="url(#pd60c58cfe4)" d="M 374.310325 339.36 
L 382.005499 339.36 
L 382.005499 284.763358 
L 374.310325 284.763358 
z
" style="fill:#377eb8;opacity:0.35;stroke:#ffffff;stroke-linejoin:miter;"/>
   </g>
   <g id="patch_40">
    <path clip-path="url(#pd60c58cfe4)" d="M 382.005499 339.36 
L 389.700673 339.36 
L 389.700673 299.588261 
L 382.005499 299.588261 
z
" style="fill:#377eb8;opacity:0.35;stroke:#ffffff;stroke-linejoin:miter;"/>
   </g>
   <g id="patch_41">
    <path clip-path="url(#pd60c58cfe4)" d="M 389.700673 339.36 
L 397.395847 339.36 
L 397.395847 315.852327 
L 389.700673 315.852327 
z
" style="fill:#377eb8;opacity:0.35;stroke:#ffffff;stroke-linejoin:miter;"/>
   </g>
   <g id="patch_42">
    <path clip-path="url(#pd60c58cfe4)" d="M 397.395847 339.36 
L 405.091021 339.36 
L 405.091021 322.305867 
L 397.395847 322.305867 
z
" style="fill:#377eb8;opacity:0.35;stroke:#ffffff;stroke-linejoin:miter;"/>
   </g>
   <g id="patch_43">
    <path clip-path="url(#pd60c58cfe4)" d="M 405.091021 339.36 
L 412.786195 339.36 
L 412.786195 326.740435 
L 405.091021 326.740435 
z
" style="fill:#377eb8;opacity:0.35;stroke:#ffffff;stroke-linejoin:miter;"/>
   </g>
   <g id="patch_44">
    <path clip-path="url(#pd60c58cfe4)" d="M 412.786195 339.36 
L 420.481369 339.36 
L 420.481369 330.472545 
L 412.786195 330.472545 
z
" style="fill:#377eb8;opacity:0.35;stroke:#ffffff;stroke-linejoin:miter;"/>
   </g>
   <g id="patch_45">
    <path clip-path="url(#pd60c58cfe4)" d="M 420.481369 339.36 
L 428.176543 339.36 
L 428.176543 333.600955 
L 420.481369 333.600955 
z
" style="fill:#377eb8;opacity:0.35;stroke:#ffffff;stroke-linejoin:miter;"/>
   </g>
   <g id="patch_46">
    <path clip-path="url(#pd60c58cfe4)" d="M 428.176543 339.36 
L 435.871717 339.36 
L 435.871717 335.376216 
L 428.176543 335.376216 
z
" style="fill:#377eb8;opacity:0.35;stroke:#ffffff;stroke-linejoin:miter;"/>
   </g>
   <g id="patch_47">
    <path clip-path="url(#pd60c58cfe4)" d="M 435.871717 339.36 
L 443.566891 339.36 
L 443.566891 336.677596 
L 435.871717 336.677596 
z
" style="fill:#377eb8;opacity:0.35;stroke:#ffffff;stroke-linejoin:miter;"/>
   </g>
   <g id="patch_48">
    <path clip-path="url(#pd60c58cfe4)" d="M 443.566891 339.36 
L 451.262065 339.36 
L 451.262065 337.673144 
L 443.566891 337.673144 
z
" style="fill:#377eb8;opacity:0.35;stroke:#ffffff;stroke-linejoin:miter;"/>
   </g>
   <g id="patch_49">
    <path clip-path="url(#pd60c58cfe4)" d="M 451.262065 339.36 
L 458.957239 339.36 
L 458.957239 338.367638 
L 451.262065 338.367638 
z
" style="fill:#377eb8;opacity:0.35;stroke:#ffffff;stroke-linejoin:miter;"/>
   </g>
   <g id="patch_50">
    <path clip-path="url(#pd60c58cfe4)" d="M 458.957239 339.36 
L 466.652414 339.36 
L 466.652414 338.70931 
L 458.957239 338.70931 
z
" style="fill:#377eb8;opacity:0.35;stroke:#ffffff;stroke-linejoin:miter;"/>
   </g>
   <g id="patch_51">
    <path clip-path="url(#pd60c58cfe4)" d="M 466.652414 339.36 
L 474.347588 339.36 
L 474.347588 338.935498 
L 466.652414 338.935498 
z
" style="fill:#377eb8;opacity:0.35;stroke:#ffffff;stroke-linejoin:miter;"/>
   </g>
   <g id="patch_52">
    <path clip-path="url(#pd60c58cfe4)" d="M 97.284061 339.36 
L 104.979235 339.36 
L 104.979235 336.4608 
L 97.284061 336.4608 
z
" style="fill:#ff7f00;opacity:0.35;stroke:#ffffff;stroke-linejoin:miter;"/>
   </g>
   <g id="patch_53">
    <path clip-path="url(#pd60c58cfe4)" d="M 104.979235 339.36 
L 112.674409 339.36 
L 112.674409 336.046629 
L 104.979235 336.046629 
z
" style="fill:#ff7f00;opacity:0.35;stroke:#ffffff;stroke-linejoin:miter;"/>
   </g>
   <g id="patch_54">
    <path clip-path="url(#pd60c58cfe4)" d="M 112.674409 339.36 
L 120.369583 339.36 
L 120.369583 338.945829 
L 112.674409 338.945829 
z
" style="fill:#ff7f00;opacity:0.35;stroke:#ffffff;stroke-linejoin:miter;"/>
   </g>
   <g id="patch_55">
    <path clip-path="url(#pd60c58cfe4)" d="M 120.369583 339.36 
L 128.064757 339.36 
L 128.064757 339.36 
L 120.369583 339.36 
z
" style="fill:#ff7f00;opacity:0.35;stroke:#ffffff;stroke-linejoin:miter;"/>
   </g>
   <g id="patch_56">
    <path clip-path="url(#pd60c58cfe4)" d="M 128.064757 339.36 
L 135.759931 339.36 
L 135.759931 339.36 
L 128.064757 339.36 
z
" style="fill:#ff7f00;opacity:0.35;stroke:#ffffff;stroke-linejoin:miter;"/>
   </g>
   <g id="patch_57">
    <path clip-path="url(#pd60c58cfe4)" d="M 135.759931 339.36 
L 143.455105 339.36 
L 143.455105 338.945829 
L 135.759931 338.945829 
z
" style="fill:#ff7f00;opacity:0.35;stroke:#ffffff;stroke-linejoin:miter;"/>
   </g>
   <g id="patch_58">
    <path clip-path="url(#pd60c58cfe4)" d="M 143.455105 339.36 
L 151.150279 339.36 
L 151.150279 339.36 
L 143.455105 339.36 
z
" style="fill:#ff7f00;opacity:0.35;stroke:#ffffff;stroke-linejoin:miter;"/>
   </g>
   <g id="patch_59">
    <path clip-path="url(#pd60c58cfe4)" d="M 151.150279 339.36 
L 158.845453 339.36 
L 158.845453 338.945829 
L 151.150279 338.945829 
z
" style="fill:#ff7f00;opacity:0.35;stroke:#ffffff;stroke-linejoin:miter;"/>
   </g>
   <g id="patch_60">
    <path clip-path="url(#pd60c58cfe4)" d="M 158.845453 339.36 
L 166.540627 339.36 
L 166.540627 339.36 
L 158.845453 339.36 
z
" style="fill:#ff7f00;opacity:0.35;stroke:#ffffff;stroke-linejoin:miter;"/>
   </g>
   <g id="patch_61">
    <path clip-path="url(#pd60c58cfe4)" d="M 166.540627 339.36 
L 174.235801 339.36 
L 174.235801 339.36 
L 166.540627 339.36 
z
" style="fill:#ff7f00;opacity:0.35;stroke:#ffffff;stroke-linejoin:miter;"/>
   </g>
   <g id="patch_62">
    <path clip-path="url(#pd60c58cfe4)" d="M 174.235801 339.36 
L 181.930975 339.36 
L 181.930975 337.703314 
L 174.235801 337.703314 
z
" style="fill:#ff7f00;opacity:0.35;stroke:#ffffff;stroke-linejoin:miter;"/>
   </g>
   <g id="patch_63">
    <path clip-path="url(#pd60c58cfe4)" d="M 181.930975 339.36 
L 189.626149 339.36 
L 189.626149 338.945829 
L 181.930975 338.945829 
z
" style="fill:#ff7f00;opacity:0.35;stroke:#ffffff;stroke-linejoin:miter;"/>
   </g>
   <g id="patch_64">
    <path clip-path="url(#pd60c58cfe4)" d="M 189.626149 339.36 
L 197.321323 339.36 
L 197.321323 336.4608 
L 189.626149 336.4608 
z
" style="fill:#ff7f00;opacity:0.35;stroke:#ffffff;stroke-linejoin:miter;"/>
   </g>
   <g id="patch_65">
    <path clip-path="url(#pd60c58cfe4)" d="M 197.321323 339.36 
L 205.016497 339.36 
L 205.016497 335.632457 
L 197.321323 335.632457 
z
" style="fill:#ff7f00;opacity:0.35;stroke:#ffffff;stroke-linejoin:miter;"/>
   </g>
   <g id="patch_66">
    <path clip-path="url(#pd60c58cfe4)" d="M 205.016497 339.36 
L 212.711671 339.36 
L 212.711671 331.076571 
L 205.016497 331.076571 
z
" style="fill:#ff7f00;opacity:0.35;stroke:#ffffff;stroke-linejoin:miter;"/>
   </g>
   <g id="patch_67">
    <path clip-path="url(#pd60c58cfe4)" d="M 212.711671 339.36 
L 220.406845 339.36 
L 220.406845 321.9648 
L 212.711671 321.9648 
z
" style="fill:#ff7f00;opacity:0.35;stroke:#ffffff;stroke-linejoin:miter;"/>
   </g>
   <g id="patch_68">
    <path clip-path="url(#pd60c58cfe4)" d="M 220.406845 339.36 
L 228.102019 339.36 
L 228.102019 313.681371 
L 220.406845 313.681371 
z
" style="fill:#ff7f00;opacity:0.35;stroke:#ffffff;stroke-linejoin:miter;"/>
   </g>
   <g id="patch_69">
    <path clip-path="url(#pd60c58cfe4)" d="M 228.102019 339.36 
L 235.797193 339.36 
L 235.797193 299.599543 
L 228.102019 299.599543 
z
" style="fill:#ff7f00;opacity:0.35;stroke:#ffffff;stroke-linejoin:miter;"/>
   </g>
   <g id="patch_70">
    <path clip-path="url(#pd60c58cfe4)" d="M 235.797193 339.36 
L 243.492367 339.36 
L 243.492367 271.850057 
L 235.797193 271.850057 
z
" style="fill:#ff7f00;opacity:0.35;stroke:#ffffff;stroke-linejoin:miter;"/>
   </g>
   <g id="patch_71">
    <path clip-path="url(#pd60c58cfe4)" d="M 243.492367 339.36 
L 251.187541 339.36 
L 251.187541 227.119543 
L 243.492367 227.119543 
z
" style="fill:#ff7f00;opacity:0.35;stroke:#ffffff;stroke-linejoin:miter;"/>
   </g>
   <g id="patch_72">
    <path clip-path="url(#pd60c58cfe4)" d="M 251.187541 339.36 
L 258.882715 339.36 
L 258.882715 222.149486 
L 251.187541 222.149486 
z
" style="fill:#ff7f00;opacity:0.35;stroke:#ffffff;stroke-linejoin:miter;"/>
   </g>
   <g id="patch_73">
    <path clip-path="url(#pd60c58cfe4)" d="M 258.882715 339.36 
L 266.577889 339.36 
L 266.577889 197.713371 
L 258.882715 197.713371 
z
" style="fill:#ff7f00;opacity:0.35;stroke:#ffffff;stroke-linejoin:miter;"/>
   </g>
   <g id="patch_74">
    <path clip-path="url(#pd60c58cfe4)" d="M 266.577889 339.36 
L 274.273063 339.36 
L 274.273063 150.497829 
L 266.577889 150.497829 
z
" style="fill:#ff7f00;opacity:0.35;stroke:#ffffff;stroke-linejoin:miter;"/>
   </g>
   <g id="patch_75">
    <path clip-path="url(#pd60c58cfe4)" d="M 274.273063 339.36 
L 281.968237 339.36 
L 281.968237 108.252343 
L 274.273063 108.252343 
z
" style="fill:#ff7f00;opacity:0.35;stroke:#ffffff;stroke-linejoin:miter;"/>
   </g>
   <g id="patch_76">
    <path clip-path="url(#pd60c58cfe4)" d="M 281.968237 339.36 
L 289.663411 339.36 
L 289.663411 95.8272 
L 281.968237 95.8272 
z
" style="fill:#ff7f00;opacity:0.35;stroke:#ffffff;stroke-linejoin:miter;"/>
   </g>
   <g id="patch_77">
    <path clip-path="url(#pd60c58cfe4)" d="M 289.663411 339.36 
L 297.358585 339.36 
L 297.358585 49.025829 
L 289.663411 49.025829 
z
" style="fill:#ff7f00;opacity:0.35;stroke:#ffffff;stroke-linejoin:miter;"/>
   </g>
   <g id="patch_78">
    <path clip-path="url(#pd60c58cfe4)" d="M 297.358585 339.36 
L 305.053759 339.36 
L 305.053759 40.7424 
L 297.358585 40.7424 
z
" style="fill:#ff7f00;opacity:0.35;stroke:#ffffff;stroke-linejoin:miter;"/>
   </g>
   <g id="patch_79">
    <path clip-path="url(#pd60c58cfe4)" d="M 305.053759 339.36 
L 312.748933 339.36 
L 312.748933 28.731429 
L 305.053759 28.731429 
z
" style="fill:#ff7f00;opacity:0.35;stroke:#ffffff;stroke-linejoin:miter;"/>
   </g>
   <g id="patch_80">
    <path clip-path="url(#pd60c58cfe4)" d="M 312.748933 339.36 
L 320.444107 339.36 
L 320.444107 53.995886 
L 312.748933 53.995886 
z
" style="fill:#ff7f00;opacity:0.35;stroke:#ffffff;stroke-linejoin:miter;"/>
   </g>
   <g id="patch_81">
    <path clip-path="url(#pd60c58cfe4)" d="M 320.444107 339.36 
L 328.139281 339.36 
L 328.139281 64.350171 
L 320.444107 64.350171 
z
" style="fill:#ff7f00;opacity:0.35;stroke:#ffffff;stroke-linejoin:miter;"/>
   </g>
   <g id="patch_82">
    <path clip-path="url(#pd60c58cfe4)" d="M 328.139281 339.36 
L 335.834455 339.36 
L 335.834455 107.424 
L 328.139281 107.424 
z
" style="fill:#ff7f00;opacity:0.35;stroke:#ffffff;stroke-linejoin:miter;"/>
   </g>
   <g id="patch_83">
    <path clip-path="url(#pd60c58cfe4)" d="M 335.834455 339.36 
L 343.529629 339.36 
L 343.529629 101.211429 
L 335.834455 101.211429 
z
" style="fill:#ff7f00;opacity:0.35;stroke:#ffffff;stroke-linejoin:miter;"/>
   </g>
   <g id="patch_84">
    <path clip-path="url(#pd60c58cfe4)" d="M 343.529629 339.36 
L 351.224803 339.36 
L 351.224803 121.92 
L 343.529629 121.92 
z
" style="fill:#ff7f00;opacity:0.35;stroke:#ffffff;stroke-linejoin:miter;"/>
   </g>
   <g id="patch_85">
    <path clip-path="url(#pd60c58cfe4)" d="M 351.224803 339.36 
L 358.919977 339.36 
L 358.919977 159.195429 
L 351.224803 159.195429 
z
" style="fill:#ff7f00;opacity:0.35;stroke:#ffffff;stroke-linejoin:miter;"/>
   </g>
   <g id="patch_86">
    <path clip-path="url(#pd60c58cfe4)" d="M 358.919977 339.36 
L 366.615151 339.36 
L 366.615151 172.863086 
L 358.919977 172.863086 
z
" style="fill:#ff7f00;opacity:0.35;stroke:#ffffff;stroke-linejoin:miter;"/>
   </g>
   <g id="patch_87">
    <path clip-path="url(#pd60c58cfe4)" d="M 366.615151 339.36 
L 374.310325 339.36 
L 374.310325 203.0976 
L 366.615151 203.0976 
z
" style="fill:#ff7f00;opacity:0.35;stroke:#ffffff;stroke-linejoin:miter;"/>
   </g>
   <g id="patch_88">
    <path clip-path="url(#pd60c58cfe4)" d="M 374.310325 339.36 
L 382.005499 339.36 
L 382.005499 240.7872 
L 374.310325 240.7872 
z
" style="fill:#ff7f00;opacity:0.35;stroke:#ffffff;stroke-linejoin:miter;"/>
   </g>
   <g id="patch_89">
    <path clip-path="url(#pd60c58cfe4)" d="M 382.005499 339.36 
L 389.700673 339.36 
L 389.700673 256.111543 
L 382.005499 256.111543 
z
" style="fill:#ff7f00;opacity:0.35;stroke:#ffffff;stroke-linejoin:miter;"/>
   </g>
   <g id="patch_90">
    <path clip-path="url(#pd60c58cfe4)" d="M 389.700673 339.36 
L 397.395847 339.36 
L 397.395847 278.4768 
L 389.700673 278.4768 
z
" style="fill:#ff7f00;opacity:0.35;stroke:#ffffff;stroke-linejoin:miter;"/>
   </g>
   <g id="patch_91">
    <path clip-path="url(#pd60c58cfe4)" d="M 397.395847 339.36 
L 405.091021 339.36 
L 405.091021 303.741257 
L 397.395847 303.741257 
z
" style="fill:#ff7f00;opacity:0.35;stroke:#ffffff;stroke-linejoin:miter;"/>
   </g>
   <g id="patch_92">
    <path clip-path="url(#pd60c58cfe4)" d="M 405.091021 339.36 
L 412.786195 339.36 
L 412.786195 314.509714 
L 405.091021 314.509714 
z
" style="fill:#ff7f00;opacity:0.35;stroke:#ffffff;stroke-linejoin:miter;"/>
   </g>
   <g id="patch_93">
    <path clip-path="url(#pd60c58cfe4)" d="M 412.786195 339.36 
L 420.481369 339.36 
L 420.481369 325.692343 
L 412.786195 325.692343 
z
" style="fill:#ff7f00;opacity:0.35;stroke:#ffffff;stroke-linejoin:miter;"/>
   </g>
   <g id="patch_94">
    <path clip-path="url(#pd60c58cfe4)" d="M 420.481369 339.36 
L 428.176543 339.36 
L 428.176543 329.834057 
L 420.481369 329.834057 
z
" style="fill:#ff7f00;opacity:0.35;stroke:#ffffff;stroke-linejoin:miter;"/>
   </g>
   <g id="patch_95">
    <path clip-path="url(#pd60c58cfe4)" d="M 428.176543 339.36 
L 435.871717 339.36 
L 435.871717 331.076571 
L 428.176543 331.076571 
z
" style="fill:#ff7f00;opacity:0.35;stroke:#ffffff;stroke-linejoin:miter;"/>
   </g>
   <g id="patch_96">
    <path clip-path="url(#pd60c58cfe4)" d="M 435.871717 339.36 
L 443.566891 339.36 
L 443.566891 335.632457 
L 435.871717 335.632457 
z
" style="fill:#ff7f00;opacity:0.35;stroke:#ffffff;stroke-linejoin:miter;"/>
   </g>
   <g id="patch_97">
    <path clip-path="url(#pd60c58cfe4)" d="M 443.566891 339.36 
L 451.262065 339.36 
L 451.262065 337.703314 
L 443.566891 337.703314 
z
" style="fill:#ff7f00;opacity:0.35;stroke:#ffffff;stroke-linejoin:miter;"/>
   </g>
   <g id="patch_98">
    <path clip-path="url(#pd60c58cfe4)" d="M 451.262065 339.36 
L 458.957239 339.36 
L 458.957239 338.531657 
L 451.262065 338.531657 
z
" style="fill:#ff7f00;opacity:0.35;stroke:#ffffff;stroke-linejoin:miter;"/>
   </g>
   <g id="patch_99">
    <path clip-path="url(#pd60c58cfe4)" d="M 458.957239 339.36 
L 466.652414 339.36 
L 466.652414 339.36 
L 458.957239 339.36 
z
" style="fill:#ff7f00;opacity:0.35;stroke:#ffffff;stroke-linejoin:miter;"/>
   </g>
   <g id="patch_100">
    <path clip-path="url(#pd60c58cfe4)" d="M 466.652414 339.36 
L 474.347588 339.36 
L 474.347588 339.36 
L 466.652414 339.36 
z
" style="fill:#ff7f00;opacity:0.35;stroke:#ffffff;stroke-linejoin:miter;"/>
   </g>
   <g id="line2d_15">
    <path clip-path="url(#pd60c58cfe4)" d="M 90.031082 339.35306 
L 93.126323 339.224082 
L 95.447754 338.850775 
L 97.769185 338.25797 
L 99.316806 337.706559 
L 100.864426 336.900074 
L 103.959667 334.906571 
L 104.733478 334.785172 
L 105.507288 334.990995 
L 106.281098 335.500535 
L 109.37634 338.189434 
L 110.15015 338.569323 
L 111.697771 338.96176 
L 114.019202 339.122032 
L 124.078736 339.217645 
L 150.388286 339.211991 
L 155.804959 339.056777 
L 158.12639 338.822391 
L 160.447821 338.37047 
L 162.769251 337.606546 
L 164.316872 336.856235 
L 165.864493 335.834952 
L 167.412113 334.478656 
L 168.959734 332.730103 
L 170.507355 330.67913 
L 172.054975 328.36653 
L 175.924027 321.925315 
L 177.471647 318.985092 
L 179.019268 315.696892 
L 182.114509 308.708619 
L 185.983561 301.113959 
L 187.531182 297.278304 
L 189.852613 290.494844 
L 192.174043 283.280557 
L 196.816905 267.619901 
L 199.912147 256.805014 
L 202.233578 247.412155 
L 205.328819 234.221045 
L 209.19787 221.126489 
L 210.745491 215.802972 
L 213.066922 207.403553 
L 216.935974 195.349298 
L 222.352646 181.453882 
L 224.674077 175.85916 
L 226.221697 172.726954 
L 229.316939 165.463292 
L 230.864559 161.249911 
L 232.41218 156.819943 
L 233.959801 152.622842 
L 235.507421 148.049529 
L 239.376473 137.806841 
L 243.245524 127.206954 
L 244.019335 125.862568 
L 244.793145 125.054242 
L 245.566955 124.490044 
L 246.340766 124.068274 
L 247.114576 124.012919 
L 247.888386 124.54825 
L 249.436007 126.712501 
L 250.983628 129.11677 
L 253.305058 133.982801 
L 254.078869 135.054424 
L 254.852679 135.745099 
L 255.626489 136.184924 
L 256.4003 136.299279 
L 257.17411 135.927912 
L 259.495541 133.611597 
L 260.269351 133.00302 
L 261.043162 132.166655 
L 264.138403 127.380586 
L 266.459834 123.197029 
L 267.233644 122.461249 
L 268.781265 121.499172 
L 269.555075 120.657071 
L 271.102696 118.568977 
L 271.876506 117.27425 
L 272.650316 115.536587 
L 274.197937 111.414351 
L 276.519368 106.448118 
L 277.293178 104.798698 
L 278.066989 103.565503 
L 278.840799 102.985766 
L 280.38842 102.646407 
L 281.16223 102.365212 
L 281.93604 102.235143 
L 284.257471 102.706843 
L 285.805092 102.347058 
L 288.126523 102.89685 
L 289.674143 102.607317 
L 290.447954 102.850447 
L 291.221764 103.229197 
L 291.995574 103.413959 
L 292.769385 103.423107 
L 293.543195 103.616798 
L 294.317005 104.210413 
L 295.090816 104.973446 
L 295.864626 105.520839 
L 297.412247 106.063743 
L 298.959867 106.981917 
L 299.733677 107.190626 
L 300.507488 107.233855 
L 301.281298 107.499119 
L 302.055108 108.206079 
L 303.602729 110.017209 
L 304.376539 110.811768 
L 305.15035 111.852005 
L 306.69797 114.98634 
L 309.019401 119.689479 
L 311.340832 126.121637 
L 312.888453 130.595152 
L 315.983694 141.324444 
L 318.305125 147.874341 
L 320.626556 153.795132 
L 324.495608 166.881168 
L 326.043228 171.202464 
L 328.364659 176.757877 
L 330.68609 184.166653 
L 333.007521 191.83239 
L 334.555142 197.018082 
L 341.519435 217.963166 
L 344.614676 226.205171 
L 346.936107 232.109954 
L 348.483727 236.252603 
L 350.805158 242.496167 
L 353.126589 248.412641 
L 353.9004 250.016361 
L 354.67421 251.307292 
L 355.44802 252.353525 
L 356.221831 253.207031 
L 358.543262 255.288959 
L 359.317072 256.434897 
L 360.864692 259.714798 
L 362.412313 263.07889 
L 363.959934 265.952501 
L 364.733744 267.090597 
L 365.507554 267.968785 
L 367.055175 269.264588 
L 369.376606 271.038771 
L 370.150416 271.893541 
L 370.924227 273.130612 
L 372.471847 276.55034 
L 374.793278 281.806239 
L 376.340899 284.873872 
L 379.43614 290.543386 
L 386.400433 304.76758 
L 389.495674 311.440836 
L 391.817105 315.934342 
L 393.364726 318.206311 
L 394.138536 319.052213 
L 395.686157 320.2568 
L 411.162363 328.838191 
L 414.257604 330.253671 
L 417.352846 331.715815 
L 419.674277 332.6533 
L 422.769518 333.679388 
L 425.864759 334.420113 
L 429.733811 335.280426 
L 432.829052 336.003812 
L 435.924293 336.469081 
L 452.17431 338.276914 
L 456.817172 338.560784 
L 481.579102 339.323861 
L 485.448153 339.356549 
L 485.448153 339.356549 
" style="fill:none;stroke:#4c72b0;stroke-linecap:round;stroke-width:1.5;"/>
   </g>
   <g id="line2d_16">
    <path clip-path="url(#pd60c58cfe4)" d="M 79.629972 339.339464 
L 85.784708 339.194021 
L 89.631418 338.871537 
L 92.708786 338.404898 
L 101.94089 336.773856 
L 104.248916 336.732399 
L 106.556942 336.921253 
L 109.63431 337.434773 
L 115.789046 338.58816 
L 119.635756 339.024896 
L 123.482466 339.228057 
L 128.867861 339.281791 
L 167.334961 338.951998 
L 181.95246 338.027005 
L 186.568512 337.575578 
L 190.415222 336.994137 
L 194.261932 336.179132 
L 196.569958 335.515668 
L 198.877984 334.649802 
L 201.18601 333.519204 
L 203.494036 332.083953 
L 205.802062 330.343601 
L 208.110088 328.336515 
L 211.187456 325.340473 
L 214.264824 322.046489 
L 217.342192 318.397831 
L 219.650218 315.320709 
L 221.958244 311.835786 
L 224.26627 307.821345 
L 225.804955 304.78205 
L 227.343639 301.398689 
L 228.882323 297.624641 
L 230.421007 293.419772 
L 232.729033 286.258788 
L 235.037059 278.119777 
L 238.114427 266.164408 
L 242.730479 247.975296 
L 245.038505 239.715774 
L 247.346531 232.294972 
L 249.654557 225.605695 
L 256.578635 206.368781 
L 258.886661 198.877096 
L 261.194687 190.306182 
L 263.502713 180.505961 
L 265.810739 169.505605 
L 268.888107 153.406799 
L 275.042844 120.565373 
L 277.35087 109.56944 
L 279.658896 99.715823 
L 281.966922 90.897717 
L 285.04429 80.212965 
L 288.891 67.67379 
L 291.968368 58.281412 
L 294.276394 51.977842 
L 295.815078 48.287849 
L 297.353762 45.088159 
L 298.892446 42.431462 
L 300.43113 40.361642 
L 301.200472 39.559578 
L 301.969814 38.919438 
L 302.739156 38.446118 
L 303.508498 38.144222 
L 304.27784 38.017803 
L 305.047182 38.070051 
L 305.816524 38.302945 
L 306.585866 38.716914 
L 307.355208 39.310546 
L 308.12455 40.080358 
L 309.663234 42.123663 
L 311.201918 44.776179 
L 312.740602 47.939451 
L 315.048628 53.393875 
L 318.125996 61.443061 
L 328.127443 88.299691 
L 330.435469 93.716096 
L 332.743495 98.627329 
L 338.898231 111.090382 
L 341.206257 116.553521 
L 343.514283 122.808044 
L 345.822309 129.803792 
L 349.669019 142.453567 
L 355.054413 160.132 
L 364.286517 189.618274 
L 367.363885 200.431603 
L 371.979937 217.627245 
L 375.826648 231.799566 
L 378.904016 242.227238 
L 381.981384 251.645817 
L 387.366778 266.928191 
L 396.598882 293.107415 
L 398.906908 298.783924 
L 401.214934 303.775091 
L 403.52296 308.092862 
L 405.830986 311.838979 
L 408.139012 315.14708 
L 410.447038 318.127897 
L 412.755064 320.83766 
L 415.06309 323.277686 
L 417.371116 325.419233 
L 419.679142 327.23739 
L 421.987168 328.736884 
L 424.295195 329.96068 
L 427.372563 331.292107 
L 434.296641 333.882775 
L 439.682035 335.76544 
L 442.759403 336.618948 
L 445.836771 337.264207 
L 450.452823 337.974694 
L 457.376901 338.801825 
L 461.992953 339.148089 
L 467.378347 339.315516 
L 472.763741 339.342678 
L 472.763741 339.342678 
" style="fill:none;stroke:#dd8452;stroke-linecap:round;stroke-width:1.5;"/>
   </g>
   <g id="patch_101">
    <path d="M 59.339063 339.36 
L 59.339063 13.2 
" style="fill:none;stroke:#262626;stroke-linecap:square;stroke-linejoin:miter;stroke-width:1.25;"/>
   </g>
   <g id="patch_102">
    <path d="M 59.339062 339.36 
L 505.739062 339.36 
" style="fill:none;stroke:#262626;stroke-linecap:square;stroke-linejoin:miter;stroke-width:1.25;"/>
   </g>
   <g id="legend_1">
    <g id="patch_103">
     <path d="M 71.039063 34.363594 
L 97.039063 34.363594 
L 97.039063 25.263594 
L 71.039063 25.263594 
z
" style="fill:#377eb8;opacity:0.35;stroke:#ffffff;stroke-linejoin:miter;"/>
    </g>
    <g id="text_17">
     <!-- Companies House -->
     <defs>
      <path d="M 58.796875 25.09375 
L 68.265625 22.703125 
Q 65.28125 11.03125 57.546875 4.90625 
Q 49.8125 -1.21875 38.625 -1.21875 
Q 27.046875 -1.21875 19.796875 3.484375 
Q 12.546875 8.203125 8.765625 17.140625 
Q 4.984375 26.078125 4.984375 36.328125 
Q 4.984375 47.515625 9.25 55.828125 
Q 13.53125 64.15625 21.40625 68.46875 
Q 29.296875 72.796875 38.765625 72.796875 
Q 49.515625 72.796875 56.828125 67.328125 
Q 64.15625 61.859375 67.046875 51.953125 
L 57.71875 49.75 
Q 55.21875 57.5625 50.484375 61.125 
Q 45.75 64.703125 38.578125 64.703125 
Q 30.328125 64.703125 24.78125 60.734375 
Q 19.234375 56.78125 16.984375 50.109375 
Q 14.75 43.453125 14.75 36.375 
Q 14.75 27.25 17.40625 20.4375 
Q 20.0625 13.625 25.671875 10.25 
Q 31.296875 6.890625 37.84375 6.890625 
Q 45.796875 6.890625 51.3125 11.46875 
Q 56.84375 16.0625 58.796875 25.09375 
z
" id="ArialMT-43"/>
      <path d="M 6.59375 -19.875 
L 6.59375 51.859375 
L 14.59375 51.859375 
L 14.59375 45.125 
Q 17.4375 49.078125 21 51.046875 
Q 24.5625 53.03125 29.640625 53.03125 
Q 36.28125 53.03125 41.359375 49.609375 
Q 46.4375 46.1875 49.015625 39.953125 
Q 51.609375 33.734375 51.609375 26.3125 
Q 51.609375 18.359375 48.75 11.984375 
Q 45.90625 5.609375 40.453125 2.21875 
Q 35.015625 -1.171875 29 -1.171875 
Q 24.609375 -1.171875 21.109375 0.6875 
Q 17.625 2.546875 15.375 5.375 
L 15.375 -19.875 
z
M 14.546875 25.640625 
Q 14.546875 15.625 18.59375 10.84375 
Q 22.65625 6.0625 28.421875 6.0625 
Q 34.28125 6.0625 38.453125 11.015625 
Q 42.625 15.96875 42.625 26.375 
Q 42.625 36.28125 38.546875 41.203125 
Q 34.46875 46.140625 28.8125 46.140625 
Q 23.1875 46.140625 18.859375 40.890625 
Q 14.546875 35.640625 14.546875 25.640625 
z
" id="ArialMT-70"/>
      <path d="M 3.078125 15.484375 
L 11.765625 16.84375 
Q 12.5 11.625 15.84375 8.84375 
Q 19.1875 6.0625 25.203125 6.0625 
Q 31.25 6.0625 34.171875 8.515625 
Q 37.109375 10.984375 37.109375 14.3125 
Q 37.109375 17.28125 34.515625 19 
Q 32.71875 20.171875 25.53125 21.96875 
Q 15.875 24.421875 12.140625 26.203125 
Q 8.40625 27.984375 6.46875 31.125 
Q 4.546875 34.28125 4.546875 38.09375 
Q 4.546875 41.546875 6.125 44.5 
Q 7.71875 47.46875 10.453125 49.421875 
Q 12.5 50.921875 16.03125 51.96875 
Q 19.578125 53.03125 23.640625 53.03125 
Q 29.734375 53.03125 34.34375 51.265625 
Q 38.96875 49.515625 41.15625 46.5 
Q 43.359375 43.5 44.1875 38.484375 
L 35.59375 37.3125 
Q 35.015625 41.3125 32.203125 43.546875 
Q 29.390625 45.796875 24.265625 45.796875 
Q 18.21875 45.796875 15.625 43.796875 
Q 13.03125 41.796875 13.03125 39.109375 
Q 13.03125 37.40625 14.109375 36.03125 
Q 15.1875 34.625 17.484375 33.6875 
Q 18.796875 33.203125 25.25 31.453125 
Q 34.578125 28.953125 38.25 27.359375 
Q 41.9375 25.78125 44.03125 22.75 
Q 46.140625 19.734375 46.140625 15.234375 
Q 46.140625 10.84375 43.578125 6.953125 
Q 41.015625 3.078125 36.171875 0.953125 
Q 31.34375 -1.171875 25.25 -1.171875 
Q 15.140625 -1.171875 9.84375 3.03125 
Q 4.546875 7.234375 3.078125 15.484375 
z
" id="ArialMT-73"/>
      <path d="M 8.015625 0 
L 8.015625 71.578125 
L 17.484375 71.578125 
L 17.484375 42.1875 
L 54.6875 42.1875 
L 54.6875 71.578125 
L 64.15625 71.578125 
L 64.15625 0 
L 54.6875 0 
L 54.6875 33.734375 
L 17.484375 33.734375 
L 17.484375 0 
z
" id="ArialMT-48"/>
     </defs>
     <g style="fill:#262626;" transform="translate(107.439063 34.363594)scale(0.13 -0.13)">
      <use xlink:href="#ArialMT-43"/>
      <use x="72.216797" xlink:href="#ArialMT-6f"/>
      <use x="127.832031" xlink:href="#ArialMT-6d"/>
      <use x="211.132812" xlink:href="#ArialMT-70"/>
      <use x="266.748047" xlink:href="#ArialMT-61"/>
      <use x="322.363281" xlink:href="#ArialMT-6e"/>
      <use x="377.978516" xlink:href="#ArialMT-69"/>
      <use x="400.195312" xlink:href="#ArialMT-65"/>
      <use x="455.810547" xlink:href="#ArialMT-73"/>
      <use x="505.810547" xlink:href="#ArialMT-20"/>
      <use x="533.59375" xlink:href="#ArialMT-48"/>
      <use x="605.810547" xlink:href="#ArialMT-6f"/>
      <use x="661.425781" xlink:href="#ArialMT-75"/>
      <use x="717.041016" xlink:href="#ArialMT-73"/>
      <use x="767.041016" xlink:href="#ArialMT-65"/>
     </g>
    </g>
    <g id="patch_104">
     <path d="M 71.039063 52.7525 
L 97.039063 52.7525 
L 97.039063 43.6525 
L 71.039063 43.6525 
z
" style="fill:#ff7f00;opacity:0.35;stroke:#ffffff;stroke-linejoin:miter;"/>
    </g>
    <g id="text_18">
     <!-- Reconciled PSCs -->
     <defs>
      <path d="M 7.859375 0 
L 7.859375 71.578125 
L 39.59375 71.578125 
Q 49.171875 71.578125 54.140625 69.640625 
Q 59.125 67.71875 62.109375 62.828125 
Q 65.09375 57.953125 65.09375 52.046875 
Q 65.09375 44.4375 60.15625 39.203125 
Q 55.21875 33.984375 44.921875 32.5625 
Q 48.6875 30.765625 50.640625 29 
Q 54.78125 25.203125 58.5 19.484375 
L 70.953125 0 
L 59.03125 0 
L 49.5625 14.890625 
Q 45.40625 21.34375 42.71875 24.75 
Q 40.046875 28.171875 37.921875 29.53125 
Q 35.796875 30.90625 33.59375 31.453125 
Q 31.984375 31.78125 28.328125 31.78125 
L 17.328125 31.78125 
L 17.328125 0 
z
M 17.328125 39.984375 
L 37.703125 39.984375 
Q 44.1875 39.984375 47.84375 41.328125 
Q 51.515625 42.671875 53.421875 45.625 
Q 55.328125 48.578125 55.328125 52.046875 
Q 55.328125 57.125 51.640625 60.390625 
Q 47.953125 63.671875 39.984375 63.671875 
L 17.328125 63.671875 
z
" id="ArialMT-52"/>
      <path d="M 7.71875 0 
L 7.71875 71.578125 
L 34.71875 71.578125 
Q 41.84375 71.578125 45.609375 70.90625 
Q 50.875 70.015625 54.4375 67.546875 
Q 58.015625 65.09375 60.1875 60.640625 
Q 62.359375 56.203125 62.359375 50.875 
Q 62.359375 41.75 56.546875 35.421875 
Q 50.734375 29.109375 35.546875 29.109375 
L 17.1875 29.109375 
L 17.1875 0 
z
M 17.1875 37.546875 
L 35.6875 37.546875 
Q 44.875 37.546875 48.734375 40.96875 
Q 52.59375 44.390625 52.59375 50.59375 
Q 52.59375 55.078125 50.3125 58.265625 
Q 48.046875 61.46875 44.34375 62.5 
Q 41.9375 63.140625 35.5 63.140625 
L 17.1875 63.140625 
z
" id="ArialMT-50"/>
      <path d="M 4.5 23 
L 13.421875 23.78125 
Q 14.0625 18.40625 16.375 14.96875 
Q 18.703125 11.53125 23.578125 9.40625 
Q 28.46875 7.28125 34.578125 7.28125 
Q 39.984375 7.28125 44.140625 8.890625 
Q 48.296875 10.5 50.3125 13.296875 
Q 52.34375 16.109375 52.34375 19.4375 
Q 52.34375 22.796875 50.390625 25.3125 
Q 48.4375 27.828125 43.953125 29.546875 
Q 41.0625 30.671875 31.203125 33.03125 
Q 21.34375 35.40625 17.390625 37.5 
Q 12.25 40.1875 9.734375 44.15625 
Q 7.234375 48.140625 7.234375 53.078125 
Q 7.234375 58.5 10.296875 63.203125 
Q 13.375 67.921875 19.28125 70.359375 
Q 25.203125 72.796875 32.421875 72.796875 
Q 40.375 72.796875 46.453125 70.234375 
Q 52.546875 67.671875 55.8125 62.6875 
Q 59.078125 57.71875 59.328125 51.421875 
L 50.25 50.734375 
Q 49.515625 57.515625 45.28125 60.984375 
Q 41.0625 64.453125 32.8125 64.453125 
Q 24.21875 64.453125 20.28125 61.296875 
Q 16.359375 58.15625 16.359375 53.71875 
Q 16.359375 49.859375 19.140625 47.359375 
Q 21.875 44.875 33.421875 42.265625 
Q 44.96875 39.65625 49.265625 37.703125 
Q 55.515625 34.8125 58.484375 30.390625 
Q 61.46875 25.984375 61.46875 20.21875 
Q 61.46875 14.5 58.203125 9.4375 
Q 54.9375 4.390625 48.796875 1.578125 
Q 42.671875 -1.21875 35.015625 -1.21875 
Q 25.296875 -1.21875 18.71875 1.609375 
Q 12.15625 4.4375 8.421875 10.125 
Q 4.6875 15.828125 4.5 23 
z
" id="ArialMT-53"/>
     </defs>
     <g style="fill:#262626;" transform="translate(107.439063 52.7525)scale(0.13 -0.13)">
      <use xlink:href="#ArialMT-52"/>
      <use x="72.216797" xlink:href="#ArialMT-65"/>
      <use x="127.832031" xlink:href="#ArialMT-63"/>
      <use x="177.832031" xlink:href="#ArialMT-6f"/>
      <use x="233.447266" xlink:href="#ArialMT-6e"/>
      <use x="289.0625" xlink:href="#ArialMT-63"/>
      <use x="339.0625" xlink:href="#ArialMT-69"/>
      <use x="361.279297" xlink:href="#ArialMT-6c"/>
      <use x="383.496094" xlink:href="#ArialMT-65"/>
      <use x="439.111328" xlink:href="#ArialMT-64"/>
      <use x="494.726562" xlink:href="#ArialMT-20"/>
      <use x="522.509766" xlink:href="#ArialMT-50"/>
      <use x="589.208984" xlink:href="#ArialMT-53"/>
      <use x="655.908203" xlink:href="#ArialMT-43"/>
      <use x="728.125" xlink:href="#ArialMT-73"/>
     </g>
    </g>
   </g>
  </g>
 </g>
 <defs>
  <clipPath id="pd60c58cfe4">
   <rect height="326.16" width="446.4" x="59.339063" y="13.2"/>
  </clipPath>
 </defs>
</svg>
