<?xml version="1.0" encoding="utf-8" standalone="no"?>
<!DOCTYPE svg PUBLIC "-//W3C//DTD SVG 1.1//EN"
  "http://www.w3.org/Graphics/SVG/1.1/DTD/svg11.dtd">
<!-- Created with matplotlib (http://matplotlib.org/) -->
<svg height="280.332836pt" version="1.1" viewBox="0 0 443.287969 280.332836" width="443.287969pt" xmlns="http://www.w3.org/2000/svg" xmlns:xlink="http://www.w3.org/1999/xlink">
 <defs>
  <style type="text/css">
*{stroke-linecap:butt;stroke-linejoin:round;}
  </style>
 </defs>
 <g id="figure_1">
  <g id="patch_1">
   <path d="M 0 280.332836 
L 443.287969 280.332836 
L 443.287969 0 
L 0 0 
z
" style="fill:#ffffff;"/>
  </g>
  <g id="axes_1">
   <g id="patch_2">
    <path d="M 60.669531 230.64 
L 395.469531 230.64 
L 395.469531 13.2 
L 60.669531 13.2 
z
" style="fill:#ffffff;"/>
   </g>
   <g id="matplotlib.axis_1">
    <g id="xtick_1">
     <g id="line2d_1">
      <path clip-path="url(#pb50c7cd86c)" d="M 60.669531 230.64 
L 60.669531 13.2 
" style="fill:none;opacity:0.125;stroke:#808080;stroke-dasharray:3.7,1.6;stroke-dashoffset:0;"/>
     </g>
     <g id="line2d_2">
      <defs>
       <path d="M 0 0 
L 0 6 
" id="m1e118feea4" style="stroke:#262626;stroke-width:1.25;"/>
      </defs>
      <g>
       <use style="fill:#262626;stroke:#262626;stroke-width:1.25;" x="60.669531" xlink:href="#m1e118feea4" y="230.64"/>
      </g>
     </g>
     <g id="text_1">
      <!-- 2009Q1 -->
      <defs>
       <path d="M 50.34375 8.453125 
L 50.34375 0 
L 3.03125 0 
Q 2.9375 3.171875 4.046875 6.109375 
Q 5.859375 10.9375 9.828125 15.625 
Q 13.8125 20.3125 21.34375 26.46875 
Q 33.015625 36.03125 37.109375 41.625 
Q 41.21875 47.21875 41.21875 52.203125 
Q 41.21875 57.421875 37.46875 61 
Q 33.734375 64.59375 27.734375 64.59375 
Q 21.390625 64.59375 17.578125 60.78125 
Q 13.765625 56.984375 13.71875 50.25 
L 4.6875 51.171875 
Q 5.609375 61.28125 11.65625 66.578125 
Q 17.71875 71.875 27.9375 71.875 
Q 38.234375 71.875 44.234375 66.15625 
Q 50.25 60.453125 50.25 52 
Q 50.25 47.703125 48.484375 43.546875 
Q 46.734375 39.40625 42.65625 34.8125 
Q 38.578125 30.21875 29.109375 22.21875 
Q 21.1875 15.578125 18.9375 13.203125 
Q 16.703125 10.84375 15.234375 8.453125 
z
" id="ArialMT-32"/>
       <path d="M 4.15625 35.296875 
Q 4.15625 48 6.765625 55.734375 
Q 9.375 63.484375 14.515625 67.671875 
Q 19.671875 71.875 27.484375 71.875 
Q 33.25 71.875 37.59375 69.546875 
Q 41.9375 67.234375 44.765625 62.859375 
Q 47.609375 58.5 49.21875 52.21875 
Q 50.828125 45.953125 50.828125 35.296875 
Q 50.828125 22.703125 48.234375 14.96875 
Q 45.65625 7.234375 40.5 3 
Q 35.359375 -1.21875 27.484375 -1.21875 
Q 17.140625 -1.21875 11.234375 6.203125 
Q 4.15625 15.140625 4.15625 35.296875 
z
M 13.1875 35.296875 
Q 13.1875 17.671875 17.3125 11.828125 
Q 21.4375 6 27.484375 6 
Q 33.546875 6 37.671875 11.859375 
Q 41.796875 17.71875 41.796875 35.296875 
Q 41.796875 52.984375 37.671875 58.78125 
Q 33.546875 64.59375 27.390625 64.59375 
Q 21.34375 64.59375 17.71875 59.46875 
Q 13.1875 52.9375 13.1875 35.296875 
z
" id="ArialMT-30"/>
       <path d="M 5.46875 16.546875 
L 13.921875 17.328125 
Q 14.984375 11.375 18.015625 8.6875 
Q 21.046875 6 25.78125 6 
Q 29.828125 6 32.875 7.859375 
Q 35.9375 9.71875 37.890625 12.8125 
Q 39.84375 15.921875 41.15625 21.1875 
Q 42.484375 26.46875 42.484375 31.9375 
Q 42.484375 32.515625 42.4375 33.6875 
Q 39.796875 29.5 35.234375 26.875 
Q 30.671875 24.265625 25.34375 24.265625 
Q 16.453125 24.265625 10.296875 30.703125 
Q 4.15625 37.15625 4.15625 47.703125 
Q 4.15625 58.59375 10.578125 65.234375 
Q 17 71.875 26.65625 71.875 
Q 33.640625 71.875 39.421875 68.109375 
Q 45.21875 64.359375 48.21875 57.390625 
Q 51.21875 50.4375 51.21875 37.25 
Q 51.21875 23.53125 48.234375 15.40625 
Q 45.265625 7.28125 39.375 3.03125 
Q 33.5 -1.21875 25.59375 -1.21875 
Q 17.1875 -1.21875 11.859375 3.4375 
Q 6.546875 8.109375 5.46875 16.546875 
z
M 41.453125 48.140625 
Q 41.453125 55.71875 37.421875 60.15625 
Q 33.40625 64.59375 27.734375 64.59375 
Q 21.875 64.59375 17.53125 59.8125 
Q 13.1875 55.03125 13.1875 47.40625 
Q 13.1875 40.578125 17.3125 36.296875 
Q 21.4375 32.03125 27.484375 32.03125 
Q 33.59375 32.03125 37.515625 36.296875 
Q 41.453125 40.578125 41.453125 48.140625 
z
" id="ArialMT-39"/>
       <path d="M 61.96875 7.671875 
Q 68.5625 3.125 74.125 1.03125 
L 71.34375 -5.5625 
Q 63.625 -2.78125 55.953125 3.21875 
Q 48 -1.21875 38.375 -1.21875 
Q 28.65625 -1.21875 20.75 3.46875 
Q 12.84375 8.15625 8.5625 16.640625 
Q 4.296875 25.140625 4.296875 35.796875 
Q 4.296875 46.390625 8.59375 55.078125 
Q 12.890625 63.765625 20.828125 68.3125 
Q 28.765625 72.859375 38.578125 72.859375 
Q 48.484375 72.859375 56.4375 68.140625 
Q 64.40625 63.421875 68.578125 54.953125 
Q 72.75 46.484375 72.75 35.84375 
Q 72.75 27 70.0625 19.9375 
Q 67.390625 12.890625 61.96875 7.671875 
z
M 41.109375 19.78125 
Q 49.3125 17.484375 54.640625 12.9375 
Q 62.984375 20.5625 62.984375 35.84375 
Q 62.984375 44.53125 60.03125 51.015625 
Q 57.078125 57.515625 51.390625 61.109375 
Q 45.703125 64.703125 38.625 64.703125 
Q 28.03125 64.703125 21.046875 57.453125 
Q 14.0625 50.203125 14.0625 35.796875 
Q 14.0625 21.828125 20.96875 14.359375 
Q 27.875 6.890625 38.625 6.890625 
Q 43.703125 6.890625 48.1875 8.796875 
Q 43.75 11.671875 38.8125 12.890625 
z
" id="ArialMT-51"/>
       <path d="M 37.25 0 
L 28.46875 0 
L 28.46875 56 
Q 25.296875 52.984375 20.140625 49.953125 
Q 14.984375 46.921875 10.890625 45.40625 
L 10.890625 53.90625 
Q 18.265625 57.375 23.78125 62.296875 
Q 29.296875 67.234375 31.59375 71.875 
L 37.25 71.875 
z
" id="ArialMT-31"/>
      </defs>
      <g style="fill:#262626;" transform="translate(42.501831 257.875768)rotate(-15)scale(0.11 -0.11)">
       <use xlink:href="#ArialMT-32"/>
       <use x="55.615234" xlink:href="#ArialMT-30"/>
       <use x="111.230469" xlink:href="#ArialMT-30"/>
       <use x="166.845703" xlink:href="#ArialMT-39"/>
       <use x="222.460938" xlink:href="#ArialMT-51"/>
       <use x="300.244141" xlink:href="#ArialMT-31"/>
      </g>
     </g>
    </g>
    <g id="xtick_2">
     <g id="line2d_3">
      <path clip-path="url(#pb50c7cd86c)" d="M 98.932388 230.64 
L 98.932388 13.2 
" style="fill:none;opacity:0.125;stroke:#808080;stroke-dasharray:3.7,1.6;stroke-dashoffset:0;"/>
     </g>
     <g id="line2d_4">
      <g>
       <use style="fill:#262626;stroke:#262626;stroke-width:1.25;" x="98.932388" xlink:href="#m1e118feea4" y="230.64"/>
      </g>
     </g>
     <g id="text_2">
      <!-- 2010Q1 -->
      <g style="fill:#262626;" transform="translate(80.764688 257.875768)rotate(-15)scale(0.11 -0.11)">
       <use xlink:href="#ArialMT-32"/>
       <use x="55.615234" xlink:href="#ArialMT-30"/>
       <use x="111.230469" xlink:href="#ArialMT-31"/>
       <use x="166.845703" xlink:href="#ArialMT-30"/>
       <use x="222.460938" xlink:href="#ArialMT-51"/>
       <use x="300.244141" xlink:href="#ArialMT-31"/>
      </g>
     </g>
    </g>
    <g id="xtick_3">
     <g id="line2d_5">
      <path clip-path="url(#pb50c7cd86c)" d="M 137.195246 230.64 
L 137.195246 13.2 
" style="fill:none;opacity:0.125;stroke:#808080;stroke-dasharray:3.7,1.6;stroke-dashoffset:0;"/>
     </g>
     <g id="line2d_6">
      <g>
       <use style="fill:#262626;stroke:#262626;stroke-width:1.25;" x="137.195246" xlink:href="#m1e118feea4" y="230.64"/>
      </g>
     </g>
     <g id="text_3">
      <!-- 2011Q1 -->
      <g style="fill:#262626;" transform="translate(119.033356 257.872654)rotate(-15)scale(0.11 -0.11)">
       <use xlink:href="#ArialMT-32"/>
       <use x="55.615234" xlink:href="#ArialMT-30"/>
       <use x="111.230469" xlink:href="#ArialMT-31"/>
       <use x="166.736328" xlink:href="#ArialMT-31"/>
       <use x="222.351562" xlink:href="#ArialMT-51"/>
       <use x="300.134766" xlink:href="#ArialMT-31"/>
      </g>
     </g>
    </g>
    <g id="xtick_4">
     <g id="line2d_7">
      <path clip-path="url(#pb50c7cd86c)" d="M 175.458103 230.64 
L 175.458103 13.2 
" style="fill:none;opacity:0.125;stroke:#808080;stroke-dasharray:3.7,1.6;stroke-dashoffset:0;"/>
     </g>
     <g id="line2d_8">
      <g>
       <use style="fill:#262626;stroke:#262626;stroke-width:1.25;" x="175.458103" xlink:href="#m1e118feea4" y="230.64"/>
      </g>
     </g>
     <g id="text_4">
      <!-- 2012Q1 -->
      <g style="fill:#262626;" transform="translate(157.290402 257.875768)rotate(-15)scale(0.11 -0.11)">
       <use xlink:href="#ArialMT-32"/>
       <use x="55.615234" xlink:href="#ArialMT-30"/>
       <use x="111.230469" xlink:href="#ArialMT-31"/>
       <use x="166.845703" xlink:href="#ArialMT-32"/>
       <use x="222.460938" xlink:href="#ArialMT-51"/>
       <use x="300.244141" xlink:href="#ArialMT-31"/>
      </g>
     </g>
    </g>
    <g id="xtick_5">
     <g id="line2d_9">
      <path clip-path="url(#pb50c7cd86c)" d="M 213.72096 230.64 
L 213.72096 13.2 
" style="fill:none;opacity:0.125;stroke:#808080;stroke-dasharray:3.7,1.6;stroke-dashoffset:0;"/>
     </g>
     <g id="line2d_10">
      <g>
       <use style="fill:#262626;stroke:#262626;stroke-width:1.25;" x="213.72096" xlink:href="#m1e118feea4" y="230.64"/>
      </g>
     </g>
     <g id="text_5">
      <!-- 2013Q1 -->
      <defs>
       <path d="M 4.203125 18.890625 
L 12.984375 20.0625 
Q 14.5 12.59375 18.140625 9.296875 
Q 21.78125 6 27 6 
Q 33.203125 6 37.46875 10.296875 
Q 41.75 14.59375 41.75 20.953125 
Q 41.75 27 37.796875 30.921875 
Q 33.84375 34.859375 27.734375 34.859375 
Q 25.25 34.859375 21.53125 33.890625 
L 22.515625 41.609375 
Q 23.390625 41.5 23.921875 41.5 
Q 29.546875 41.5 34.03125 44.421875 
Q 38.53125 47.359375 38.53125 53.46875 
Q 38.53125 58.296875 35.25 61.46875 
Q 31.984375 64.65625 26.8125 64.65625 
Q 21.6875 64.65625 18.265625 61.421875 
Q 14.84375 58.203125 13.875 51.765625 
L 5.078125 53.328125 
Q 6.6875 62.15625 12.390625 67.015625 
Q 18.109375 71.875 26.609375 71.875 
Q 32.46875 71.875 37.390625 69.359375 
Q 42.328125 66.84375 44.9375 62.5 
Q 47.5625 58.15625 47.5625 53.265625 
Q 47.5625 48.640625 45.0625 44.828125 
Q 42.578125 41.015625 37.703125 38.765625 
Q 44.046875 37.3125 47.5625 32.6875 
Q 51.078125 28.078125 51.078125 21.140625 
Q 51.078125 11.765625 44.234375 5.25 
Q 37.40625 -1.265625 26.953125 -1.265625 
Q 17.53125 -1.265625 11.296875 4.34375 
Q 5.078125 9.96875 4.203125 18.890625 
z
" id="ArialMT-33"/>
      </defs>
      <g style="fill:#262626;" transform="translate(195.55326 257.875768)rotate(-15)scale(0.11 -0.11)">
       <use xlink:href="#ArialMT-32"/>
       <use x="55.615234" xlink:href="#ArialMT-30"/>
       <use x="111.230469" xlink:href="#ArialMT-31"/>
       <use x="166.845703" xlink:href="#ArialMT-33"/>
       <use x="222.460938" xlink:href="#ArialMT-51"/>
       <use x="300.244141" xlink:href="#ArialMT-31"/>
      </g>
     </g>
    </g>
    <g id="xtick_6">
     <g id="line2d_11">
      <path clip-path="url(#pb50c7cd86c)" d="M 251.983817 230.64 
L 251.983817 13.2 
" style="fill:none;opacity:0.125;stroke:#808080;stroke-dasharray:3.7,1.6;stroke-dashoffset:0;"/>
     </g>
     <g id="line2d_12">
      <g>
       <use style="fill:#262626;stroke:#262626;stroke-width:1.25;" x="251.983817" xlink:href="#m1e118feea4" y="230.64"/>
      </g>
     </g>
     <g id="text_6">
      <!-- 2014Q1 -->
      <defs>
       <path d="M 32.328125 0 
L 32.328125 17.140625 
L 1.265625 17.140625 
L 1.265625 25.203125 
L 33.9375 71.578125 
L 41.109375 71.578125 
L 41.109375 25.203125 
L 50.78125 25.203125 
L 50.78125 17.140625 
L 41.109375 17.140625 
L 41.109375 0 
z
M 32.328125 25.203125 
L 32.328125 57.46875 
L 9.90625 25.203125 
z
" id="ArialMT-34"/>
      </defs>
      <g style="fill:#262626;" transform="translate(233.816117 257.875768)rotate(-15)scale(0.11 -0.11)">
       <use xlink:href="#ArialMT-32"/>
       <use x="55.615234" xlink:href="#ArialMT-30"/>
       <use x="111.230469" xlink:href="#ArialMT-31"/>
       <use x="166.845703" xlink:href="#ArialMT-34"/>
       <use x="222.460938" xlink:href="#ArialMT-51"/>
       <use x="300.244141" xlink:href="#ArialMT-31"/>
      </g>
     </g>
    </g>
    <g id="xtick_7">
     <g id="line2d_13">
      <path clip-path="url(#pb50c7cd86c)" d="M 290.246674 230.64 
L 290.246674 13.2 
" style="fill:none;opacity:0.125;stroke:#808080;stroke-dasharray:3.7,1.6;stroke-dashoffset:0;"/>
     </g>
     <g id="line2d_14">
      <g>
       <use style="fill:#262626;stroke:#262626;stroke-width:1.25;" x="290.246674" xlink:href="#m1e118feea4" y="230.64"/>
      </g>
     </g>
     <g id="text_7">
      <!-- 2015Q1 -->
      <defs>
       <path d="M 4.15625 18.75 
L 13.375 19.53125 
Q 14.40625 12.796875 18.140625 9.390625 
Q 21.875 6 27.15625 6 
Q 33.5 6 37.890625 10.78125 
Q 42.28125 15.578125 42.28125 23.484375 
Q 42.28125 31 38.0625 35.34375 
Q 33.84375 39.703125 27 39.703125 
Q 22.75 39.703125 19.328125 37.765625 
Q 15.921875 35.84375 13.96875 32.765625 
L 5.71875 33.84375 
L 12.640625 70.609375 
L 48.25 70.609375 
L 48.25 62.203125 
L 19.671875 62.203125 
L 15.828125 42.96875 
Q 22.265625 47.46875 29.34375 47.46875 
Q 38.71875 47.46875 45.15625 40.96875 
Q 51.609375 34.46875 51.609375 24.265625 
Q 51.609375 14.546875 45.953125 7.46875 
Q 39.0625 -1.21875 27.15625 -1.21875 
Q 17.390625 -1.21875 11.203125 4.25 
Q 5.03125 9.71875 4.15625 18.75 
z
" id="ArialMT-35"/>
      </defs>
      <g style="fill:#262626;" transform="translate(272.078974 257.875768)rotate(-15)scale(0.11 -0.11)">
       <use xlink:href="#ArialMT-32"/>
       <use x="55.615234" xlink:href="#ArialMT-30"/>
       <use x="111.230469" xlink:href="#ArialMT-31"/>
       <use x="166.845703" xlink:href="#ArialMT-35"/>
       <use x="222.460938" xlink:href="#ArialMT-51"/>
       <use x="300.244141" xlink:href="#ArialMT-31"/>
      </g>
     </g>
    </g>
    <g id="xtick_8">
     <g id="line2d_15">
      <path clip-path="url(#pb50c7cd86c)" d="M 328.509531 230.64 
L 328.509531 13.2 
" style="fill:none;opacity:0.125;stroke:#808080;stroke-dasharray:3.7,1.6;stroke-dashoffset:0;"/>
     </g>
     <g id="line2d_16">
      <g>
       <use style="fill:#262626;stroke:#262626;stroke-width:1.25;" x="328.509531" xlink:href="#m1e118feea4" y="230.64"/>
      </g>
     </g>
     <g id="text_8">
      <!-- 2016Q1 -->
      <defs>
       <path d="M 49.75 54.046875 
L 41.015625 53.375 
Q 39.84375 58.546875 37.703125 60.890625 
Q 34.125 64.65625 28.90625 64.65625 
Q 24.703125 64.65625 21.53125 62.3125 
Q 17.390625 59.28125 14.984375 53.46875 
Q 12.59375 47.65625 12.5 36.921875 
Q 15.671875 41.75 20.265625 44.09375 
Q 24.859375 46.4375 29.890625 46.4375 
Q 38.671875 46.4375 44.84375 39.96875 
Q 51.03125 33.5 51.03125 23.25 
Q 51.03125 16.5 48.125 10.71875 
Q 45.21875 4.9375 40.140625 1.859375 
Q 35.0625 -1.21875 28.609375 -1.21875 
Q 17.625 -1.21875 10.6875 6.859375 
Q 3.765625 14.9375 3.765625 33.5 
Q 3.765625 54.25 11.421875 63.671875 
Q 18.109375 71.875 29.4375 71.875 
Q 37.890625 71.875 43.28125 67.140625 
Q 48.6875 62.40625 49.75 54.046875 
z
M 13.875 23.1875 
Q 13.875 18.65625 15.796875 14.5 
Q 17.71875 10.359375 21.1875 8.171875 
Q 24.65625 6 28.46875 6 
Q 34.03125 6 38.03125 10.484375 
Q 42.046875 14.984375 42.046875 22.703125 
Q 42.046875 30.125 38.078125 34.390625 
Q 34.125 38.671875 28.125 38.671875 
Q 22.171875 38.671875 18.015625 34.390625 
Q 13.875 30.125 13.875 23.1875 
z
" id="ArialMT-36"/>
      </defs>
      <g style="fill:#262626;" transform="translate(310.341831 257.875768)rotate(-15)scale(0.11 -0.11)">
       <use xlink:href="#ArialMT-32"/>
       <use x="55.615234" xlink:href="#ArialMT-30"/>
       <use x="111.230469" xlink:href="#ArialMT-31"/>
       <use x="166.845703" xlink:href="#ArialMT-36"/>
       <use x="222.460938" xlink:href="#ArialMT-51"/>
       <use x="300.244141" xlink:href="#ArialMT-31"/>
      </g>
     </g>
    </g>
    <g id="xtick_9">
     <g id="line2d_17">
      <path clip-path="url(#pb50c7cd86c)" d="M 366.772388 230.64 
L 366.772388 13.2 
" style="fill:none;opacity:0.125;stroke:#808080;stroke-dasharray:3.7,1.6;stroke-dashoffset:0;"/>
     </g>
     <g id="line2d_18">
      <g>
       <use style="fill:#262626;stroke:#262626;stroke-width:1.25;" x="366.772388" xlink:href="#m1e118feea4" y="230.64"/>
      </g>
     </g>
     <g id="text_9">
      <!-- 2017Q1 -->
      <defs>
       <path d="M 4.734375 62.203125 
L 4.734375 70.65625 
L 51.078125 70.65625 
L 51.078125 63.8125 
Q 44.234375 56.546875 37.515625 44.484375 
Q 30.8125 32.421875 27.15625 19.671875 
Q 24.515625 10.6875 23.78125 0 
L 14.75 0 
Q 14.890625 8.453125 18.0625 20.40625 
Q 21.234375 32.375 27.171875 43.484375 
Q 33.109375 54.59375 39.796875 62.203125 
z
" id="ArialMT-37"/>
      </defs>
      <g style="fill:#262626;" transform="translate(348.604688 257.875768)rotate(-15)scale(0.11 -0.11)">
       <use xlink:href="#ArialMT-32"/>
       <use x="55.615234" xlink:href="#ArialMT-30"/>
       <use x="111.230469" xlink:href="#ArialMT-31"/>
       <use x="166.845703" xlink:href="#ArialMT-37"/>
       <use x="222.460938" xlink:href="#ArialMT-51"/>
       <use x="300.244141" xlink:href="#ArialMT-31"/>
      </g>
     </g>
    </g>
    <g id="text_10">
     <!-- Time -->
     <defs>
      <path d="M 25.921875 0 
L 25.921875 63.140625 
L 2.34375 63.140625 
L 2.34375 71.578125 
L 59.078125 71.578125 
L 59.078125 63.140625 
L 35.40625 63.140625 
L 35.40625 0 
z
" id="ArialMT-54"/>
      <path d="M 6.640625 61.46875 
L 6.640625 71.578125 
L 15.4375 71.578125 
L 15.4375 61.46875 
z
M 6.640625 0 
L 6.640625 51.859375 
L 15.4375 51.859375 
L 15.4375 0 
z
" id="ArialMT-69"/>
      <path d="M 6.59375 0 
L 6.59375 51.859375 
L 14.453125 51.859375 
L 14.453125 44.578125 
Q 16.890625 48.390625 20.9375 50.703125 
Q 25 53.03125 30.171875 53.03125 
Q 35.9375 53.03125 39.625 50.640625 
Q 43.3125 48.25 44.828125 43.953125 
Q 50.984375 53.03125 60.84375 53.03125 
Q 68.5625 53.03125 72.703125 48.75 
Q 76.859375 44.484375 76.859375 35.59375 
L 76.859375 0 
L 68.109375 0 
L 68.109375 32.671875 
Q 68.109375 37.9375 67.25 40.25 
Q 66.40625 42.578125 64.15625 43.984375 
Q 61.921875 45.40625 58.890625 45.40625 
Q 53.421875 45.40625 49.796875 41.765625 
Q 46.1875 38.140625 46.1875 30.125 
L 46.1875 0 
L 37.40625 0 
L 37.40625 33.6875 
Q 37.40625 39.546875 35.25 42.46875 
Q 33.109375 45.40625 28.21875 45.40625 
Q 24.515625 45.40625 21.359375 43.453125 
Q 18.21875 41.5 16.796875 37.734375 
Q 15.375 33.984375 15.375 26.90625 
L 15.375 0 
z
" id="ArialMT-6d"/>
      <path d="M 42.09375 16.703125 
L 51.171875 15.578125 
Q 49.03125 7.625 43.21875 3.21875 
Q 37.40625 -1.171875 28.375 -1.171875 
Q 17 -1.171875 10.328125 5.828125 
Q 3.65625 12.84375 3.65625 25.484375 
Q 3.65625 38.578125 10.390625 45.796875 
Q 17.140625 53.03125 27.875 53.03125 
Q 38.28125 53.03125 44.875 45.953125 
Q 51.46875 38.875 51.46875 26.03125 
Q 51.46875 25.25 51.421875 23.6875 
L 12.75 23.6875 
Q 13.234375 15.140625 17.578125 10.59375 
Q 21.921875 6.0625 28.421875 6.0625 
Q 33.25 6.0625 36.671875 8.59375 
Q 40.09375 11.140625 42.09375 16.703125 
z
M 13.234375 30.90625 
L 42.1875 30.90625 
Q 41.609375 37.453125 38.875 40.71875 
Q 34.671875 45.796875 27.984375 45.796875 
Q 21.921875 45.796875 17.796875 41.75 
Q 13.671875 37.703125 13.234375 30.90625 
z
" id="ArialMT-65"/>
     </defs>
     <g style="fill:#262626;" transform="translate(216.961719 271.145336)scale(0.1 -0.1)">
      <use xlink:href="#ArialMT-54"/>
      <use x="61.037109" xlink:href="#ArialMT-69"/>
      <use x="83.253906" xlink:href="#ArialMT-6d"/>
      <use x="166.554688" xlink:href="#ArialMT-65"/>
     </g>
    </g>
   </g>
   <g id="matplotlib.axis_2">
    <g id="ytick_1">
     <g id="line2d_19">
      <path clip-path="url(#pb50c7cd86c)" d="M 60.669531 230.64 
L 395.469531 230.64 
" style="fill:none;opacity:0.125;stroke:#808080;stroke-dasharray:3.7,1.6;stroke-dashoffset:0;"/>
     </g>
     <g id="line2d_20">
      <defs>
       <path d="M 0 0 
L -6 0 
" id="m9eb45ca2e7" style="stroke:#262626;stroke-width:1.25;"/>
      </defs>
      <g>
       <use style="fill:#262626;stroke:#262626;stroke-width:1.25;" x="60.669531" xlink:href="#m9eb45ca2e7" y="230.64"/>
      </g>
     </g>
     <g id="text_11">
      <!-- £0bn -->
      <defs>
       <path d="M 19.34375 39.5 
L 34.71875 39.5 
L 34.71875 32.28125 
L 20.84375 32.28125 
Q 21.78125 30.125 21.78125 27.984375 
Q 21.78125 23.734375 19.75 19 
Q 17.71875 14.265625 13.09375 9.328125 
Q 16.9375 10.40625 20.125 10.40625 
Q 24.171875 10.40625 29.25 9.1875 
Q 37.640625 7.171875 40.625 7.171875 
Q 44.234375 7.171875 50 9.90625 
L 52.828125 1.859375 
Q 48.34375 -0.046875 45.875 -0.625 
Q 43.40625 -1.21875 40.96875 -1.21875 
Q 38.921875 -1.21875 36.8125 -0.828125 
Q 35.5 -0.59375 30.484375 0.9375 
Q 25.484375 2.484375 24.03125 2.78125 
Q 21.734375 3.171875 19.4375 3.171875 
Q 15.921875 3.171875 11.9375 1.953125 
Q 7.953125 0.734375 4.6875 -1.375 
L 1.3125 7.078125 
Q 6 9.671875 9.265625 14.46875 
Q 12.546875 19.28125 12.546875 26.21875 
Q 12.546875 29.203125 11.71875 32.28125 
L 2.15625 32.28125 
L 2.15625 39.5 
L 9.671875 39.5 
Q 8.0625 44.96875 7.609375 47.484375 
Q 7.171875 50 7.171875 52.390625 
Q 7.171875 62.546875 14.703125 68.265625 
Q 20.75 72.796875 29.34375 72.796875 
Q 38.1875 72.796875 43.921875 67.9375 
Q 49.65625 63.09375 50.984375 54.296875 
L 42.234375 52.984375 
Q 41.5 58.84375 37.859375 62.203125 
Q 34.234375 65.578125 29.15625 65.578125 
Q 23.734375 65.578125 20.140625 62.078125 
Q 16.546875 58.59375 16.546875 53.65625 
Q 16.546875 48.25 19.34375 39.5 
z
" id="ArialMT-a3"/>
       <path d="M 14.703125 0 
L 6.546875 0 
L 6.546875 71.578125 
L 15.328125 71.578125 
L 15.328125 46.046875 
Q 20.90625 53.03125 29.546875 53.03125 
Q 34.328125 53.03125 38.59375 51.09375 
Q 42.875 49.171875 45.625 45.671875 
Q 48.390625 42.1875 49.953125 37.25 
Q 51.515625 32.328125 51.515625 26.703125 
Q 51.515625 13.375 44.921875 6.09375 
Q 38.328125 -1.171875 29.109375 -1.171875 
Q 19.921875 -1.171875 14.703125 6.5 
z
M 14.59375 26.3125 
Q 14.59375 17 17.140625 12.84375 
Q 21.296875 6.0625 28.375 6.0625 
Q 34.125 6.0625 38.328125 11.0625 
Q 42.53125 16.0625 42.53125 25.984375 
Q 42.53125 36.140625 38.5 40.96875 
Q 34.46875 45.796875 28.765625 45.796875 
Q 23 45.796875 18.796875 40.796875 
Q 14.59375 35.796875 14.59375 26.3125 
z
" id="ArialMT-62"/>
       <path d="M 6.59375 0 
L 6.59375 51.859375 
L 14.5 51.859375 
L 14.5 44.484375 
Q 20.21875 53.03125 31 53.03125 
Q 35.6875 53.03125 39.625 51.34375 
Q 43.5625 49.65625 45.515625 46.921875 
Q 47.46875 44.1875 48.25 40.4375 
Q 48.734375 37.984375 48.734375 31.890625 
L 48.734375 0 
L 39.9375 0 
L 39.9375 31.546875 
Q 39.9375 36.921875 38.90625 39.578125 
Q 37.890625 42.234375 35.28125 43.8125 
Q 32.671875 45.40625 29.15625 45.40625 
Q 23.53125 45.40625 19.453125 41.84375 
Q 15.375 38.28125 15.375 28.328125 
L 15.375 0 
z
" id="ArialMT-6e"/>
      </defs>
      <g style="fill:#262626;" transform="translate(26.701406 234.576797)scale(0.11 -0.11)">
       <use xlink:href="#ArialMT-a3"/>
       <use x="55.615234" xlink:href="#ArialMT-30"/>
       <use x="111.230469" xlink:href="#ArialMT-62"/>
       <use x="166.845703" xlink:href="#ArialMT-6e"/>
      </g>
     </g>
    </g>
    <g id="ytick_2">
     <g id="line2d_21">
      <path clip-path="url(#pb50c7cd86c)" d="M 60.669531 199.038023 
L 395.469531 199.038023 
" style="fill:none;opacity:0.125;stroke:#808080;stroke-dasharray:3.7,1.6;stroke-dashoffset:0;"/>
     </g>
     <g id="line2d_22">
      <g>
       <use style="fill:#262626;stroke:#262626;stroke-width:1.25;" x="60.669531" xlink:href="#m9eb45ca2e7" y="199.038023"/>
      </g>
     </g>
     <g id="text_12">
      <!-- £10bn -->
      <g style="fill:#262626;" transform="translate(20.584375 202.97482)scale(0.11 -0.11)">
       <use xlink:href="#ArialMT-a3"/>
       <use x="55.615234" xlink:href="#ArialMT-31"/>
       <use x="111.230469" xlink:href="#ArialMT-30"/>
       <use x="166.845703" xlink:href="#ArialMT-62"/>
       <use x="222.460938" xlink:href="#ArialMT-6e"/>
      </g>
     </g>
    </g>
    <g id="ytick_3">
     <g id="line2d_23">
      <path clip-path="url(#pb50c7cd86c)" d="M 60.669531 167.436046 
L 395.469531 167.436046 
" style="fill:none;opacity:0.125;stroke:#808080;stroke-dasharray:3.7,1.6;stroke-dashoffset:0;"/>
     </g>
     <g id="line2d_24">
      <g>
       <use style="fill:#262626;stroke:#262626;stroke-width:1.25;" x="60.669531" xlink:href="#m9eb45ca2e7" y="167.436046"/>
      </g>
     </g>
     <g id="text_13">
      <!-- £20bn -->
      <g style="fill:#262626;" transform="translate(20.584375 171.372843)scale(0.11 -0.11)">
       <use xlink:href="#ArialMT-a3"/>
       <use x="55.615234" xlink:href="#ArialMT-32"/>
       <use x="111.230469" xlink:href="#ArialMT-30"/>
       <use x="166.845703" xlink:href="#ArialMT-62"/>
       <use x="222.460938" xlink:href="#ArialMT-6e"/>
      </g>
     </g>
    </g>
    <g id="ytick_4">
     <g id="line2d_25">
      <path clip-path="url(#pb50c7cd86c)" d="M 60.669531 135.834069 
L 395.469531 135.834069 
" style="fill:none;opacity:0.125;stroke:#808080;stroke-dasharray:3.7,1.6;stroke-dashoffset:0;"/>
     </g>
     <g id="line2d_26">
      <g>
       <use style="fill:#262626;stroke:#262626;stroke-width:1.25;" x="60.669531" xlink:href="#m9eb45ca2e7" y="135.834069"/>
      </g>
     </g>
     <g id="text_14">
      <!-- £30bn -->
      <g style="fill:#262626;" transform="translate(20.584375 139.770866)scale(0.11 -0.11)">
       <use xlink:href="#ArialMT-a3"/>
       <use x="55.615234" xlink:href="#ArialMT-33"/>
       <use x="111.230469" xlink:href="#ArialMT-30"/>
       <use x="166.845703" xlink:href="#ArialMT-62"/>
       <use x="222.460938" xlink:href="#ArialMT-6e"/>
      </g>
     </g>
    </g>
    <g id="ytick_5">
     <g id="line2d_27">
      <path clip-path="url(#pb50c7cd86c)" d="M 60.669531 104.232092 
L 395.469531 104.232092 
" style="fill:none;opacity:0.125;stroke:#808080;stroke-dasharray:3.7,1.6;stroke-dashoffset:0;"/>
     </g>
     <g id="line2d_28">
      <g>
       <use style="fill:#262626;stroke:#262626;stroke-width:1.25;" x="60.669531" xlink:href="#m9eb45ca2e7" y="104.232092"/>
      </g>
     </g>
     <g id="text_15">
      <!-- £40bn -->
      <g style="fill:#262626;" transform="translate(20.584375 108.168889)scale(0.11 -0.11)">
       <use xlink:href="#ArialMT-a3"/>
       <use x="55.615234" xlink:href="#ArialMT-34"/>
       <use x="111.230469" xlink:href="#ArialMT-30"/>
       <use x="166.845703" xlink:href="#ArialMT-62"/>
       <use x="222.460938" xlink:href="#ArialMT-6e"/>
      </g>
     </g>
    </g>
    <g id="ytick_6">
     <g id="line2d_29">
      <path clip-path="url(#pb50c7cd86c)" d="M 60.669531 72.630115 
L 395.469531 72.630115 
" style="fill:none;opacity:0.125;stroke:#808080;stroke-dasharray:3.7,1.6;stroke-dashoffset:0;"/>
     </g>
     <g id="line2d_30">
      <g>
       <use style="fill:#262626;stroke:#262626;stroke-width:1.25;" x="60.669531" xlink:href="#m9eb45ca2e7" y="72.630115"/>
      </g>
     </g>
     <g id="text_16">
      <!-- £50bn -->
      <g style="fill:#262626;" transform="translate(20.584375 76.566912)scale(0.11 -0.11)">
       <use xlink:href="#ArialMT-a3"/>
       <use x="55.615234" xlink:href="#ArialMT-35"/>
       <use x="111.230469" xlink:href="#ArialMT-30"/>
       <use x="166.845703" xlink:href="#ArialMT-62"/>
       <use x="222.460938" xlink:href="#ArialMT-6e"/>
      </g>
     </g>
    </g>
    <g id="ytick_7">
     <g id="line2d_31">
      <path clip-path="url(#pb50c7cd86c)" d="M 60.669531 41.028138 
L 395.469531 41.028138 
" style="fill:none;opacity:0.125;stroke:#808080;stroke-dasharray:3.7,1.6;stroke-dashoffset:0;"/>
     </g>
     <g id="line2d_32">
      <g>
       <use style="fill:#262626;stroke:#262626;stroke-width:1.25;" x="60.669531" xlink:href="#m9eb45ca2e7" y="41.028138"/>
      </g>
     </g>
     <g id="text_17">
      <!-- £60bn -->
      <g style="fill:#262626;" transform="translate(20.584375 44.964935)scale(0.11 -0.11)">
       <use xlink:href="#ArialMT-a3"/>
       <use x="55.615234" xlink:href="#ArialMT-36"/>
       <use x="111.230469" xlink:href="#ArialMT-30"/>
       <use x="166.845703" xlink:href="#ArialMT-62"/>
       <use x="222.460938" xlink:href="#ArialMT-6e"/>
      </g>
     </g>
    </g>
    <g id="text_18">
     <!-- Value of Payments (£) -->
     <defs>
      <path d="M 28.171875 0 
L 0.4375 71.578125 
L 10.6875 71.578125 
L 29.296875 19.578125 
Q 31.546875 13.328125 33.0625 7.859375 
Q 34.71875 13.71875 36.921875 19.578125 
L 56.25 71.578125 
L 65.921875 71.578125 
L 37.890625 0 
z
" id="ArialMT-56"/>
      <path d="M 40.4375 6.390625 
Q 35.546875 2.25 31.03125 0.53125 
Q 26.515625 -1.171875 21.34375 -1.171875 
Q 12.796875 -1.171875 8.203125 3 
Q 3.609375 7.171875 3.609375 13.671875 
Q 3.609375 17.484375 5.34375 20.625 
Q 7.078125 23.78125 9.890625 25.6875 
Q 12.703125 27.59375 16.21875 28.5625 
Q 18.796875 29.25 24.03125 29.890625 
Q 34.671875 31.15625 39.703125 32.90625 
Q 39.75 34.71875 39.75 35.203125 
Q 39.75 40.578125 37.25 42.78125 
Q 33.890625 45.75 27.25 45.75 
Q 21.046875 45.75 18.09375 43.578125 
Q 15.140625 41.40625 13.71875 35.890625 
L 5.125 37.0625 
Q 6.296875 42.578125 8.984375 45.96875 
Q 11.671875 49.359375 16.75 51.1875 
Q 21.828125 53.03125 28.515625 53.03125 
Q 35.15625 53.03125 39.296875 51.46875 
Q 43.453125 49.90625 45.40625 47.53125 
Q 47.359375 45.171875 48.140625 41.546875 
Q 48.578125 39.3125 48.578125 33.453125 
L 48.578125 21.734375 
Q 48.578125 9.46875 49.140625 6.21875 
Q 49.703125 2.984375 51.375 0 
L 42.1875 0 
Q 40.828125 2.734375 40.4375 6.390625 
z
M 39.703125 26.03125 
Q 34.90625 24.078125 25.34375 22.703125 
Q 19.921875 21.921875 17.671875 20.9375 
Q 15.4375 19.96875 14.203125 18.09375 
Q 12.984375 16.21875 12.984375 13.921875 
Q 12.984375 10.40625 15.640625 8.0625 
Q 18.3125 5.71875 23.4375 5.71875 
Q 28.515625 5.71875 32.46875 7.9375 
Q 36.421875 10.15625 38.28125 14.015625 
Q 39.703125 17 39.703125 22.796875 
z
" id="ArialMT-61"/>
      <path d="M 6.390625 0 
L 6.390625 71.578125 
L 15.1875 71.578125 
L 15.1875 0 
z
" id="ArialMT-6c"/>
      <path d="M 40.578125 0 
L 40.578125 7.625 
Q 34.515625 -1.171875 24.125 -1.171875 
Q 19.53125 -1.171875 15.546875 0.578125 
Q 11.578125 2.34375 9.640625 5 
Q 7.71875 7.671875 6.9375 11.53125 
Q 6.390625 14.109375 6.390625 19.734375 
L 6.390625 51.859375 
L 15.1875 51.859375 
L 15.1875 23.09375 
Q 15.1875 16.21875 15.71875 13.8125 
Q 16.546875 10.359375 19.234375 8.375 
Q 21.921875 6.390625 25.875 6.390625 
Q 29.828125 6.390625 33.296875 8.421875 
Q 36.765625 10.453125 38.203125 13.9375 
Q 39.65625 17.4375 39.65625 24.078125 
L 39.65625 51.859375 
L 48.4375 51.859375 
L 48.4375 0 
z
" id="ArialMT-75"/>
      <path id="ArialMT-20"/>
      <path d="M 3.328125 25.921875 
Q 3.328125 40.328125 11.328125 47.265625 
Q 18.015625 53.03125 27.640625 53.03125 
Q 38.328125 53.03125 45.109375 46.015625 
Q 51.90625 39.015625 51.90625 26.65625 
Q 51.90625 16.65625 48.90625 10.90625 
Q 45.90625 5.171875 40.15625 2 
Q 34.421875 -1.171875 27.640625 -1.171875 
Q 16.75 -1.171875 10.03125 5.8125 
Q 3.328125 12.796875 3.328125 25.921875 
z
M 12.359375 25.921875 
Q 12.359375 15.96875 16.703125 11.015625 
Q 21.046875 6.0625 27.640625 6.0625 
Q 34.1875 6.0625 38.53125 11.03125 
Q 42.875 16.015625 42.875 26.21875 
Q 42.875 35.84375 38.5 40.796875 
Q 34.125 45.75 27.640625 45.75 
Q 21.046875 45.75 16.703125 40.8125 
Q 12.359375 35.890625 12.359375 25.921875 
z
" id="ArialMT-6f"/>
      <path d="M 8.6875 0 
L 8.6875 45.015625 
L 0.921875 45.015625 
L 0.921875 51.859375 
L 8.6875 51.859375 
L 8.6875 57.375 
Q 8.6875 62.59375 9.625 65.140625 
Q 10.890625 68.5625 14.078125 70.671875 
Q 17.28125 72.796875 23.046875 72.796875 
Q 26.765625 72.796875 31.25 71.921875 
L 29.9375 64.265625 
Q 27.203125 64.75 24.75 64.75 
Q 20.75 64.75 19.09375 63.03125 
Q 17.4375 61.328125 17.4375 56.640625 
L 17.4375 51.859375 
L 27.546875 51.859375 
L 27.546875 45.015625 
L 17.4375 45.015625 
L 17.4375 0 
z
" id="ArialMT-66"/>
      <path d="M 7.71875 0 
L 7.71875 71.578125 
L 34.71875 71.578125 
Q 41.84375 71.578125 45.609375 70.90625 
Q 50.875 70.015625 54.4375 67.546875 
Q 58.015625 65.09375 60.1875 60.640625 
Q 62.359375 56.203125 62.359375 50.875 
Q 62.359375 41.75 56.546875 35.421875 
Q 50.734375 29.109375 35.546875 29.109375 
L 17.1875 29.109375 
L 17.1875 0 
z
M 17.1875 37.546875 
L 35.6875 37.546875 
Q 44.875 37.546875 48.734375 40.96875 
Q 52.59375 44.390625 52.59375 50.59375 
Q 52.59375 55.078125 50.3125 58.265625 
Q 48.046875 61.46875 44.34375 62.5 
Q 41.9375 63.140625 35.5 63.140625 
L 17.1875 63.140625 
z
" id="ArialMT-50"/>
      <path d="M 6.203125 -19.96875 
L 5.21875 -11.71875 
Q 8.109375 -12.5 10.25 -12.5 
Q 13.1875 -12.5 14.9375 -11.515625 
Q 16.703125 -10.546875 17.828125 -8.796875 
Q 18.65625 -7.46875 20.515625 -2.25 
Q 20.75 -1.515625 21.296875 -0.09375 
L 1.609375 51.859375 
L 11.078125 51.859375 
L 21.875 21.828125 
Q 23.96875 16.109375 25.640625 9.8125 
Q 27.15625 15.875 29.25 21.625 
L 40.328125 51.859375 
L 49.125 51.859375 
L 29.390625 -0.875 
Q 26.21875 -9.421875 24.46875 -12.640625 
Q 22.125 -17 19.09375 -19.015625 
Q 16.0625 -21.046875 11.859375 -21.046875 
Q 9.328125 -21.046875 6.203125 -19.96875 
z
" id="ArialMT-79"/>
      <path d="M 25.78125 7.859375 
L 27.046875 0.09375 
Q 23.34375 -0.6875 20.40625 -0.6875 
Q 15.625 -0.6875 12.984375 0.828125 
Q 10.359375 2.34375 9.28125 4.8125 
Q 8.203125 7.28125 8.203125 15.1875 
L 8.203125 45.015625 
L 1.765625 45.015625 
L 1.765625 51.859375 
L 8.203125 51.859375 
L 8.203125 64.703125 
L 16.9375 69.96875 
L 16.9375 51.859375 
L 25.78125 51.859375 
L 25.78125 45.015625 
L 16.9375 45.015625 
L 16.9375 14.703125 
Q 16.9375 10.9375 17.40625 9.859375 
Q 17.875 8.796875 18.921875 8.15625 
Q 19.96875 7.515625 21.921875 7.515625 
Q 23.390625 7.515625 25.78125 7.859375 
z
" id="ArialMT-74"/>
      <path d="M 3.078125 15.484375 
L 11.765625 16.84375 
Q 12.5 11.625 15.84375 8.84375 
Q 19.1875 6.0625 25.203125 6.0625 
Q 31.25 6.0625 34.171875 8.515625 
Q 37.109375 10.984375 37.109375 14.3125 
Q 37.109375 17.28125 34.515625 19 
Q 32.71875 20.171875 25.53125 21.96875 
Q 15.875 24.421875 12.140625 26.203125 
Q 8.40625 27.984375 6.46875 31.125 
Q 4.546875 34.28125 4.546875 38.09375 
Q 4.546875 41.546875 6.125 44.5 
Q 7.71875 47.46875 10.453125 49.421875 
Q 12.5 50.921875 16.03125 51.96875 
Q 19.578125 53.03125 23.640625 53.03125 
Q 29.734375 53.03125 34.34375 51.265625 
Q 38.96875 49.515625 41.15625 46.5 
Q 43.359375 43.5 44.1875 38.484375 
L 35.59375 37.3125 
Q 35.015625 41.3125 32.203125 43.546875 
Q 29.390625 45.796875 24.265625 45.796875 
Q 18.21875 45.796875 15.625 43.796875 
Q 13.03125 41.796875 13.03125 39.109375 
Q 13.03125 37.40625 14.109375 36.03125 
Q 15.1875 34.625 17.484375 33.6875 
Q 18.796875 33.203125 25.25 31.453125 
Q 34.578125 28.953125 38.25 27.359375 
Q 41.9375 25.78125 44.03125 22.75 
Q 46.140625 19.734375 46.140625 15.234375 
Q 46.140625 10.84375 43.578125 6.953125 
Q 41.015625 3.078125 36.171875 0.953125 
Q 31.34375 -1.171875 25.25 -1.171875 
Q 15.140625 -1.171875 9.84375 3.03125 
Q 4.546875 7.234375 3.078125 15.484375 
z
" id="ArialMT-73"/>
      <path d="M 23.390625 -21.046875 
Q 16.109375 -11.859375 11.078125 0.4375 
Q 6.0625 12.75 6.0625 25.921875 
Q 6.0625 37.546875 9.8125 48.1875 
Q 14.203125 60.546875 23.390625 72.796875 
L 29.6875 72.796875 
Q 23.78125 62.640625 21.875 58.296875 
Q 18.890625 51.5625 17.1875 44.234375 
Q 15.09375 35.109375 15.09375 25.875 
Q 15.09375 2.390625 29.6875 -21.046875 
z
" id="ArialMT-28"/>
      <path d="M 12.359375 -21.046875 
L 6.0625 -21.046875 
Q 20.65625 2.390625 20.65625 25.875 
Q 20.65625 35.0625 18.5625 44.09375 
Q 16.890625 51.421875 13.921875 58.15625 
Q 12.015625 62.546875 6.0625 72.796875 
L 12.359375 72.796875 
Q 21.53125 60.546875 25.921875 48.1875 
Q 29.6875 37.546875 29.6875 25.921875 
Q 29.6875 12.75 24.625 0.4375 
Q 19.578125 -11.859375 12.359375 -21.046875 
z
" id="ArialMT-29"/>
     </defs>
     <g style="fill:#262626;" transform="translate(14.479688 171.379375)rotate(-90)scale(0.1 -0.1)">
      <use xlink:href="#ArialMT-56"/>
      <use x="66.589844" xlink:href="#ArialMT-61"/>
      <use x="122.205078" xlink:href="#ArialMT-6c"/>
      <use x="144.421875" xlink:href="#ArialMT-75"/>
      <use x="200.037109" xlink:href="#ArialMT-65"/>
      <use x="255.652344" xlink:href="#ArialMT-20"/>
      <use x="283.435547" xlink:href="#ArialMT-6f"/>
      <use x="339.050781" xlink:href="#ArialMT-66"/>
      <use x="366.833984" xlink:href="#ArialMT-20"/>
      <use x="394.617188" xlink:href="#ArialMT-50"/>
      <use x="461.316406" xlink:href="#ArialMT-61"/>
      <use x="516.931641" xlink:href="#ArialMT-79"/>
      <use x="566.931641" xlink:href="#ArialMT-6d"/>
      <use x="650.232422" xlink:href="#ArialMT-65"/>
      <use x="705.847656" xlink:href="#ArialMT-6e"/>
      <use x="761.462891" xlink:href="#ArialMT-74"/>
      <use x="789.246094" xlink:href="#ArialMT-73"/>
      <use x="839.246094" xlink:href="#ArialMT-20"/>
      <use x="867.029297" xlink:href="#ArialMT-28"/>
      <use x="900.330078" xlink:href="#ArialMT-a3"/>
      <use x="955.945312" xlink:href="#ArialMT-29"/>
     </g>
    </g>
   </g>
   <g id="PolyCollection_1">
    <defs>
     <path d="M 60.669531 -49.692836 
L 60.669531 -49.692836 
L 70.235246 -49.692836 
L 79.80096 -49.692836 
L 89.366674 -49.692836 
L 98.932388 -49.692836 
L 108.498103 -49.692836 
L 118.063817 -49.692836 
L 127.629531 -49.692836 
L 137.195246 -49.692836 
L 146.76096 -49.692836 
L 156.326674 -49.692836 
L 165.892388 -49.692836 
L 175.458103 -49.692836 
L 185.023817 -49.692836 
L 194.589531 -49.692836 
L 204.155246 -49.692836 
L 213.72096 -49.692836 
L 223.286674 -49.692836 
L 232.852388 -49.692836 
L 242.418103 -49.692836 
L 251.983817 -49.692836 
L 261.549531 -49.692836 
L 271.115246 -49.692836 
L 280.68096 -49.692836 
L 290.246674 -49.692836 
L 299.812388 -49.692836 
L 309.378103 -49.692836 
L 318.943817 -49.692836 
L 328.509531 -49.692836 
L 338.075246 -49.692836 
L 347.64096 -49.692836 
L 357.206674 -49.692836 
L 366.772388 -49.692836 
L 376.338103 -49.692836 
L 385.903817 -49.692836 
L 395.469531 -49.692836 
L 395.469531 -159.831779 
L 395.469531 -159.831779 
L 385.903817 -178.33459 
L 376.338103 -157.161194 
L 366.772388 -223.644836 
L 357.206674 -174.128952 
L 347.64096 -164.18221 
L 338.075246 -124.028487 
L 328.509531 -151.359005 
L 318.943817 -91.937282 
L 309.378103 -136.207598 
L 299.812388 -112.52453 
L 290.246674 -107.213387 
L 280.68096 -131.162211 
L 271.115246 -103.672379 
L 261.549531 -117.832015 
L 251.983817 -99.848891 
L 242.418103 -187.068219 
L 232.852388 -182.158342 
L 223.286674 -185.699132 
L 213.72096 -185.135704 
L 204.155246 -171.812619 
L 194.589531 -163.694138 
L 185.023817 -176.280777 
L 175.458103 -209.808015 
L 165.892388 -198.472091 
L 156.326674 -208.110553 
L 146.76096 -214.832632 
L 137.195246 -206.530493 
L 127.629531 -207.487631 
L 118.063817 -200.547908 
L 108.498103 -219.809349 
L 98.932388 -62.811235 
L 89.366674 -62.673142 
L 79.80096 -62.238334 
L 70.235246 -62.893067 
L 60.669531 -49.692836 
z
" id="mcc20929e93" style="stroke:#377eb8;stroke-opacity:0.225;"/>
    </defs>
    <g clip-path="url(#pb50c7cd86c)">
     <use style="fill:#377eb8;fill-opacity:0.225;stroke:#377eb8;stroke-opacity:0.225;" x="0" xlink:href="#mcc20929e93" y="280.332836"/>
    </g>
   </g>
   <g id="patch_3">
    <path clip-path="url(#pb50c7cd86c)" d="M 60.669531 230.64 
L 60.669531 13.2 
L 114.811474 13.2 
L 114.811474 230.64 
z
" style="fill:#808080;opacity:0.075;stroke:#808080;stroke-linejoin:miter;"/>
   </g>
   <g id="line2d_33">
    <path clip-path="url(#pb50c7cd86c)" d="M 60.669531 230.64 
L 70.235246 217.439769 
L 79.80096 218.094502 
L 89.366674 217.659694 
L 98.932388 217.521601 
L 108.498103 60.523487 
L 118.063817 79.784927 
L 127.629531 72.845205 
L 137.195246 73.802343 
L 146.76096 65.500204 
L 156.326674 72.222283 
L 165.892388 81.860745 
L 175.458103 70.524821 
L 185.023817 104.052059 
L 194.589531 116.638698 
L 204.155246 108.520217 
L 213.72096 95.197132 
L 223.286674 94.633704 
L 232.852388 98.174494 
L 242.418103 93.264617 
L 251.983817 180.483945 
L 261.549531 162.500821 
L 271.115246 176.660457 
L 280.68096 149.170625 
L 290.246674 173.119449 
L 299.812388 167.808306 
L 309.378103 144.125238 
L 318.943817 188.395554 
L 328.509531 128.97383 
L 338.075246 156.304349 
L 347.64096 116.150625 
L 357.206674 106.203884 
L 366.772388 56.688 
L 376.338103 123.171642 
L 385.903817 101.998246 
L 395.469531 120.501057 
" style="fill:none;opacity:0.225;stroke:#377eb8;stroke-linecap:round;stroke-width:1.5;"/>
   </g>
   <g id="line2d_34">
    <path clip-path="url(#pb50c7cd86c)" d="M 60.669531 230.64 
" style="fill:none;opacity:0.2;stroke:#ff7f00;stroke-linecap:round;stroke-width:1.5;"/>
   </g>
   <g id="patch_4">
    <path d="M 60.669531 230.64 
L 395.469531 230.64 
" style="fill:none;stroke:#262626;stroke-linecap:square;stroke-linejoin:miter;stroke-width:0.75;"/>
   </g>
   <g id="legend_1">
    <g id="line2d_35">
     <path d="M 314.307031 23.42375 
L 330.307031 23.42375 
" style="fill:none;opacity:0.225;stroke:#377eb8;stroke-linecap:round;stroke-width:1.5;"/>
    </g>
    <g id="line2d_36"/>
    <g id="text_19">
     <!-- Value (left) -->
     <g style="fill:#262626;" transform="translate(336.707031 26.22375)scale(0.08 -0.08)">
      <use xlink:href="#ArialMT-56"/>
      <use x="66.589844" xlink:href="#ArialMT-61"/>
      <use x="122.205078" xlink:href="#ArialMT-6c"/>
      <use x="144.421875" xlink:href="#ArialMT-75"/>
      <use x="200.037109" xlink:href="#ArialMT-65"/>
      <use x="255.652344" xlink:href="#ArialMT-20"/>
      <use x="283.435547" xlink:href="#ArialMT-28"/>
      <use x="316.736328" xlink:href="#ArialMT-6c"/>
      <use x="338.953125" xlink:href="#ArialMT-65"/>
      <use x="394.568359" xlink:href="#ArialMT-66"/>
      <use x="422.351562" xlink:href="#ArialMT-74"/>
      <use x="450.134766" xlink:href="#ArialMT-29"/>
     </g>
    </g>
    <g id="line2d_37">
     <path d="M 314.307031 34.93125 
L 330.307031 34.93125 
" style="fill:none;opacity:0.2;stroke:#ff7f00;stroke-linecap:round;stroke-width:1.5;"/>
    </g>
    <g id="line2d_38"/>
    <g id="text_20">
     <!-- Number (right) -->
     <defs>
      <path d="M 7.625 0 
L 7.625 71.578125 
L 17.328125 71.578125 
L 54.9375 15.375 
L 54.9375 71.578125 
L 64.015625 71.578125 
L 64.015625 0 
L 54.296875 0 
L 16.703125 56.25 
L 16.703125 0 
z
" id="ArialMT-4e"/>
      <path d="M 6.5 0 
L 6.5 51.859375 
L 14.40625 51.859375 
L 14.40625 44 
Q 17.4375 49.515625 20 51.265625 
Q 22.5625 53.03125 25.640625 53.03125 
Q 30.078125 53.03125 34.671875 50.203125 
L 31.640625 42.046875 
Q 28.421875 43.953125 25.203125 43.953125 
Q 22.3125 43.953125 20.015625 42.21875 
Q 17.71875 40.484375 16.75 37.40625 
Q 15.28125 32.71875 15.28125 27.15625 
L 15.28125 0 
z
" id="ArialMT-72"/>
      <path d="M 4.984375 -4.296875 
L 13.53125 -5.5625 
Q 14.0625 -9.515625 16.5 -11.328125 
Q 19.78125 -13.765625 25.4375 -13.765625 
Q 31.546875 -13.765625 34.859375 -11.328125 
Q 38.1875 -8.890625 39.359375 -4.5 
Q 40.046875 -1.8125 39.984375 6.78125 
Q 34.234375 0 25.640625 0 
Q 14.9375 0 9.078125 7.71875 
Q 3.21875 15.4375 3.21875 26.21875 
Q 3.21875 33.640625 5.90625 39.90625 
Q 8.59375 46.1875 13.6875 49.609375 
Q 18.796875 53.03125 25.6875 53.03125 
Q 34.859375 53.03125 40.828125 45.609375 
L 40.828125 51.859375 
L 48.921875 51.859375 
L 48.921875 7.03125 
Q 48.921875 -5.078125 46.453125 -10.125 
Q 44 -15.1875 38.640625 -18.109375 
Q 33.296875 -21.046875 25.484375 -21.046875 
Q 16.21875 -21.046875 10.5 -16.875 
Q 4.78125 -12.703125 4.984375 -4.296875 
z
M 12.25 26.859375 
Q 12.25 16.65625 16.296875 11.96875 
Q 20.359375 7.28125 26.46875 7.28125 
Q 32.515625 7.28125 36.609375 11.9375 
Q 40.71875 16.609375 40.71875 26.5625 
Q 40.71875 36.078125 36.5 40.90625 
Q 32.28125 45.75 26.3125 45.75 
Q 20.453125 45.75 16.34375 40.984375 
Q 12.25 36.234375 12.25 26.859375 
z
" id="ArialMT-67"/>
      <path d="M 6.59375 0 
L 6.59375 71.578125 
L 15.375 71.578125 
L 15.375 45.90625 
Q 21.53125 53.03125 30.90625 53.03125 
Q 36.671875 53.03125 40.921875 50.75 
Q 45.171875 48.484375 47 44.484375 
Q 48.828125 40.484375 48.828125 32.859375 
L 48.828125 0 
L 40.046875 0 
L 40.046875 32.859375 
Q 40.046875 39.453125 37.1875 42.453125 
Q 34.328125 45.453125 29.109375 45.453125 
Q 25.203125 45.453125 21.75 43.421875 
Q 18.3125 41.40625 16.84375 37.9375 
Q 15.375 34.46875 15.375 28.375 
L 15.375 0 
z
" id="ArialMT-68"/>
     </defs>
     <g style="fill:#262626;" transform="translate(336.707031 37.73125)scale(0.08 -0.08)">
      <use xlink:href="#ArialMT-4e"/>
      <use x="72.216797" xlink:href="#ArialMT-75"/>
      <use x="127.832031" xlink:href="#ArialMT-6d"/>
      <use x="211.132812" xlink:href="#ArialMT-62"/>
      <use x="266.748047" xlink:href="#ArialMT-65"/>
      <use x="322.363281" xlink:href="#ArialMT-72"/>
      <use x="355.664062" xlink:href="#ArialMT-20"/>
      <use x="383.447266" xlink:href="#ArialMT-28"/>
      <use x="416.748047" xlink:href="#ArialMT-72"/>
      <use x="450.048828" xlink:href="#ArialMT-69"/>
      <use x="472.265625" xlink:href="#ArialMT-67"/>
      <use x="527.880859" xlink:href="#ArialMT-68"/>
      <use x="583.496094" xlink:href="#ArialMT-74"/>
      <use x="611.279297" xlink:href="#ArialMT-29"/>
     </g>
    </g>
   </g>
  </g>
  <g id="axes_2">
   <g id="matplotlib.axis_3">
    <g id="ytick_8">
     <g id="line2d_39">
      <defs>
       <path d="M 0 0 
L 6 0 
" id="meba20eb7cf" style="stroke:#262626;stroke-width:1.25;"/>
      </defs>
      <g>
       <use style="fill:#262626;stroke:#262626;stroke-width:1.25;" x="395.469531" xlink:href="#meba20eb7cf" y="230.64"/>
      </g>
     </g>
     <g id="text_21">
      <!-- 0k -->
      <defs>
       <path d="M 6.640625 0 
L 6.640625 71.578125 
L 15.4375 71.578125 
L 15.4375 30.765625 
L 36.234375 51.859375 
L 47.609375 51.859375 
L 27.78125 32.625 
L 49.609375 0 
L 38.765625 0 
L 21.625 26.515625 
L 15.4375 20.5625 
L 15.4375 0 
z
" id="ArialMT-6b"/>
      </defs>
      <g style="fill:#262626;" transform="translate(404.969531 234.576797)scale(0.11 -0.11)">
       <use xlink:href="#ArialMT-30"/>
       <use x="55.615234" xlink:href="#ArialMT-6b"/>
      </g>
     </g>
    </g>
    <g id="ytick_9">
     <g id="line2d_40">
      <g>
       <use style="fill:#262626;stroke:#262626;stroke-width:1.25;" x="395.469531" xlink:href="#meba20eb7cf" y="203.548049"/>
      </g>
     </g>
     <g id="text_22">
      <!-- 5k -->
      <g style="fill:#262626;" transform="translate(404.969531 207.484846)scale(0.11 -0.11)">
       <use xlink:href="#ArialMT-35"/>
       <use x="55.615234" xlink:href="#ArialMT-6b"/>
      </g>
     </g>
    </g>
    <g id="ytick_10">
     <g id="line2d_41">
      <g>
       <use style="fill:#262626;stroke:#262626;stroke-width:1.25;" x="395.469531" xlink:href="#meba20eb7cf" y="176.456098"/>
      </g>
     </g>
     <g id="text_23">
      <!-- 10k -->
      <g style="fill:#262626;" transform="translate(404.969531 180.392895)scale(0.11 -0.11)">
       <use xlink:href="#ArialMT-31"/>
       <use x="55.615234" xlink:href="#ArialMT-30"/>
       <use x="111.230469" xlink:href="#ArialMT-6b"/>
      </g>
     </g>
    </g>
    <g id="ytick_11">
     <g id="line2d_42">
      <g>
       <use style="fill:#262626;stroke:#262626;stroke-width:1.25;" x="395.469531" xlink:href="#meba20eb7cf" y="149.364147"/>
      </g>
     </g>
     <g id="text_24">
      <!-- 15k -->
      <g style="fill:#262626;" transform="translate(404.969531 153.300943)scale(0.11 -0.11)">
       <use xlink:href="#ArialMT-31"/>
       <use x="55.615234" xlink:href="#ArialMT-35"/>
       <use x="111.230469" xlink:href="#ArialMT-6b"/>
      </g>
     </g>
    </g>
    <g id="ytick_12">
     <g id="line2d_43">
      <g>
       <use style="fill:#262626;stroke:#262626;stroke-width:1.25;" x="395.469531" xlink:href="#meba20eb7cf" y="122.272195"/>
      </g>
     </g>
     <g id="text_25">
      <!-- 20k -->
      <g style="fill:#262626;" transform="translate(404.969531 126.208992)scale(0.11 -0.11)">
       <use xlink:href="#ArialMT-32"/>
       <use x="55.615234" xlink:href="#ArialMT-30"/>
       <use x="111.230469" xlink:href="#ArialMT-6b"/>
      </g>
     </g>
    </g>
    <g id="ytick_13">
     <g id="line2d_44">
      <g>
       <use style="fill:#262626;stroke:#262626;stroke-width:1.25;" x="395.469531" xlink:href="#meba20eb7cf" y="95.180244"/>
      </g>
     </g>
     <g id="text_26">
      <!-- 25k -->
      <g style="fill:#262626;" transform="translate(404.969531 99.117041)scale(0.11 -0.11)">
       <use xlink:href="#ArialMT-32"/>
       <use x="55.615234" xlink:href="#ArialMT-35"/>
       <use x="111.230469" xlink:href="#ArialMT-6b"/>
      </g>
     </g>
    </g>
    <g id="ytick_14">
     <g id="line2d_45">
      <g>
       <use style="fill:#262626;stroke:#262626;stroke-width:1.25;" x="395.469531" xlink:href="#meba20eb7cf" y="68.088293"/>
      </g>
     </g>
     <g id="text_27">
      <!-- 30k -->
      <g style="fill:#262626;" transform="translate(404.969531 72.02509)scale(0.11 -0.11)">
       <use xlink:href="#ArialMT-33"/>
       <use x="55.615234" xlink:href="#ArialMT-30"/>
       <use x="111.230469" xlink:href="#ArialMT-6b"/>
      </g>
     </g>
    </g>
    <g id="ytick_15">
     <g id="line2d_46">
      <g>
       <use style="fill:#262626;stroke:#262626;stroke-width:1.25;" x="395.469531" xlink:href="#meba20eb7cf" y="40.996342"/>
      </g>
     </g>
     <g id="text_28">
      <!-- 35k -->
      <g style="fill:#262626;" transform="translate(404.969531 44.933139)scale(0.11 -0.11)">
       <use xlink:href="#ArialMT-33"/>
       <use x="55.615234" xlink:href="#ArialMT-35"/>
       <use x="111.230469" xlink:href="#ArialMT-6b"/>
      </g>
     </g>
    </g>
    <g id="ytick_16">
     <g id="line2d_47">
      <g>
       <use style="fill:#262626;stroke:#262626;stroke-width:1.25;" x="395.469531" xlink:href="#meba20eb7cf" y="13.904391"/>
      </g>
     </g>
     <g id="text_29">
      <!-- 40k -->
      <g style="fill:#262626;" transform="translate(404.969531 17.841188)scale(0.11 -0.11)">
       <use xlink:href="#ArialMT-34"/>
       <use x="55.615234" xlink:href="#ArialMT-30"/>
       <use x="111.230469" xlink:href="#ArialMT-6b"/>
      </g>
     </g>
    </g>
    <g id="text_30">
     <!-- Number of Payments -->
     <g style="fill:#262626;" transform="translate(433.983281 168.880156)rotate(-90)scale(0.1 -0.1)">
      <use xlink:href="#ArialMT-4e"/>
      <use x="72.216797" xlink:href="#ArialMT-75"/>
      <use x="127.832031" xlink:href="#ArialMT-6d"/>
      <use x="211.132812" xlink:href="#ArialMT-62"/>
      <use x="266.748047" xlink:href="#ArialMT-65"/>
      <use x="322.363281" xlink:href="#ArialMT-72"/>
      <use x="355.664062" xlink:href="#ArialMT-20"/>
      <use x="383.447266" xlink:href="#ArialMT-6f"/>
      <use x="439.0625" xlink:href="#ArialMT-66"/>
      <use x="466.845703" xlink:href="#ArialMT-20"/>
      <use x="494.628906" xlink:href="#ArialMT-50"/>
      <use x="561.328125" xlink:href="#ArialMT-61"/>
      <use x="616.943359" xlink:href="#ArialMT-79"/>
      <use x="666.943359" xlink:href="#ArialMT-6d"/>
      <use x="750.244141" xlink:href="#ArialMT-65"/>
      <use x="805.859375" xlink:href="#ArialMT-6e"/>
      <use x="861.474609" xlink:href="#ArialMT-74"/>
      <use x="889.257812" xlink:href="#ArialMT-73"/>
     </g>
    </g>
   </g>
   <g id="PolyCollection_2">
    <defs>
     <path d="M 60.669531 -49.692836 
L 60.669531 -49.692836 
L 70.235246 -49.692836 
L 79.80096 -49.692836 
L 89.366674 -49.692836 
L 98.932388 -49.692836 
L 108.498103 -49.692836 
L 118.063817 -49.692836 
L 127.629531 -49.692836 
L 137.195246 -49.692836 
L 146.76096 -49.692836 
L 156.326674 -49.692836 
L 165.892388 -49.692836 
L 175.458103 -49.692836 
L 185.023817 -49.692836 
L 194.589531 -49.692836 
L 204.155246 -49.692836 
L 213.72096 -49.692836 
L 223.286674 -49.692836 
L 232.852388 -49.692836 
L 242.418103 -49.692836 
L 251.983817 -49.692836 
L 261.549531 -49.692836 
L 271.115246 -49.692836 
L 280.68096 -49.692836 
L 290.246674 -49.692836 
L 299.812388 -49.692836 
L 309.378103 -49.692836 
L 318.943817 -49.692836 
L 328.509531 -49.692836 
L 338.075246 -49.692836 
L 347.64096 -49.692836 
L 357.206674 -49.692836 
L 366.772388 -49.692836 
L 376.338103 -49.692836 
L 385.903817 -49.692836 
L 395.469531 -49.692836 
L 395.469531 -223.644836 
L 395.469531 -223.644836 
L 385.903817 -200.643769 
L 376.338103 -194.092936 
L 366.772388 -208.841794 
L 357.206674 -195.268726 
L 347.64096 -199.700969 
L 338.075246 -199.874358 
L 328.509531 -206.192201 
L 318.943817 -169.357984 
L 309.378103 -172.457303 
L 299.812388 -196.244036 
L 290.246674 -211.702704 
L 280.68096 -203.911059 
L 271.115246 -176.028023 
L 261.549531 -199.305427 
L 251.983817 -187.173651 
L 242.418103 -173.844411 
L 232.852388 -181.067125 
L 223.286674 -187.141141 
L 213.72096 -188.723311 
L 204.155246 -154.007685 
L 194.589531 -148.627223 
L 185.023817 -148.242517 
L 175.458103 -171.167727 
L 165.892388 -141.393672 
L 156.326674 -146.188948 
L 146.76096 -153.926409 
L 137.195246 -178.455461 
L 127.629531 -170.019028 
L 118.063817 -176.152646 
L 108.498103 -175.453673 
L 98.932388 -82.300708 
L 89.366674 -76.806461 
L 79.80096 -75.305567 
L 70.235246 -78.65955 
L 60.669531 -49.692836 
z
" id="m6e4128e9d3" style="stroke:#ff7f00;stroke-opacity:0.225;"/>
    </defs>
    <g clip-path="url(#pb50c7cd86c)">
     <use style="fill:#ff7f00;fill-opacity:0.225;stroke:#ff7f00;stroke-opacity:0.225;" x="0" xlink:href="#m6e4128e9d3" y="280.332836"/>
    </g>
   </g>
   <g id="line2d_48">
    <path clip-path="url(#pb50c7cd86c)" d="M 60.669531 230.64 
L 70.235246 201.673286 
L 79.80096 205.027269 
L 89.366674 203.526375 
L 98.932388 198.032128 
L 108.498103 104.879163 
L 118.063817 104.18019 
L 127.629531 110.313808 
L 137.195246 101.877375 
L 146.76096 126.406427 
L 156.326674 134.143888 
L 165.892388 138.939164 
L 175.458103 109.165109 
L 185.023817 132.090318 
L 194.589531 131.705613 
L 204.155246 126.325151 
L 213.72096 91.609525 
L 223.286674 93.191695 
L 232.852388 99.26571 
L 242.418103 106.488425 
L 251.983817 93.159185 
L 261.549531 81.027409 
L 271.115246 104.304813 
L 280.68096 76.421777 
L 290.246674 68.630132 
L 299.812388 84.088799 
L 309.378103 107.875533 
L 318.943817 110.974852 
L 328.509531 74.140635 
L 338.075246 80.458478 
L 347.64096 80.631866 
L 357.206674 85.06411 
L 366.772388 71.491042 
L 376.338103 86.2399 
L 385.903817 79.689067 
L 395.469531 56.688 
" style="fill:none;opacity:0.225;stroke:#ff7f00;stroke-linecap:round;stroke-width:1.5;"/>
   </g>
   <g id="patch_5">
    <path d="M 60.669531 230.64 
L 60.669531 13.2 
" style="fill:none;stroke:#262626;stroke-linecap:square;stroke-linejoin:miter;stroke-width:0.75;"/>
   </g>
   <g id="patch_6">
    <path d="M 395.469531 230.64 
L 395.469531 13.2 
" style="fill:none;stroke:#262626;stroke-linecap:square;stroke-linejoin:miter;stroke-width:0.75;"/>
   </g>
   <g id="patch_7">
    <path d="M 60.669531 230.64 
L 395.469531 230.64 
" style="fill:none;stroke:#262626;stroke-linecap:square;stroke-linejoin:miter;stroke-width:0.75;"/>
   </g>
  </g>
 </g>
 <defs>
  <clipPath id="pb50c7cd86c">
   <rect height="217.44" width="334.8" x="60.669531" y="13.2"/>
  </clipPath>
 </defs>
</svg>
